<?xml version="1.0" encoding="iso-8859-1"?>
<!-- Generator: Adobe Illustrator 19.0.0, SVG Export Plug-In . SVG Version: 6.00 Build 0)  -->
<svg version="1.1" id="Layer_1" xmlns="http://www.w3.org/2000/svg" xmlns:xlink="http://www.w3.org/1999/xlink" x="0px" y="0px"
	 viewBox="0 0 512 512" style="enable-background:new 0 0 512 512;" xml:space="preserve">
<g transform="translate(1 1)">
	<g>
		<g>
			<path d="M75.8,148.333h25.6c5.12,0,8.533-3.413,8.533-8.533s-3.413-8.533-8.533-8.533H75.8c-5.12,0-8.533,3.413-8.533,8.533
				S70.68,148.333,75.8,148.333z"/>
			<path d="M135.533,148.333h59.733c5.12,0,8.533-3.413,8.533-8.533s-3.413-8.533-8.533-8.533h-59.733
				c-5.12,0-8.533,3.413-8.533,8.533S130.413,148.333,135.533,148.333z"/>
			<path d="M75.8,182.467h42.667c5.12,0,8.533-3.413,8.533-8.533c0-5.12-3.413-8.533-8.533-8.533H75.8
				c-5.12,0-8.533,3.413-8.533,8.533C67.267,179.053,70.68,182.467,75.8,182.467z"/>
			<path d="M161.133,182.467c5.12,0,8.533-3.413,8.533-8.533c0-5.12-3.413-8.533-8.533-8.533H152.6c-5.12,0-8.533,3.413-8.533,8.533
				c0,5.12,3.413,8.533,8.533,8.533H161.133z"/>
			<path d="M75.8,216.6h25.6c5.12,0,8.533-3.413,8.533-8.533s-3.413-8.533-8.533-8.533H75.8c-5.12,0-8.533,3.413-8.533,8.533
				S70.68,216.6,75.8,216.6z"/>
			<path d="M203.8,208.067c0-5.12-3.413-8.533-8.533-8.533h-59.733c-5.12,0-8.533,3.413-8.533,8.533s3.413,8.533,8.533,8.533h59.733
				C200.387,216.6,203.8,213.187,203.8,208.067z"/>
			<path d="M75.8,250.733h42.667c5.12,0,8.533-3.413,8.533-8.533s-3.413-8.533-8.533-8.533H75.8c-5.12,0-8.533,3.413-8.533,8.533
				S70.68,250.733,75.8,250.733z"/>
			<path d="M152.6,233.667c-5.12,0-8.533,3.413-8.533,8.533s3.413,8.533,8.533,8.533h8.533c5.12,0,8.533-3.413,8.533-8.533
				s-3.413-8.533-8.533-8.533H152.6z"/>
			<path d="M75.8,284.867h25.6c5.12,0,8.533-3.413,8.533-8.533s-3.413-8.533-8.533-8.533H75.8c-5.12,0-8.533,3.413-8.533,8.533
				S70.68,284.867,75.8,284.867z"/>
			<path d="M203.8,276.333c0-5.12-3.413-8.533-8.533-8.533h-59.733c-5.12,0-8.533,3.413-8.533,8.533s3.413,8.533,8.533,8.533h59.733
				C200.387,284.867,203.8,281.453,203.8,276.333z"/>
			<path d="M118.467,301.933H75.8c-5.12,0-8.533,3.413-8.533,8.533S70.68,319,75.8,319h42.667c5.12,0,8.533-3.413,8.533-8.533
				S123.587,301.933,118.467,301.933z"/>
			<path d="M161.133,301.933H152.6c-5.12,0-8.533,3.413-8.533,8.533S147.48,319,152.6,319h8.533c5.12,0,8.533-3.413,8.533-8.533
				S166.253,301.933,161.133,301.933z"/>
			<path d="M348.867,216.6H434.2c5.12,0,8.533-3.413,8.533-8.533c0-52.053-41.813-93.867-93.867-93.867
				c-5.12,0-8.533,3.413-8.533,8.533v85.333C340.333,213.187,343.747,216.6,348.867,216.6z M357.4,132.12
				c34.987,3.413,63.147,31.573,67.413,67.413H357.4V132.12z"/>
			<path d="M314.733,336.067c52.053,0,93.867-41.813,93.867-93.867c0-5.12-3.413-8.533-8.533-8.533h-76.8v-76.8
				c0-5.12-3.413-8.533-8.533-8.533c-52.053,0-93.867,41.813-93.867,93.867S262.68,336.067,314.733,336.067z M306.2,166.253V242.2
				c0,5.12,3.413,8.533,8.533,8.533h75.947c-4.267,38.4-36.693,68.267-75.947,68.267c-42.667,0-76.8-34.133-76.8-76.8
				C237.933,202.947,267.8,170.52,306.2,166.253z"/>
			<path d="M502.467,370.2h-25.6V105.667c0-14.507-11.093-25.6-25.6-25.6H58.733c-14.507,0-25.6,11.093-25.6,25.6V370.2h-25.6
				c-5.12,0-8.533,3.413-8.533,8.533v25.6c0,14.507,11.093,25.6,25.6,25.6h460.8c14.507,0,25.6-11.093,25.6-25.6v-25.6
				C511,373.613,507.587,370.2,502.467,370.2z M50.2,105.667c0-5.12,3.413-8.533,8.533-8.533h392.533
				c5.12,0,8.533,3.413,8.533,8.533V370.2H323.267c-5.12,0-8.533,3.413-8.533,8.533v8.533H195.267v-8.533
				c0-5.12-3.413-8.533-8.533-8.533H50.2V105.667z M493.933,404.333c0,5.12-3.413,8.533-8.533,8.533H24.6
				c-5.12,0-8.533-3.413-8.533-8.533v-17.067h25.6H178.2v8.533c0,5.12,3.413,8.533,8.533,8.533h136.533
				c5.12,0,8.533-3.413,8.533-8.533v-8.533h136.533h25.6V404.333z"/>
		</g>
	</g>
</g>
<g>
</g>
<g>
</g>
<g>
</g>
<g>
</g>
<g>
</g>
<g>
</g>
<g>
</g>
<g>
</g>
<g>
</g>
<g>
</g>
<g>
</g>
<g>
</g>
<g>
</g>
<g>
</g>
<g>
</g>
</svg>
