<?xml version="1.0" encoding="iso-8859-1"?>
<!-- Generator: Adobe Illustrator 19.0.0, SVG Export Plug-In . SVG Version: 6.00 Build 0)  -->
<svg version="1.1" id="Layer_1" xmlns="http://www.w3.org/2000/svg" xmlns:xlink="http://www.w3.org/1999/xlink" x="0px" y="0px"
	 viewBox="0 0 512 512" style="enable-background:new 0 0 512 512;" xml:space="preserve">
<g transform="translate(1 1)">
	<g>
		<g>
			<path d="M472.6,16.067H37.4c-21.333,0-38.4,17.067-38.4,38.4v260.267v38.4c0,21.333,17.067,38.4,38.4,38.4h163.84l-12.8,51.2
				h-1.707c-23.893,0-42.667,18.773-42.667,42.667c0,5.12,3.413,8.533,8.533,8.533h204.8c5.12,0,8.533-3.413,8.533-8.533
				c0-23.893-18.773-42.667-42.667-42.667h-1.707l-12.8-51.2H472.6c21.333,0,38.4-17.067,38.4-38.4v-38.4V54.467
				C511,33.133,493.933,16.067,472.6,16.067z M16.067,54.467c0-11.947,9.387-21.333,21.333-21.333h435.2
				c11.947,0,21.333,9.387,21.333,21.333V306.2H16.067V54.467z M348.013,476.867H162.84c3.413-10.24,12.8-17.067,23.893-17.067
				h8.533h119.467h9.387C335.213,459.8,344.6,466.627,348.013,476.867z M303.64,442.733h-97.28l12.8-51.2h71.68L303.64,442.733z
				 M493.933,353.133c0,11.947-9.387,21.333-21.333,21.333H297.667h-85.333H37.4c-11.947,0-21.333-9.387-21.333-21.333v-29.867
				h477.867V353.133z"/>
			<path d="M67.267,229.4v17.067v42.667h68.267v-42.667V229.4v-42.667H67.267V229.4z M118.467,272.067H84.333v-25.6h34.133V272.067z
				 M84.333,203.8h34.133v25.6H84.333V203.8z"/>
			<path d="M144.067,229.4v17.067v42.667h68.267v-42.667V229.4v-76.8h-68.267V229.4z M195.267,272.067h-34.133v-25.6h34.133V272.067
				z M161.133,169.667h34.133V229.4h-34.133V169.667z"/>
			<path d="M220.867,229.4v17.067v42.667h68.267v-42.667V229.4v-128h-68.267V229.4z M272.067,272.067h-34.133v-25.6h34.133V272.067z
				 M237.933,118.467h34.133V229.4h-34.133V118.467z"/>
			<path d="M297.667,229.4v17.067v42.667h68.267v-42.667V229.4v-68.267h-68.267V229.4z M348.867,272.067h-34.133v-25.6h34.133
				V272.067z M314.733,178.2h34.133v51.2h-34.133V178.2z"/>
			<path d="M374.467,229.4v17.067v42.667h68.267v-42.667V229.4V50.2h-68.267V229.4z M425.667,272.067h-34.133v-25.6h34.133V272.067z
				 M391.533,67.267h34.133V229.4h-34.133V67.267z"/>
			<path d="M127,58.733H84.333c-5.12,0-8.533,3.413-8.533,8.533s3.413,8.533,8.533,8.533h22.187l-45.227,45.227
				c-3.413,3.413-3.413,8.533,0,11.947c1.707,1.707,3.413,2.56,5.973,2.56s4.267-0.853,5.973-2.56l45.227-45.227v22.187
				c0,5.12,3.413,8.533,8.533,8.533s8.533-3.413,8.533-8.533V67.267C135.533,62.147,132.12,58.733,127,58.733z"/>
		</g>
	</g>
</g>
<g>
</g>
<g>
</g>
<g>
</g>
<g>
</g>
<g>
</g>
<g>
</g>
<g>
</g>
<g>
</g>
<g>
</g>
<g>
</g>
<g>
</g>
<g>
</g>
<g>
</g>
<g>
</g>
<g>
</g>
</svg>
