<?xml version="1.0" encoding="iso-8859-1"?>
<!-- Generator: Adobe Illustrator 19.0.0, SVG Export Plug-In . SVG Version: 6.00 Build 0)  -->
<svg version="1.1" id="Layer_1" xmlns="http://www.w3.org/2000/svg" xmlns:xlink="http://www.w3.org/1999/xlink" x="0px" y="0px"
	 viewBox="0 0 512 512" style="enable-background:new 0 0 512 512;" xml:space="preserve">
<g transform="translate(1 1)">
	<g>
		<g>
			<path d="M161.133,284.867c8.523,0,16.336-3.173,22.333-8.386l11.653,11.653c-5.214,5.998-8.386,13.811-8.386,22.333
				c0,18.773,15.36,34.133,34.133,34.133c18.773,0,34.133-15.36,34.133-34.133c0-6.339-1.757-12.286-4.8-17.387l59.266-59.266
				c5.998,5.214,13.811,8.386,22.333,8.386c8.392,0,16.097-3.076,22.058-8.148l29.512,36.419
				c-5.525,6.071-8.903,14.124-8.903,22.929c0,18.773,15.36,34.133,34.133,34.133c18.773,0,34.133-15.36,34.133-34.133
				c0-18.773-15.36-34.133-34.133-34.133c-3.854,0-7.56,0.657-11.023,1.848l-33.658-41.536c1.301-3.601,2.014-7.477,2.014-11.512
				c0-18.773-15.36-34.133-34.133-34.133c-18.773,0-34.133,15.36-34.133,34.133c0,4.07,0.724,7.979,2.047,11.607l-61.459,61.46
				c-5.101-3.043-11.048-4.8-17.387-4.8c-4.07,0-7.979,0.724-11.607,2.047l-16.04-16.04c1.322-3.628,2.047-7.536,2.047-11.607
				c0-18.773-15.36-34.133-34.133-34.133C142.36,216.6,127,231.96,127,250.733c0,4.303,0.815,8.422,2.285,12.222l-15.663,15.663
				c-3.8-1.47-7.919-2.285-12.222-2.285c-18.773,0-34.133,15.36-34.133,34.133c0,18.773,15.36,34.133,34.133,34.133
				c18.773,0,34.133-15.36,34.133-34.133c0-8.523-3.173-16.336-8.386-22.333L138.8,276.48
				C144.798,281.694,152.611,284.867,161.133,284.867z M425.667,293.4c0,9.387-7.68,17.067-17.067,17.067
				s-17.067-7.68-17.067-17.067c0-9.387,7.68-17.067,17.067-17.067S425.667,284.013,425.667,293.4z M331.8,191
				c9.387,0,17.067,7.68,17.067,17.067s-7.68,17.067-17.067,17.067c-9.387,0-17.067-7.68-17.067-17.067S322.413,191,331.8,191z
				 M232.002,297.578c0.247,0.324,0.512,0.642,0.812,0.942c0.342,0.342,0.685,0.64,1.034,0.913
				c2.541,2.982,4.086,6.833,4.086,11.034c0,9.387-7.68,17.067-17.067,17.067c-9.387,0-17.067-7.68-17.067-17.067
				s7.68-17.067,17.067-17.067C225.116,293.4,229.006,294.985,232.002,297.578z M161.133,233.667c9.387,0,17.067,7.68,17.067,17.067
				c0,9.387-7.68,17.067-17.067,17.067c-9.387,0-17.067-7.68-17.067-17.067C144.067,241.347,151.747,233.667,161.133,233.667z
				 M101.4,327.533c-9.387,0-17.067-7.68-17.067-17.067S92.013,293.4,101.4,293.4c9.387,0,17.067,7.68,17.067,17.067
				S110.787,327.533,101.4,327.533z"/>
			<path d="M502.467,370.2h-25.6V105.667c0-14.507-11.093-25.6-25.6-25.6H58.733c-14.507,0-25.6,11.093-25.6,25.6V370.2h-25.6
				c-5.12,0-8.533,3.413-8.533,8.533v25.6c0,14.507,11.093,25.6,25.6,25.6h460.8c14.507,0,25.6-11.093,25.6-25.6v-25.6
				C511,373.613,507.587,370.2,502.467,370.2z M50.2,105.667c0-5.12,3.413-8.533,8.533-8.533h392.533
				c5.12,0,8.533,3.413,8.533,8.533V370.2H323.267c-5.12,0-8.533,3.413-8.533,8.533v8.533H195.267v-8.533
				c0-5.12-3.413-8.533-8.533-8.533H50.2V105.667z M493.933,404.333c0,5.12-3.413,8.533-8.533,8.533H24.6
				c-5.12,0-8.533-3.413-8.533-8.533v-17.067h25.6H178.2v8.533c0,5.12,3.413,8.533,8.533,8.533h136.533
				c5.12,0,8.533-3.413,8.533-8.533v-8.533h136.533h25.6V404.333z"/>
			<path d="M75.8,131.267h93.867c5.12,0,8.533-3.413,8.533-8.533s-3.413-8.533-8.533-8.533H75.8c-5.12,0-8.533,3.413-8.533,8.533
				S70.68,131.267,75.8,131.267z"/>
			<path d="M203.8,131.267h76.8c5.12,0,8.533-3.413,8.533-8.533s-3.413-8.533-8.533-8.533h-76.8c-5.12,0-8.533,3.413-8.533,8.533
				S198.68,131.267,203.8,131.267z"/>
			<path d="M75.8,165.4H127c5.12,0,8.533-3.413,8.533-8.533s-3.413-8.533-8.533-8.533H75.8c-5.12,0-8.533,3.413-8.533,8.533
				S70.68,165.4,75.8,165.4z"/>
			<path d="M161.133,148.333c-5.12,0-8.533,3.413-8.533,8.533s3.413,8.533,8.533,8.533h76.8c5.12,0,8.533-3.413,8.533-8.533
				s-3.413-8.533-8.533-8.533H161.133z"/>
			<path d="M280.6,148.333h-8.533c-5.12,0-8.533,3.413-8.533,8.533s3.413,8.533,8.533,8.533h8.533c5.12,0,8.533-3.413,8.533-8.533
				S285.72,148.333,280.6,148.333z"/>
		</g>
	</g>
</g>
<g>
</g>
<g>
</g>
<g>
</g>
<g>
</g>
<g>
</g>
<g>
</g>
<g>
</g>
<g>
</g>
<g>
</g>
<g>
</g>
<g>
</g>
<g>
</g>
<g>
</g>
<g>
</g>
<g>
</g>
</svg>
