<?xml version="1.0" encoding="iso-8859-1"?>
<!-- Generator: Adobe Illustrator 19.0.0, SVG Export Plug-In . SVG Version: 6.00 Build 0)  -->
<svg version="1.1" id="Layer_1" xmlns="http://www.w3.org/2000/svg" xmlns:xlink="http://www.w3.org/1999/xlink" x="0px" y="0px"
	 viewBox="0 0 512 512" style="enable-background:new 0 0 512 512;" xml:space="preserve">
<g transform="translate(1 1)">
	<g>
		<g>
			<path d="M118.467,267.012v9.322c0,5.12,3.413,8.533,8.533,8.533s8.533-3.413,8.533-8.533v-9.102
				c10.127-1.41,17.817-5.479,23.893-12.231c5.12-5.973,7.68-13.653,6.827-22.187s-5.12-16.213-11.947-21.333l-44.373-34.987
				c-2.56-2.56-5.12-5.973-5.12-9.387c-0.853-3.413,0-6.827,2.56-9.387c5.12-5.973,11.947-9.387,19.627-9.387
				c14.507,0,25.6,11.093,25.6,25.6c0,5.12,3.413,8.533,8.533,8.533s8.533-3.413,8.533-8.533c0-20.963-14.452-37.981-34.133-41.841
				v-9.359c0-5.12-3.413-8.533-8.533-8.533s-8.533,3.413-8.533,8.533v9.337c-9.462,1.796-17.955,6.638-23.893,14.556
				c-5.12,5.973-7.68,13.653-6.827,22.187c0.853,8.533,5.12,16.213,11.947,21.333l44.373,34.987c2.56,2.56,5.12,5.973,5.12,9.387
				c0.853,3.413,0,6.827-2.56,9.387c-4.267,4.267-10.24,6.827-19.627,6.827c-14.507,0-25.6-10.24-25.6-23.893
				c0-5.12-3.413-8.533-8.533-8.533c-5.12,0-8.533,3.413-8.533,8.533C84.333,247.054,98.786,263.324,118.467,267.012z"/>
			<path d="M297.667,216.6h119.467v34.133H383c-5.12,0-8.533,3.413-8.533,8.533c0,5.12,3.413,8.533,8.533,8.533h34.133v34.133H357.4
				c-5.12,0-8.533,3.413-8.533,8.533S352.28,319,357.4,319h59.733v8.533c0,5.12,3.413,8.533,8.533,8.533s8.533-3.413,8.533-8.533
				V139.8c0-5.12-3.413-8.533-8.533-8.533s-8.533,3.413-8.533,8.533v8.533H357.4c-5.12,0-8.533,3.413-8.533,8.533
				s3.413,8.533,8.533,8.533h59.733v34.133H297.667c-5.12,0-8.533,3.413-8.533,8.533S292.547,216.6,297.667,216.6z"/>
			<path d="M161.133,336.067H92.867c-5.12,0-8.533,3.413-8.533,8.533s3.413,8.533,8.533,8.533h68.267
				c5.12,0,8.533-3.413,8.533-8.533S166.253,336.067,161.133,336.067z"/>
			<path d="M212.333,310.467c0-5.12-3.413-8.533-8.533-8.533h-25.6c-5.12,0-8.533,3.413-8.533,8.533S173.08,319,178.2,319h25.6
				C208.92,319,212.333,315.587,212.333,310.467z"/>
			<path d="M92.867,319h17.067c5.12,0,8.533-3.413,8.533-8.533s-3.413-8.533-8.533-8.533H92.867c-5.12,0-8.533,3.413-8.533,8.533
				S87.747,319,92.867,319z"/>
			<path d="M502.467,370.2h-25.6V105.667c0-14.507-11.093-25.6-25.6-25.6H58.733c-14.507,0-25.6,11.093-25.6,25.6V370.2h-25.6
				c-5.12,0-8.533,3.413-8.533,8.533v25.6c0,14.507,11.093,25.6,25.6,25.6h460.8c14.507,0,25.6-11.093,25.6-25.6v-25.6
				C511,373.613,507.587,370.2,502.467,370.2z M50.2,105.667c0-5.12,3.413-8.533,8.533-8.533h392.533
				c5.12,0,8.533,3.413,8.533,8.533V370.2H323.267c-5.12,0-8.533,3.413-8.533,8.533v8.533H195.267v-8.533
				c0-5.12-3.413-8.533-8.533-8.533H50.2V105.667z M493.933,404.333c0,5.12-3.413,8.533-8.533,8.533H24.6
				c-5.12,0-8.533-3.413-8.533-8.533v-17.067h25.6H178.2v8.533c0,5.12,3.413,8.533,8.533,8.533h136.533
				c5.12,0,8.533-3.413,8.533-8.533v-8.533h136.533h25.6V404.333z"/>
		</g>
	</g>
</g>
<g>
</g>
<g>
</g>
<g>
</g>
<g>
</g>
<g>
</g>
<g>
</g>
<g>
</g>
<g>
</g>
<g>
</g>
<g>
</g>
<g>
</g>
<g>
</g>
<g>
</g>
<g>
</g>
<g>
</g>
</svg>
