<?xml version="1.0" encoding="iso-8859-1"?>
<!-- Generator: Adobe Illustrator 19.0.0, SVG Export Plug-In . SVG Version: 6.00 Build 0)  -->
<svg version="1.1" id="Layer_1" xmlns="http://www.w3.org/2000/svg" xmlns:xlink="http://www.w3.org/1999/xlink" x="0px" y="0px"
	 viewBox="0 0 512 512" style="enable-background:new 0 0 512 512;" xml:space="preserve">
<g transform="translate(1 1)">
	<g>
		<g>
			<path d="M50.2,75.8h93.867c5.12,0,8.533-3.413,8.533-8.533s-3.413-8.533-8.533-8.533H50.2c-5.12,0-8.533,3.413-8.533,8.533
				S45.08,75.8,50.2,75.8z"/>
			<path d="M178.2,75.8H255c5.12,0,8.533-3.413,8.533-8.533s-3.413-8.533-8.533-8.533h-76.8c-5.12,0-8.533,3.413-8.533,8.533
				S173.08,75.8,178.2,75.8z"/>
			<path d="M109.933,101.4c0-5.12-3.413-8.533-8.533-8.533H50.2c-5.12,0-8.533,3.413-8.533,8.533c0,5.12,3.413,8.533,8.533,8.533
				h51.2C106.52,109.933,109.933,106.52,109.933,101.4z"/>
			<path d="M135.533,92.867c-5.12,0-8.533,3.413-8.533,8.533c0,5.12,3.413,8.533,8.533,8.533h76.8c5.12,0,8.533-3.413,8.533-8.533
				c0-5.12-3.413-8.533-8.533-8.533H135.533z"/>
			<path d="M255,92.867h-8.533c-5.12,0-8.533,3.413-8.533,8.533c0,5.12,3.413,8.533,8.533,8.533H255c5.12,0,8.533-3.413,8.533-8.533
				C263.533,96.28,260.12,92.867,255,92.867z"/>
			<path d="M472.6,16.067H37.4c-21.333,0-38.4,17.067-38.4,38.4v260.267v38.4c0,21.333,17.067,38.4,38.4,38.4h163.84l-12.8,51.2
				h-1.707c-23.893,0-42.667,18.773-42.667,42.667c0,5.12,3.413,8.533,8.533,8.533h204.8c5.12,0,8.533-3.413,8.533-8.533
				c0-23.893-18.773-42.667-42.667-42.667h-1.707l-12.8-51.2H472.6c21.333,0,38.4-17.067,38.4-38.4v-38.4V54.467
				C511,33.133,493.933,16.067,472.6,16.067z M16.067,54.467c0-11.947,9.387-21.333,21.333-21.333h435.2
				c11.947,0,21.333,9.387,21.333,21.333V306.2H16.067V54.467z M348.013,476.867H162.84c3.413-10.24,12.8-17.067,23.893-17.067
				h8.533h119.467h9.387C335.213,459.8,344.6,466.627,348.013,476.867z M303.64,442.733h-97.28l12.8-51.2h71.68L303.64,442.733z
				 M493.933,353.133c0,11.947-9.387,21.333-21.333,21.333H297.667h-85.333H37.4c-11.947,0-21.333-9.387-21.333-21.333v-29.867
				h477.867V353.133z"/>
			<path d="M425.667,195.267c-4.07,0-7.979,0.724-11.607,2.047l-41.64-41.64c1.322-3.628,2.047-7.536,2.047-11.607
				c0-18.773-15.36-34.133-34.133-34.133c-18.773,0-34.133,15.36-34.133,34.133c0,4.07,0.724,7.979,2.047,11.607l-61.459,61.46
				c-5.101-3.043-11.048-4.8-17.387-4.8c-4.07,0-7.979,0.724-11.607,2.047l-16.04-16.04c1.322-3.628,2.047-7.536,2.047-11.607
				c0-18.773-15.36-34.133-34.133-34.133c-18.773,0-34.133,15.36-34.133,34.133c0,4.07,0.724,7.979,2.047,11.607l-16.04,16.04
				c-3.628-1.322-7.536-2.047-11.607-2.047c-18.773,0-34.133,15.36-34.133,34.133c0,18.773,15.36,34.133,34.133,34.133
				s34.133-15.36,34.133-34.133c0-8.523-3.173-16.336-8.386-22.333l11.653-11.653c5.998,5.214,13.811,8.386,22.333,8.386
				s16.336-3.173,22.333-8.386l11.653,11.653c-5.214,5.998-8.386,13.811-8.386,22.333c0,18.773,15.36,34.133,34.133,34.133
				c18.773,0,34.133-15.36,34.133-34.133c0-6.339-1.757-12.286-4.8-17.387L318,169.814c5.998,5.214,13.811,8.386,22.333,8.386
				s16.336-3.173,22.333-8.386l37.253,37.253c-5.214,5.998-8.387,13.811-8.387,22.334c0,18.773,15.36,34.133,34.133,34.133
				S459.8,248.173,459.8,229.4C459.8,210.627,444.44,195.267,425.667,195.267z M109.933,263.533c-9.387,0-17.067-7.68-17.067-17.067
				s7.68-17.067,17.067-17.067S127,237.08,127,246.467S119.32,263.533,109.933,263.533z M169.667,203.8
				c-5.204,0-9.876-2.366-13.013-6.069c-0.347-1.504-1.124-2.948-2.347-4.171c-0.139-0.139-0.286-0.264-0.431-0.392
				c-0.817-1.989-1.276-4.16-1.276-6.435c0-9.387,7.68-17.067,17.067-17.067s17.067,7.68,17.067,17.067
				c0,2.275-0.459,4.445-1.276,6.435c-0.145,0.128-0.291,0.253-0.431,0.392c-1.223,1.223-2,2.667-2.347,4.171
				C179.543,201.434,174.87,203.8,169.667,203.8z M229.4,263.533c-9.387,0-17.067-7.68-17.067-17.067s7.68-17.067,17.067-17.067
				c4.249,0,8.139,1.585,11.135,4.178c0.247,0.324,0.512,0.642,0.812,0.942c0.342,0.342,0.685,0.64,1.034,0.913
				c2.541,2.982,4.086,6.833,4.086,11.034C246.467,255.853,238.787,263.533,229.4,263.533z M340.333,161.133
				c-9.387,0-17.067-7.68-17.067-17.067S330.947,127,340.333,127s17.067,7.68,17.067,17.067c0,2.275-0.459,4.445-1.276,6.435
				c-0.145,0.128-0.291,0.253-0.431,0.392c-1.223,1.223-2,2.667-2.347,4.171C350.21,158.767,345.537,161.133,340.333,161.133z
				 M425.667,246.467c-9.387,0-17.067-7.68-17.067-17.067c0-9.387,7.68-17.067,17.067-17.067s17.067,7.68,17.067,17.067
				C442.733,238.787,435.053,246.467,425.667,246.467z"/>
		</g>
	</g>
</g>
<g>
</g>
<g>
</g>
<g>
</g>
<g>
</g>
<g>
</g>
<g>
</g>
<g>
</g>
<g>
</g>
<g>
</g>
<g>
</g>
<g>
</g>
<g>
</g>
<g>
</g>
<g>
</g>
<g>
</g>
</svg>
