<?xml version="1.0" encoding="iso-8859-1"?>
<!-- Generator: Adobe Illustrator 19.0.0, SVG Export Plug-In . SVG Version: 6.00 Build 0)  -->
<svg version="1.1" id="Layer_1" xmlns="http://www.w3.org/2000/svg" xmlns:xlink="http://www.w3.org/1999/xlink" x="0px" y="0px"
	 viewBox="0 0 512 512" style="enable-background:new 0 0 512 512;" xml:space="preserve">
<g transform="translate(1 1)">
	<g>
		<g>
			<path d="M472.6,16.067H37.4c-21.333,0-38.4,17.067-38.4,38.4v260.267v38.4c0,21.333,17.067,38.4,38.4,38.4h163.84l-12.8,51.2
				h-1.707c-23.893,0-42.667,18.773-42.667,42.667c0,5.12,3.413,8.533,8.533,8.533h204.8c5.12,0,8.533-3.413,8.533-8.533
				c0-23.893-18.773-42.667-42.667-42.667h-1.707l-12.8-51.2H472.6c21.333,0,38.4-17.067,38.4-38.4v-38.4V54.467
				C511,33.133,493.933,16.067,472.6,16.067z M16.067,54.467c0-11.947,9.387-21.333,21.333-21.333h435.2
				c11.947,0,21.333,9.387,21.333,21.333V306.2H16.067V54.467z M348.013,476.867H162.84c3.413-10.24,12.8-17.067,23.893-17.067
				h8.533h119.467h9.387C335.213,459.8,344.6,466.627,348.013,476.867z M303.64,442.733h-97.28l12.8-51.2h71.68L303.64,442.733z
				 M493.933,353.133c0,11.947-9.387,21.333-21.333,21.333H297.667h-85.333H37.4c-11.947,0-21.333-9.387-21.333-21.333v-29.867
				h477.867V353.133z"/>
			<path d="M442.733,272.067h-25.6V84.333h-51.2V50.2h-68.267v59.733h-51.2v51.2h-34.133v-76.8h-68.267v51.2h-51.2v136.533h-25.6
				c-5.12,0-8.533,3.413-8.533,8.533s3.413,8.533,8.533,8.533h25.6h51.2h17.067h34.133h17.067h34.133h17.067h34.133h17.067h34.133
				h17.067h51.2h25.6c5.12,0,8.533-3.413,8.533-8.533S447.853,272.067,442.733,272.067z M109.933,272.067V152.6h34.133v119.467
				H109.933z M161.133,272.067V135.533V101.4h34.133v59.733v110.933H161.133z M212.333,272.067V178.2h34.133v93.867H212.333z
				 M263.533,272.067V161.133V127h34.133v145.067H263.533z M323.267,272.067c0-5.12-3.413-8.533-8.533-8.533v-17.067
				c5.12,0,8.533-3.413,8.533-8.533s-3.413-8.533-8.533-8.533v-17.067c5.12,0,8.533-3.413,8.533-8.533s-3.413-8.533-8.533-8.533
				V178.2c5.12,0,8.533-3.413,8.533-8.533c0-5.12-3.413-8.533-8.533-8.533v-17.067c5.12,0,8.533-3.413,8.533-8.533
				S319.853,127,314.733,127v-17.067c5.12,0,8.533-3.413,8.533-8.533c0-5.12-3.413-8.533-8.533-8.533V75.8
				c5.12,0,8.533-3.413,8.533-8.533h17.067c0,5.12,3.413,8.533,8.533,8.533v8.533v8.533c-5.12,0-8.533,3.413-8.533,8.533
				c0,5.12,3.413,8.533,8.533,8.533V127c-5.12,0-8.533,3.413-8.533,8.533s3.413,8.533,8.533,8.533v17.067
				c-5.12,0-8.533,3.413-8.533,8.533c0,5.12,3.413,8.533,8.533,8.533v17.067c-5.12,0-8.533,3.413-8.533,8.533
				s3.413,8.533,8.533,8.533V229.4c-5.12,0-8.533,3.413-8.533,8.533s3.413,8.533,8.533,8.533v17.067
				c-5.12,0-8.533,3.413-8.533,8.533H323.267z M365.933,272.067V101.4h34.133v170.667H365.933z"/>
			<path d="M331.8,92.867c5.12,0,8.533-3.413,8.533-8.533S336.92,75.8,331.8,75.8c-5.12,0-8.533,3.413-8.533,8.533
				S326.68,92.867,331.8,92.867z"/>
			<path d="M331.8,127c5.12,0,8.533-3.413,8.533-8.533s-3.413-8.533-8.533-8.533c-5.12,0-8.533,3.413-8.533,8.533
				S326.68,127,331.8,127z"/>
			<path d="M331.8,161.133c5.12,0,8.533-3.413,8.533-8.533s-3.413-8.533-8.533-8.533c-5.12,0-8.533,3.413-8.533,8.533
				S326.68,161.133,331.8,161.133z"/>
			<path d="M331.8,195.267c5.12,0,8.533-3.413,8.533-8.533s-3.413-8.533-8.533-8.533c-5.12,0-8.533,3.413-8.533,8.533
				S326.68,195.267,331.8,195.267z"/>
			<path d="M331.8,229.4c5.12,0,8.533-3.413,8.533-8.533c0-5.12-3.413-8.533-8.533-8.533c-5.12,0-8.533,3.413-8.533,8.533
				C323.267,225.987,326.68,229.4,331.8,229.4z"/>
			<path d="M331.8,246.467c-5.12,0-8.533,3.413-8.533,8.533c0,5.12,3.413,8.533,8.533,8.533c5.12,0,8.533-3.413,8.533-8.533
				C340.333,249.88,336.92,246.467,331.8,246.467z"/>
		</g>
	</g>
</g>
<g>
</g>
<g>
</g>
<g>
</g>
<g>
</g>
<g>
</g>
<g>
</g>
<g>
</g>
<g>
</g>
<g>
</g>
<g>
</g>
<g>
</g>
<g>
</g>
<g>
</g>
<g>
</g>
<g>
</g>
</svg>
