<?xml version="1.0" encoding="iso-8859-1"?>
<!-- Generator: Adobe Illustrator 19.0.0, SVG Export Plug-In . SVG Version: 6.00 Build 0)  -->
<svg version="1.1" id="Layer_1" xmlns="http://www.w3.org/2000/svg" xmlns:xlink="http://www.w3.org/1999/xlink" x="0px" y="0px"
	 viewBox="0 0 512 512" style="enable-background:new 0 0 512 512;" xml:space="preserve">
<g transform="translate(1 1)">
	<g>
		<g>
			<path d="M212.333,310.467V293.4v-76.8h-68.267v76.8v17.067v42.667h68.267V310.467z M161.133,233.667h34.133V293.4h-34.133
				V233.667z M195.267,336.067h-34.133v-25.6h34.133V336.067z"/>
			<path d="M289.133,310.467V293.4v-128h-68.267v128v17.067v42.667h68.267V310.467z M237.933,182.467h34.133V293.4h-34.133V182.467z
				 M272.067,336.067h-34.133v-25.6h34.133V336.067z"/>
			<path d="M365.933,310.467V293.4v-68.267h-68.267V293.4v17.067v42.667h68.267V310.467z M314.733,242.2h34.133v51.2h-34.133V242.2z
				 M348.867,336.067h-34.133v-25.6h34.133V336.067z"/>
			<path d="M442.733,310.467V293.4V114.2h-68.267v179.2v17.067v42.667h68.267V310.467z M391.533,131.267h34.133V293.4h-34.133
				V131.267z M425.667,336.067h-34.133v-25.6h34.133V336.067z"/>
			<path d="M67.267,293.4v17.067v42.667h68.267v-42.667V293.4v-42.667H67.267V293.4z M118.467,336.067H84.333v-25.6h34.133V336.067z
				 M84.333,267.8h34.133v25.6H84.333V267.8z"/>
			<path d="M144.067,131.267c0-5.12-3.413-8.533-8.533-8.533H92.867c-5.12,0-8.533,3.413-8.533,8.533
				c0,5.12,3.413,8.533,8.533,8.533h22.187l-45.227,45.227c-3.413,3.413-3.413,8.533,0,11.947c1.707,1.707,3.413,2.56,5.973,2.56
				s4.267-0.853,5.973-2.56L127,151.747v22.187c0,5.12,3.413,8.533,8.533,8.533s8.533-3.413,8.533-8.533V131.267z"/>
			<path d="M502.467,370.2h-25.6V105.667c0-14.507-11.093-25.6-25.6-25.6H58.733c-14.507,0-25.6,11.093-25.6,25.6V370.2h-25.6
				c-5.12,0-8.533,3.413-8.533,8.533v25.6c0,14.507,11.093,25.6,25.6,25.6h460.8c14.507,0,25.6-11.093,25.6-25.6v-25.6
				C511,373.613,507.587,370.2,502.467,370.2z M50.2,105.667c0-5.12,3.413-8.533,8.533-8.533h392.533
				c5.12,0,8.533,3.413,8.533,8.533V370.2H323.267c-5.12,0-8.533,3.413-8.533,8.533v8.533H195.267v-8.533
				c0-5.12-3.413-8.533-8.533-8.533H50.2V105.667z M493.933,404.333c0,5.12-3.413,8.533-8.533,8.533H24.6
				c-5.12,0-8.533-3.413-8.533-8.533v-17.067h25.6H178.2v8.533c0,5.12,3.413,8.533,8.533,8.533h136.533
				c5.12,0,8.533-3.413,8.533-8.533v-8.533h136.533h25.6V404.333z"/>
		</g>
	</g>
</g>
<g>
</g>
<g>
</g>
<g>
</g>
<g>
</g>
<g>
</g>
<g>
</g>
<g>
</g>
<g>
</g>
<g>
</g>
<g>
</g>
<g>
</g>
<g>
</g>
<g>
</g>
<g>
</g>
<g>
</g>
</svg>
