<?xml version="1.0" encoding="iso-8859-1"?>
<!-- Generator: Adobe Illustrator 19.0.0, SVG Export Plug-In . SVG Version: 6.00 Build 0)  -->
<svg version="1.1" id="Layer_1" xmlns="http://www.w3.org/2000/svg" xmlns:xlink="http://www.w3.org/1999/xlink" x="0px" y="0px"
	 viewBox="0 0 512 512" style="enable-background:new 0 0 512 512;" xml:space="preserve">
<g transform="translate(1 1)">
	<g>
		<g>
			<path d="M109.933,284.867c5.12,0,8.533-3.413,8.533-8.533V139.8c0-5.12-3.413-8.533-8.533-8.533s-8.533,3.413-8.533,8.533
				v136.533C101.4,281.453,104.813,284.867,109.933,284.867z"/>
			<path d="M144.067,165.4H178.2c5.12,0,8.533-3.413,8.533-8.533c0-5.12-3.413-8.533-8.533-8.533h-34.133
				c-5.12,0-8.533,3.413-8.533,8.533C135.533,161.987,138.947,165.4,144.067,165.4z"/>
			<path d="M144.067,199.533h17.067c5.12,0,8.533-3.413,8.533-8.533s-3.413-8.533-8.533-8.533h-17.067
				c-5.12,0-8.533,3.413-8.533,8.533S138.947,199.533,144.067,199.533z"/>
			<path d="M144.067,233.667H178.2c5.12,0,8.533-3.413,8.533-8.533c0-5.12-3.413-8.533-8.533-8.533h-34.133
				c-5.12,0-8.533,3.413-8.533,8.533C135.533,230.253,138.947,233.667,144.067,233.667z"/>
			<path d="M144.067,267.8h17.067c5.12,0,8.533-3.413,8.533-8.533c0-5.12-3.413-8.533-8.533-8.533h-17.067
				c-5.12,0-8.533,3.413-8.533,8.533C135.533,264.387,138.947,267.8,144.067,267.8z"/>
			<path d="M203.8,267.8c2.56,0,4.267-0.853,5.973-2.56l62.293-62.293l36.693,36.693c3.413,3.413,8.533,3.413,11.947,0
				l70.827-70.827v39.253c0,5.12,3.413,8.533,8.533,8.533c5.12,0,8.533-3.413,8.533-8.533V139.8h-68.267
				c-5.12,0-8.533,3.413-8.533,8.533s3.413,8.533,8.533,8.533h39.253l-64.853,64.853l-36.693-36.693
				c-3.413-3.413-8.533-3.413-11.947,0l-68.267,68.267c-3.413,3.413-3.413,8.533,0,11.947C199.533,266.947,201.24,267.8,203.8,267.8
				z"/>
			<path d="M314.733,378.733c-9.387,0-17.067-7.68-17.067-17.067c0-5.12-3.413-8.533-8.533-8.533s-8.533,3.413-8.533,8.533
				c0,18.773,15.36,34.133,34.133,34.133c5.12,0,8.533-3.413,8.533-8.533S319.853,378.733,314.733,378.733z"/>
			<path d="M502.467,344.6h-25.6V80.067c0-14.507-11.093-25.6-25.6-25.6H58.733c-14.507,0-25.6,11.093-25.6,25.6V344.6h-25.6
				c-5.12,0-8.533,3.413-8.533,8.533v25.6c0,14.507,11.093,25.6,25.6,25.6h236.961c2.746,3.412,5.811,6.555,9.151,9.387h-40.458
				c-3.413,0-5.973,1.707-7.68,4.267c-1.707,2.56-1.707,5.973,0,8.533c11.947,17.92,32.427,29.013,54.613,29.013h109.227
				c22.187,0,42.667-11.093,56.32-29.013c1.707-2.56,1.707-5.973,0-8.533c-1.707-2.56-4.267-4.267-7.68-4.267h-42.165
				c3.34-2.831,6.404-5.975,9.151-9.387H485.4c14.507,0,25.6-11.093,25.6-25.6v-25.6C511,348.013,507.587,344.6,502.467,344.6z
				 M413.72,429.933c-7.68,5.12-17.067,8.533-27.307,8.533H277.187c-9.387,0-19.627-3.413-27.307-8.533h64.853h34.133H413.72z
				 M50.2,80.067c0-5.12,3.413-8.533,8.533-8.533h392.533c5.12,0,8.533,3.413,8.533,8.533V344.6h-9.359
				c0.017-0.085,0.029-0.172,0.045-0.257c0.773-2.529,0.781-5.799,0.781-8.276v-25.6c0-5.12-3.413-8.533-8.533-8.533v-204.8
				c0-5.12-3.413-8.533-8.533-8.533H75.8c-5.12,0-8.533,3.413-8.533,8.533V319c0,5.12,3.413,8.533,8.533,8.533h170.667v34.133h-51.2
				v-8.533c0-5.12-3.413-8.533-8.533-8.533H50.2V80.067z M397.096,378.787c-0.073,0.208-0.146,0.416-0.222,0.623
				c-0.267,0.716-0.545,1.426-0.842,2.126c-0.003,0.008-0.007,0.016-0.01,0.024c-7.803,18.352-26.039,31.306-47.154,31.306h-34.133
				c-19.001,0-35.659-10.498-44.493-25.972c-2.966-5.581-5.189-11.563-5.854-17.548c-0.331-1.324-0.531-2.388-0.655-3.348
				c-0.121-1.43-0.198-2.872-0.198-4.332V319v-25.6h135.68v17.067c0,1.51,0.304,2.865,0.853,4.035v47.165
				c0,2.56-0.853,5.12-0.853,7.68c0,0,0,0,0,0c-0.306,3.061-0.946,5.901-1.833,8.602
				C397.286,378.228,397.195,378.509,397.096,378.787z M417.133,319h16.213v17.067c0,4.267-0.853,8.533-3.413,12.8
				c-0.527,0.79-0.871,1.666-1.073,2.569c-3.147,3.773-7.187,6.72-11.727,8.463V319z M425.667,301.933h-8.533V293.4
				c0-9.387-7.68-17.067-17.067-17.067H263.533c-9.387,0-17.067,7.68-17.067,17.067v17.067H84.333v-204.8h341.333V301.933z
				 M24.6,387.267c-5.12,0-8.533-3.413-8.533-8.533v-17.067h25.6H178.2v8.533c0,5.12,3.413,8.533,8.533,8.533h61.909
				c0.76,2.926,1.725,5.771,2.852,8.533H24.6z M493.933,378.733c0,5.12-3.413,8.533-8.533,8.533h-73.294
				c0.577-1.415,1.107-2.853,1.589-4.312c0.605-1.511,1.206-3.118,1.636-4.732c11.369-1.737,21.135-7.819,27.605-16.555h25.397h25.6
				V378.733z"/>
		</g>
	</g>
</g>
<g>
</g>
<g>
</g>
<g>
</g>
<g>
</g>
<g>
</g>
<g>
</g>
<g>
</g>
<g>
</g>
<g>
</g>
<g>
</g>
<g>
</g>
<g>
</g>
<g>
</g>
<g>
</g>
<g>
</g>
</svg>
