<?xml version="1.0" encoding="iso-8859-1"?>
<!-- Generator: Adobe Illustrator 19.0.0, SVG Export Plug-In . SVG Version: 6.00 Build 0)  -->
<svg version="1.1" id="Layer_1" xmlns="http://www.w3.org/2000/svg" xmlns:xlink="http://www.w3.org/1999/xlink" x="0px" y="0px"
	 viewBox="0 0 512 512" style="enable-background:new 0 0 512 512;" xml:space="preserve">
<g transform="translate(1 1)">
	<g>
		<g>
			<path d="M84.333,156.867c-5.12,0-8.533,3.413-8.533,8.533v136.533c0,5.12,3.413,8.533,8.533,8.533
				c5.12,0,8.533-3.413,8.533-8.533V165.4C92.867,160.28,89.453,156.867,84.333,156.867z"/>
			<path d="M152.6,173.933h-34.133c-5.12,0-8.533,3.413-8.533,8.533s3.413,8.533,8.533,8.533H152.6c5.12,0,8.533-3.413,8.533-8.533
				S157.72,173.933,152.6,173.933z"/>
			<path d="M118.467,225.133h17.067c5.12,0,8.533-3.413,8.533-8.533s-3.413-8.533-8.533-8.533h-17.067
				c-5.12,0-8.533,3.413-8.533,8.533S113.347,225.133,118.467,225.133z"/>
			<path d="M152.6,242.2h-34.133c-5.12,0-8.533,3.413-8.533,8.533s3.413,8.533,8.533,8.533H152.6c5.12,0,8.533-3.413,8.533-8.533
				S157.72,242.2,152.6,242.2z"/>
			<path d="M135.533,276.333h-17.067c-5.12,0-8.533,3.413-8.533,8.533c0,5.12,3.413,8.533,8.533,8.533h17.067
				c5.12,0,8.533-3.413,8.533-8.533C144.067,279.747,140.653,276.333,135.533,276.333z"/>
			<path d="M502.467,370.2h-25.6V105.667c0-14.507-11.093-25.6-25.6-25.6H58.733c-14.507,0-25.6,11.093-25.6,25.6V370.2h-25.6
				c-5.12,0-8.533,3.413-8.533,8.533v25.6c0,14.507,11.093,25.6,25.6,25.6h460.8c14.507,0,25.6-11.093,25.6-25.6v-25.6
				C511,373.613,507.587,370.2,502.467,370.2z M50.2,105.667c0-5.12,3.413-8.533,8.533-8.533h392.533
				c5.12,0,8.533,3.413,8.533,8.533V370.2H323.267c-5.12,0-8.533,3.413-8.533,8.533v8.533H195.267v-8.533
				c0-5.12-3.413-8.533-8.533-8.533H50.2V105.667z M493.933,404.333c0,5.12-3.413,8.533-8.533,8.533H24.6
				c-5.12,0-8.533-3.413-8.533-8.533v-17.067h25.6H178.2v8.533c0,5.12,3.413,8.533,8.533,8.533h136.533
				c5.12,0,8.533-3.413,8.533-8.533v-8.533h136.533h25.6V404.333z"/>
			<path d="M220.867,293.4c2.56,0,4.267-0.853,5.973-2.56l62.293-62.293l36.693,36.693c1.707,1.707,3.413,2.56,5.973,2.56
				c2.56,0,4.267-0.853,5.973-2.56l70.827-70.827v39.253c0,5.12,3.413,8.533,8.533,8.533s8.533-3.413,8.533-8.533v-59.733
				c0-5.12-3.413-8.533-8.533-8.533H357.4c-5.12,0-8.533,3.413-8.533,8.533c0,5.12,3.413,8.533,8.533,8.533h39.253L331.8,247.32
				l-36.693-36.693c-1.28-1.28-2.8-2.08-4.38-2.4c-0.527-0.107-1.06-0.16-1.593-0.16c-0.267,0-0.533,0.013-0.799,0.04
				c-0.532,0.053-1.06,0.16-1.578,0.32c-0.259,0.08-0.516,0.173-0.769,0.28c-0.507,0.213-1,0.48-1.473,0.8s-0.927,0.693-1.353,1.12
				l-68.267,68.267c-3.413,3.413-3.413,8.533,0,11.947C216.6,292.547,218.307,293.4,220.867,293.4z"/>
		</g>
	</g>
</g>
<g>
</g>
<g>
</g>
<g>
</g>
<g>
</g>
<g>
</g>
<g>
</g>
<g>
</g>
<g>
</g>
<g>
</g>
<g>
</g>
<g>
</g>
<g>
</g>
<g>
</g>
<g>
</g>
<g>
</g>
</svg>
