<?xml version="1.0" encoding="iso-8859-1"?>
<!-- Generator: Adobe Illustrator 19.0.0, SVG Export Plug-In . SVG Version: 6.00 Build 0)  -->
<svg version="1.1" id="Layer_1" xmlns="http://www.w3.org/2000/svg" xmlns:xlink="http://www.w3.org/1999/xlink" x="0px" y="0px"
	 viewBox="0 0 512 512" style="enable-background:new 0 0 512 512;" xml:space="preserve">
<g transform="translate(1 1)">
	<g>
		<g>
			<path d="M472.6,16.067H37.4c-21.333,0-38.4,17.067-38.4,38.4v260.267v38.4c0,21.333,17.067,38.4,38.4,38.4h163.84l-12.8,51.2
				h-1.707c-23.893,0-42.667,18.773-42.667,42.667c0,5.12,3.413,8.533,8.533,8.533h204.8c5.12,0,8.533-3.413,8.533-8.533
				c0-23.893-18.773-42.667-42.667-42.667h-1.707l-12.8-51.2H472.6c21.333,0,38.4-17.067,38.4-38.4v-38.4V54.467
				C511,33.133,493.933,16.067,472.6,16.067z M16.067,54.467c0-11.947,9.387-21.333,21.333-21.333h435.2
				c11.947,0,21.333,9.387,21.333,21.333V306.2H16.067V54.467z M348.013,476.867H162.84c3.413-10.24,12.8-17.067,23.893-17.067
				h8.533h119.467h9.387C335.213,459.8,344.6,466.627,348.013,476.867z M303.64,442.733h-97.28l12.8-51.2h71.68L303.64,442.733z
				 M493.933,353.133c0,11.947-9.387,21.333-21.333,21.333H297.667h-85.333H37.4c-11.947,0-21.333-9.387-21.333-21.333v-29.867
				h477.867V353.133z"/>
			<path d="M135.533,203.012v9.322c0,5.12,3.413,8.533,8.533,8.533c5.12,0,8.533-3.413,8.533-8.533v-9.102
				c10.127-1.41,17.817-5.479,23.893-12.231c5.12-5.973,7.68-13.653,6.827-22.187s-5.12-16.213-11.947-21.333L127,112.493
				c-2.56-2.56-5.12-5.973-5.12-9.387c-0.853-3.413,0-6.827,2.56-9.387c5.12-5.973,11.947-9.387,19.627-9.387
				c14.507,0,25.6,11.093,25.6,25.6c0,5.12,3.413,8.533,8.533,8.533s8.533-3.413,8.533-8.533c0-20.963-14.452-37.981-34.133-41.841
				v-9.359c0-5.12-3.413-8.533-8.533-8.533c-5.12,0-8.533,3.413-8.533,8.533v9.337c-9.462,1.796-17.955,6.638-23.893,14.556
				c-5.12,5.973-7.68,13.653-6.827,22.187c0.853,8.533,5.12,16.213,11.947,21.333l44.373,34.987c2.56,2.56,5.12,5.973,5.12,9.387
				c0.853,3.413,0,6.827-2.56,9.387c-4.267,4.267-10.24,6.827-19.627,6.827c-14.507,0-25.6-10.24-25.6-23.893
				c0-5.12-3.413-8.533-8.533-8.533s-8.533,3.413-8.533,8.533C101.4,183.054,115.852,199.324,135.533,203.012z"/>
			<path d="M178.2,272.067h-68.267c-5.12,0-8.533,3.413-8.533,8.533s3.413,8.533,8.533,8.533H178.2c5.12,0,8.533-3.413,8.533-8.533
				S183.32,272.067,178.2,272.067z"/>
			<path d="M220.867,237.933h-25.6c-5.12,0-8.533,3.413-8.533,8.533s3.413,8.533,8.533,8.533h25.6c5.12,0,8.533-3.413,8.533-8.533
				S225.987,237.933,220.867,237.933z"/>
			<path d="M109.933,255H127c5.12,0,8.533-3.413,8.533-8.533s-3.413-8.533-8.533-8.533h-17.067c-5.12,0-8.533,3.413-8.533,8.533
				S104.813,255,109.933,255z"/>
			<path d="M442.733,67.267c-5.12,0-8.533,3.413-8.533,8.533v8.533h-59.733c-5.12,0-8.533,3.413-8.533,8.533
				s3.413,8.533,8.533,8.533H434.2v34.133H314.733c-5.12,0-8.533,3.413-8.533,8.533s3.413,8.533,8.533,8.533H434.2v34.133h-34.133
				c-5.12,0-8.533,3.413-8.533,8.533s3.413,8.533,8.533,8.533H434.2v34.133h-59.733c-5.12,0-8.533,3.413-8.533,8.533
				s3.413,8.533,8.533,8.533H434.2v8.533c0,5.12,3.413,8.533,8.533,8.533s8.533-3.413,8.533-8.533V75.8
				C451.267,70.68,447.853,67.267,442.733,67.267z"/>
		</g>
	</g>
</g>
<g>
</g>
<g>
</g>
<g>
</g>
<g>
</g>
<g>
</g>
<g>
</g>
<g>
</g>
<g>
</g>
<g>
</g>
<g>
</g>
<g>
</g>
<g>
</g>
<g>
</g>
<g>
</g>
<g>
</g>
</svg>
