<?xml version="1.0" encoding="iso-8859-1"?>
<!-- Generator: Adobe Illustrator 19.0.0, SVG Export Plug-In . SVG Version: 6.00 Build 0)  -->
<svg version="1.1" id="Layer_1" xmlns="http://www.w3.org/2000/svg" xmlns:xlink="http://www.w3.org/1999/xlink" x="0px" y="0px"
	 viewBox="0 0 512 512" style="enable-background:new 0 0 512 512;" xml:space="preserve">
<g transform="translate(1 1)">
	<g>
		<g>
			<path d="M263.533,336.067c18.773,0,34.133-15.36,34.133-34.133c0-15.546-10.537-28.742-24.818-32.822
				c3.338-15.334,17.055-26.911,33.352-26.911h59.733c28.16,0,51.2-23.04,51.2-51.2v-22.187l11.093,11.093
				c1.707,1.707,3.413,2.56,5.973,2.56s4.267-0.853,5.973-2.56c3.413-3.413,3.413-8.533,0-11.947l-24.14-24.14
				c-1.395-2.509-4.034-4.02-7.434-4.02s-6.038,1.511-7.434,4.02l-24.14,24.14c-3.413,3.413-3.413,8.533,0,11.947
				c1.707,1.707,3.413,2.56,5.973,2.56s4.267-0.853,5.973-2.56l11.093-11.093V191c0,18.773-15.36,34.133-34.133,34.133H306.2
				c-25.586,0-46.941,19.022-50.632,43.621c-14.963,3.613-26.168,17.147-26.168,33.179
				C229.4,320.707,244.76,336.067,263.533,336.067z M263.533,284.867c9.387,0,17.067,7.68,17.067,17.067
				c0,9.387-7.68,17.067-17.067,17.067c-9.387,0-17.067-7.68-17.067-17.067C246.467,292.547,254.147,284.867,263.533,284.867z"/>
			<path d="M240.493,196.973c1.707,1.707,3.413,2.56,5.973,2.56s4.267-0.853,5.973-2.56l11.093-11.093l11.093,11.093
				c1.707,1.707,3.413,2.56,5.973,2.56s4.267-0.853,5.973-2.56c3.413-3.413,3.413-8.533,0-11.947l-11.093-11.093l11.093-11.093
				c3.413-3.413,3.413-8.533,0-11.947s-8.533-3.413-11.947,0l-11.093,11.093l-11.093-11.093c-3.413-3.413-8.533-3.413-11.947,0
				s-3.413,8.533,0,11.947l11.093,11.093l-11.093,11.093C237.08,188.44,237.08,193.56,240.493,196.973z"/>
			<path d="M431.64,278.893c-3.413-3.413-8.533-3.413-11.947,0L408.6,289.987l-11.093-11.093c-3.413-3.413-8.533-3.413-11.947,0
				c-3.413,3.413-3.413,8.533,0,11.947l11.093,11.093l-11.093,11.093c-3.413,3.413-3.413,8.533,0,11.947
				c1.707,1.707,3.413,2.56,5.973,2.56c2.56,0,4.267-0.853,5.973-2.56L408.6,313.88l11.093,11.093
				c1.707,1.707,3.413,2.56,5.973,2.56s4.267-0.853,5.973-2.56c3.413-3.413,3.413-8.533,0-11.947l-11.093-11.093l11.093-11.093
				C435.053,287.427,435.053,282.307,431.64,278.893z"/>
			<path d="M75.8,156.867h25.6c5.12,0,8.533-3.413,8.533-8.533s-3.413-8.533-8.533-8.533H75.8c-5.12,0-8.533,3.413-8.533,8.533
				S70.68,156.867,75.8,156.867z"/>
			<path d="M135.533,156.867h59.733c5.12,0,8.533-3.413,8.533-8.533s-3.413-8.533-8.533-8.533h-59.733
				c-5.12,0-8.533,3.413-8.533,8.533S130.413,156.867,135.533,156.867z"/>
			<path d="M75.8,191h42.667c5.12,0,8.533-3.413,8.533-8.533s-3.413-8.533-8.533-8.533H75.8c-5.12,0-8.533,3.413-8.533,8.533
				S70.68,191,75.8,191z"/>
			<path d="M161.133,191c5.12,0,8.533-3.413,8.533-8.533s-3.413-8.533-8.533-8.533H152.6c-5.12,0-8.533,3.413-8.533,8.533
				S147.48,191,152.6,191H161.133z"/>
			<path d="M75.8,225.133h25.6c5.12,0,8.533-3.413,8.533-8.533s-3.413-8.533-8.533-8.533H75.8c-5.12,0-8.533,3.413-8.533,8.533
				S70.68,225.133,75.8,225.133z"/>
			<path d="M203.8,216.6c0-5.12-3.413-8.533-8.533-8.533h-59.733c-5.12,0-8.533,3.413-8.533,8.533s3.413,8.533,8.533,8.533h59.733
				C200.387,225.133,203.8,221.72,203.8,216.6z"/>
			<path d="M75.8,259.267h42.667c5.12,0,8.533-3.413,8.533-8.533s-3.413-8.533-8.533-8.533H75.8c-5.12,0-8.533,3.413-8.533,8.533
				S70.68,259.267,75.8,259.267z"/>
			<path d="M152.6,242.2c-5.12,0-8.533,3.413-8.533,8.533s3.413,8.533,8.533,8.533h8.533c5.12,0,8.533-3.413,8.533-8.533
				s-3.413-8.533-8.533-8.533H152.6z"/>
			<path d="M75.8,293.4h25.6c5.12,0,8.533-3.413,8.533-8.533c0-5.12-3.413-8.533-8.533-8.533H75.8c-5.12,0-8.533,3.413-8.533,8.533
				C67.267,289.987,70.68,293.4,75.8,293.4z"/>
			<path d="M203.8,284.867c0-5.12-3.413-8.533-8.533-8.533h-59.733c-5.12,0-8.533,3.413-8.533,8.533c0,5.12,3.413,8.533,8.533,8.533
				h59.733C200.387,293.4,203.8,289.987,203.8,284.867z"/>
			<path d="M118.467,310.467H75.8c-5.12,0-8.533,3.413-8.533,8.533s3.413,8.533,8.533,8.533h42.667c5.12,0,8.533-3.413,8.533-8.533
				S123.587,310.467,118.467,310.467z"/>
			<path d="M161.133,310.467H152.6c-5.12,0-8.533,3.413-8.533,8.533s3.413,8.533,8.533,8.533h8.533c5.12,0,8.533-3.413,8.533-8.533
				S166.253,310.467,161.133,310.467z"/>
			<path d="M502.467,370.2h-25.6V105.667c0-14.507-11.093-25.6-25.6-25.6H58.733c-14.507,0-25.6,11.093-25.6,25.6V370.2h-25.6
				c-5.12,0-8.533,3.413-8.533,8.533v25.6c0,14.507,11.093,25.6,25.6,25.6h460.8c14.507,0,25.6-11.093,25.6-25.6v-25.6
				C511,373.613,507.587,370.2,502.467,370.2z M50.2,105.667c0-5.12,3.413-8.533,8.533-8.533h392.533
				c5.12,0,8.533,3.413,8.533,8.533V370.2H323.267c-5.12,0-8.533,3.413-8.533,8.533v8.533H195.267v-8.533
				c0-5.12-3.413-8.533-8.533-8.533H50.2V105.667z M493.933,404.333c0,5.12-3.413,8.533-8.533,8.533H24.6
				c-5.12,0-8.533-3.413-8.533-8.533v-17.067h25.6H178.2v8.533c0,5.12,3.413,8.533,8.533,8.533h136.533
				c5.12,0,8.533-3.413,8.533-8.533v-8.533h136.533h25.6V404.333z"/>
		</g>
	</g>
</g>
<g>
</g>
<g>
</g>
<g>
</g>
<g>
</g>
<g>
</g>
<g>
</g>
<g>
</g>
<g>
</g>
<g>
</g>
<g>
</g>
<g>
</g>
<g>
</g>
<g>
</g>
<g>
</g>
<g>
</g>
</svg>
