<?xml version="1.0" encoding="iso-8859-1"?>
<!-- Generator: Adobe Illustrator 19.0.0, SVG Export Plug-In . SVG Version: 6.00 Build 0)  -->
<svg version="1.1" id="Layer_1" xmlns="http://www.w3.org/2000/svg" xmlns:xlink="http://www.w3.org/1999/xlink" x="0px" y="0px"
	 viewBox="0 0 512 512" style="enable-background:new 0 0 512 512;" xml:space="preserve">
<g transform="translate(1 1)">
	<g>
		<g>
			<path d="M472.6,16.067H37.4c-21.333,0-38.4,17.067-38.4,38.4v260.267v38.4c0,21.333,17.067,38.4,38.4,38.4h163.84l-12.8,51.2
				h-1.707c-23.893,0-42.667,18.773-42.667,42.667c0,5.12,3.413,8.533,8.533,8.533h204.8c5.12,0,8.533-3.413,8.533-8.533
				c0-23.893-18.773-42.667-42.667-42.667h-1.707l-12.8-51.2H472.6c21.333,0,38.4-17.067,38.4-38.4v-38.4V54.467
				C511,33.133,493.933,16.067,472.6,16.067z M16.067,54.467c0-11.947,9.387-21.333,21.333-21.333h435.2
				c11.947,0,21.333,9.387,21.333,21.333V306.2H16.067V54.467z M348.013,476.867H162.84c3.413-10.24,12.8-17.067,23.893-17.067
				h8.533h119.467h9.387C335.213,459.8,344.6,466.627,348.013,476.867z M303.64,442.733h-97.28l12.8-51.2h71.68L303.64,442.733z
				 M493.933,353.133c0,11.947-9.387,21.333-21.333,21.333H297.667h-85.333H37.4c-11.947,0-21.333-9.387-21.333-21.333v-29.867
				h477.867V353.133z"/>
			<path d="M249.027,132.973c1.707,1.707,3.413,2.56,5.973,2.56s4.267-0.853,5.973-2.56l11.093-11.093l11.093,11.093
				c1.707,1.707,3.413,2.56,5.973,2.56s4.267-0.853,5.973-2.56c3.413-3.413,3.413-8.533,0-11.947l-11.093-11.093l11.093-11.093
				c3.413-3.413,3.413-8.533,0-11.947s-8.533-3.413-11.947,0l-11.093,11.093l-11.093-11.093c-3.413-3.413-8.533-3.413-11.947,0
				s-3.413,8.533,0,11.947l11.093,11.093l-11.093,11.093C245.613,124.44,245.613,129.56,249.027,132.973z"/>
			<path d="M457.24,214.893c-3.413-3.413-8.533-3.413-11.947,0L434.2,225.987l-11.093-11.093c-3.413-3.413-8.533-3.413-11.947,0
				c-3.413,3.413-3.413,8.533,0,11.947l11.093,11.093l-11.093,11.093c-3.413,3.413-3.413,8.533,0,11.947
				c1.707,1.707,3.413,2.56,5.973,2.56s4.267-0.853,5.973-2.56L434.2,249.88l11.093,11.093c1.707,1.707,3.413,2.56,5.973,2.56
				c2.56,0,4.267-0.853,5.973-2.56c3.413-3.413,3.413-8.533,0-11.947l-11.093-11.093l11.093-11.093
				C460.653,223.427,460.653,218.307,457.24,214.893z"/>
			<path d="M441.634,79.82c-1.395-2.509-4.034-4.02-7.434-4.02s-6.038,1.511-7.434,4.02l-24.14,24.14
				c-3.413,3.413-3.413,8.533,0,11.947c1.707,1.707,3.413,2.56,5.973,2.56s4.267-0.853,5.973-2.56l11.093-11.093V127
				c0,18.773-15.36,34.133-34.133,34.133h-76.8c-25.586,0-46.941,19.022-50.632,43.621c-14.963,3.613-26.168,17.147-26.168,33.179
				c0,18.773,15.36,34.133,34.133,34.133c18.773,0,34.133-15.36,34.133-34.133c0-15.546-10.537-28.742-24.818-32.822
				c3.338-15.334,17.055-26.911,33.352-26.911h76.8c28.16,0,51.2-23.04,51.2-51.2v-22.187l11.093,11.093
				c1.707,1.707,3.413,2.56,5.973,2.56s4.267-0.853,5.973-2.56c3.413-3.413,3.413-8.533,0-11.947L441.634,79.82z M289.133,237.933
				c0,9.387-7.68,17.067-17.067,17.067C262.68,255,255,247.32,255,237.933c0-9.387,7.68-17.067,17.067-17.067
				C281.453,220.867,289.133,228.547,289.133,237.933z"/>
			<path d="M50.2,92.867h25.6c5.12,0,8.533-3.413,8.533-8.533S80.92,75.8,75.8,75.8H50.2c-5.12,0-8.533,3.413-8.533,8.533
				S45.08,92.867,50.2,92.867z"/>
			<path d="M195.267,75.8h-85.333c-5.12,0-8.533,3.413-8.533,8.533s3.413,8.533,8.533,8.533h85.333c5.12,0,8.533-3.413,8.533-8.533
				S200.387,75.8,195.267,75.8z"/>
			<path d="M50.2,127h42.667c5.12,0,8.533-3.413,8.533-8.533s-3.413-8.533-8.533-8.533H50.2c-5.12,0-8.533,3.413-8.533,8.533
				S45.08,127,50.2,127z"/>
			<path d="M152.6,127c5.12,0,8.533-3.413,8.533-8.533s-3.413-8.533-8.533-8.533H127c-5.12,0-8.533,3.413-8.533,8.533
				S121.88,127,127,127H152.6z"/>
			<path d="M195.267,109.933h-8.533c-5.12,0-8.533,3.413-8.533,8.533s3.413,8.533,8.533,8.533h8.533c5.12,0,8.533-3.413,8.533-8.533
				S200.387,109.933,195.267,109.933z"/>
			<path d="M50.2,161.133h25.6c5.12,0,8.533-3.413,8.533-8.533s-3.413-8.533-8.533-8.533H50.2c-5.12,0-8.533,3.413-8.533,8.533
				S45.08,161.133,50.2,161.133z"/>
			<path d="M195.267,144.067h-85.333c-5.12,0-8.533,3.413-8.533,8.533s3.413,8.533,8.533,8.533h85.333
				c5.12,0,8.533-3.413,8.533-8.533S200.387,144.067,195.267,144.067z"/>
			<path d="M50.2,195.267h42.667c5.12,0,8.533-3.413,8.533-8.533s-3.413-8.533-8.533-8.533H50.2c-5.12,0-8.533,3.413-8.533,8.533
				S45.08,195.267,50.2,195.267z"/>
			<path d="M152.6,195.267c5.12,0,8.533-3.413,8.533-8.533s-3.413-8.533-8.533-8.533H127c-5.12,0-8.533,3.413-8.533,8.533
				s3.413,8.533,8.533,8.533H152.6z"/>
			<path d="M195.267,178.2h-8.533c-5.12,0-8.533,3.413-8.533,8.533s3.413,8.533,8.533,8.533h8.533c5.12,0,8.533-3.413,8.533-8.533
				S200.387,178.2,195.267,178.2z"/>
			<path d="M50.2,229.4h25.6c5.12,0,8.533-3.413,8.533-8.533c0-5.12-3.413-8.533-8.533-8.533H50.2c-5.12,0-8.533,3.413-8.533,8.533
				C41.667,225.987,45.08,229.4,50.2,229.4z"/>
			<path d="M195.267,212.333h-85.333c-5.12,0-8.533,3.413-8.533,8.533c0,5.12,3.413,8.533,8.533,8.533h85.333
				c5.12,0,8.533-3.413,8.533-8.533C203.8,215.747,200.387,212.333,195.267,212.333z"/>
			<path d="M92.867,246.467H50.2c-5.12,0-8.533,3.413-8.533,8.533c0,5.12,3.413,8.533,8.533,8.533h42.667
				c5.12,0,8.533-3.413,8.533-8.533C101.4,249.88,97.987,246.467,92.867,246.467z"/>
			<path d="M152.6,246.467H127c-5.12,0-8.533,3.413-8.533,8.533c0,5.12,3.413,8.533,8.533,8.533h25.6
				c5.12,0,8.533-3.413,8.533-8.533C161.133,249.88,157.72,246.467,152.6,246.467z"/>
			<path d="M195.267,246.467h-8.533c-5.12,0-8.533,3.413-8.533,8.533c0,5.12,3.413,8.533,8.533,8.533h8.533
				c5.12,0,8.533-3.413,8.533-8.533C203.8,249.88,200.387,246.467,195.267,246.467z"/>
		</g>
	</g>
</g>
<g>
</g>
<g>
</g>
<g>
</g>
<g>
</g>
<g>
</g>
<g>
</g>
<g>
</g>
<g>
</g>
<g>
</g>
<g>
</g>
<g>
</g>
<g>
</g>
<g>
</g>
<g>
</g>
<g>
</g>
</svg>
