<?xml version="1.0" encoding="iso-8859-1"?>
<!-- Generator: Adobe Illustrator 19.0.0, SVG Export Plug-In . SVG Version: 6.00 Build 0)  -->
<svg version="1.1" id="Layer_1" xmlns="http://www.w3.org/2000/svg" xmlns:xlink="http://www.w3.org/1999/xlink" x="0px" y="0px"
	 viewBox="0 0 512.132 512.132" style="enable-background:new 0 0 512.132 512.132;" xml:space="preserve">
<g transform="translate(1 1)">
	<g>
		<g>
			<path d="M511,475.292L425.667,5.958c-0.853-4.267-5.973-7.68-10.24-6.827L288.889,22.505c-0.853-3.856-3.955-6.307-8.289-6.307
				H144.067H7.533C2.413,16.198-1,19.612-1,24.732v477.867c0,5.12,3.413,8.533,8.533,8.533h136.533H280.6
				c5.12,0,8.533-3.413,8.533-8.533v-386.78L357.4,504.305c0,1.707,1.707,3.413,3.413,5.12c1.707,0.853,3.413,1.707,5.12,1.707
				c0.853,0,0.853,0,1.707,0l136.533-25.6C508.44,484.678,511.853,479.558,511,475.292z M16.067,33.265h119.467v460.8H16.067V33.265
				z M272.067,494.065H152.6v-460.8h119.467V494.065z M372.76,492.358L292.547,38.385l117.76-20.48l81.92,452.267L372.76,492.358z"
				/>
			<path d="M109.933,75.932H41.667c-5.12,0-8.533,3.413-8.533,8.533v136.533c0,5.12,3.413,8.533,8.533,8.533h68.267
				c5.12,0,8.533-3.413,8.533-8.533V84.465C118.467,79.345,115.053,75.932,109.933,75.932z M50.2,127.132h51.2v17.067H50.2V127.132z
				 M50.2,161.265h51.2v17.067H50.2V161.265z M101.4,92.998v17.067H50.2V92.998H101.4z M50.2,212.465v-17.067h51.2v17.067H50.2z"/>
			<path d="M75.8,391.665c-23.893,0-42.667,18.773-42.667,42.667s18.773,42.667,42.667,42.667c23.893,0,42.667-18.773,42.667-42.667
				S99.693,391.665,75.8,391.665z M75.8,459.932c-14.507,0-25.6-11.093-25.6-25.6c0-14.507,11.093-25.6,25.6-25.6
				s25.6,11.093,25.6,25.6C101.4,448.838,90.307,459.932,75.8,459.932z"/>
			<path d="M178.2,229.532h68.267c5.12,0,8.533-3.413,8.533-8.533V84.465c0-5.12-3.413-8.533-8.533-8.533H178.2
				c-5.12,0-8.533,3.413-8.533,8.533v136.533C169.667,226.118,173.08,229.532,178.2,229.532z M237.933,178.332h-51.2v-17.067h51.2
				V178.332z M237.933,144.198h-51.2v-17.067h51.2V144.198z M186.733,212.465v-17.067h51.2v17.067H186.733z M237.933,92.998v17.067
				h-51.2V92.998H237.933z"/>
			<path d="M212.333,476.998c23.893,0,42.667-18.773,42.667-42.667s-18.773-42.667-42.667-42.667
				c-23.893,0-42.667,18.773-42.667,42.667S188.44,476.998,212.333,476.998z M212.333,408.732c14.507,0,25.6,11.093,25.6,25.6
				c0,14.507-11.093,25.6-25.6,25.6c-14.507,0-25.6-11.093-25.6-25.6C186.733,419.825,197.827,408.732,212.333,408.732z"/>
			<path d="M408.68,106.237c0.075-0.723,0.06-1.446-0.08-2.145c-0.115-0.576-0.314-1.134-0.572-1.671l-5.402-31.609
				c-0.853-4.267-5.973-7.68-10.24-6.827l-67.413,11.947c-1.707,0-3.413,2.56-5.12,4.267c-1.707,1.707-1.707,3.413-1.707,5.973
				l11.831,66.336c0.014,0.363,0.045,0.723,0.116,1.077c0.065,0.326,0.15,0.638,0.244,0.944l5.618,31.498
				c0.02,0.282,0.056,0.562,0.111,0.838c0.04,0.201,0.091,0.394,0.143,0.587l5.831,32.693c0.853,4.267,4.267,6.827,8.533,6.827
				c0,0,0.853,0,0.853,0.853l67.413-11.947c4.267-0.853,7.68-5.973,6.827-10.24l-5.256-30.755c0.288-1.125,0.355-2.279,0.136-3.378
				c-0.192-0.961-0.609-1.874-1.176-2.709l-4.777-27.952c0.143-0.88,0.15-1.767-0.021-2.619c-0.144-0.72-0.418-1.411-0.78-2.066
				L408.68,106.237z M396.065,132.864l-50.363,8.925l-2.956-16.996l50.384-8.929L396.065,132.864z M348.557,158.205l50.45-8.302
				l2.811,16.279l-50.323,8.918L348.557,158.205z M387.267,81.905l2.903,16.812l-50.405,8.932l-2.845-16.357L387.267,81.905z
				 M357.4,209.052l-2.923-16.808l50.302-8.914l2.968,17.189L357.4,209.052z"/>
			<path d="M414.573,381.425c-23.893,4.267-39.253,26.453-34.987,49.493c3.413,20.48,21.333,34.987,41.813,34.987
				c1.707,0,4.267-0.853,8.533-0.853c11.093-2.56,20.48-8.533,27.307-17.92c5.973-9.387,8.533-20.48,6.827-31.573
				c-2.56-11.093-8.533-20.48-17.92-27.307C436.76,382.278,425.667,379.718,414.573,381.425z M436.76,401.905
				c5.12,3.413,9.387,9.387,10.24,16.213c0.853,5.973,0,12.8-4.267,18.773c-3.413,5.12-9.387,9.387-16.213,10.24
				c-14.507,2.56-27.307-6.827-29.867-20.48c-0.853-5.973,0-12.8,4.267-18.773c3.413-5.12,9.387-9.387,16.213-10.24
				c0.853,0,2.56,0,4.267,0C426.52,397.638,431.64,398.492,436.76,401.905z"/>
		</g>
	</g>
</g>
<g>
</g>
<g>
</g>
<g>
</g>
<g>
</g>
<g>
</g>
<g>
</g>
<g>
</g>
<g>
</g>
<g>
</g>
<g>
</g>
<g>
</g>
<g>
</g>
<g>
</g>
<g>
</g>
<g>
</g>
</svg>
