<?xml version="1.0" encoding="iso-8859-1"?>
<!-- Generator: Adobe Illustrator 19.0.0, SVG Export Plug-In . SVG Version: 6.00 Build 0)  -->
<svg version="1.1" id="Layer_1" xmlns="http://www.w3.org/2000/svg" xmlns:xlink="http://www.w3.org/1999/xlink" x="0px" y="0px"
	 viewBox="0 0 512.077 512.077" style="enable-background:new 0 0 512.077 512.077;" xml:space="preserve">
<g transform="translate(1 1)">
	<g>
		<path d="M511.038,161.21c0-33.28-26.453-59.733-59.733-59.733H399.72c-4.027-45.204-39.744-80.921-84.948-84.948V7.61
			c0-2.56-1.707-5.12-3.413-6.827c-2.56-1.707-5.12-2.56-7.68-0.853c-31.573,10.24-65.707,10.24-97.28,0
			c-2.56-0.853-5.973-0.853-7.68,0.853s-3.413,4.267-3.413,6.827v8.919c-45.204,4.027-80.921,39.744-84.948,84.948H58.772
			c-33.28,0-59.733,26.453-59.733,59.733v85.333c0,16.471,6.486,31.263,17.067,42.011v162.789c0,33.28,26.453,59.733,59.733,59.733
			h358.4c33.28,0,59.733-26.453,59.733-59.733V288.554c10.58-10.747,17.067-25.54,17.067-42.011V161.21z M382.185,101.477h-17.067
			c-3.413-26.453-23.893-46.933-50.347-50.347V34.064C349.759,37.477,377.918,65.637,382.185,101.477z M198.718,82.704
			c1.707,0.853,3.413,1.707,5.12,1.707c0.853,0,1.707,0,2.56-0.853c31.573-10.24,65.707-10.24,97.28,0
			c2.56,0.853,5.12,0.853,7.68-0.853c1.707-1.707,3.413-4.267,3.413-6.827v-7.708c16.93,3.32,29.988,16.378,33.308,33.308H161.997
			c3.32-16.93,16.378-29.988,33.308-33.308v7.708C195.305,78.437,197.012,80.997,198.718,82.704z M212.372,18.704
			c28.16,7.68,57.173,7.68,85.333,0v5.973V58.81v5.12c-28.16-6.827-57.173-6.827-85.333,0v-5.12V24.677V18.704z M195.305,34.064
			V51.13c-25.6,3.413-46.933,23.893-50.347,50.347h-17.067C131.305,65.637,159.465,37.477,195.305,34.064z M41.058,303.66
			c5.766,1.83,11.935,2.617,17.714,2.617h145.067v17.067c0,14.507,11.093,25.6,25.6,25.6h51.2c14.507,0,25.6-11.093,25.6-25.6
			v-17.067h145.067c0.651,0,1.309-0.02,1.969-0.049c8.462-0.267,16.449-2.239,23.631-5.602V442.81H33.172V300.626
			C35.706,301.813,38.338,302.832,41.058,303.66z M289.172,297.744v25.6c0,5.12-3.413,8.533-8.533,8.533h-51.2
			c-5.12,0-8.533-3.413-8.533-8.533v-25.6v-25.6c0-5.12,3.413-8.533,8.533-8.533h51.2c5.12,0,8.533,3.413,8.533,8.533V297.744z
			 M434.238,494.01h-358.4c-20.48,0-37.547-14.507-41.813-34.133h442.027C471.785,479.504,454.719,494.01,434.238,494.01z
			 M493.972,246.544c0,11.765-4.558,22.282-12.031,29.934c-0.885,0.353-1.718,0.882-2.476,1.639
			c-7.68,6.827-17.92,11.093-28.16,11.093H306.238v-17.067c0-14.507-11.093-25.6-25.6-25.6h-51.2c-14.507,0-25.6,11.093-25.6,25.6
			v17.067H58.772c-9.425,0-18.845-3.619-26.274-8.852c-10.026-7.746-16.393-19.909-16.393-33.814V161.21
			c0-23.893,18.773-42.667,42.667-42.667h59.733h34.133h204.8h34.133h59.733c23.893,0,42.667,18.773,42.667,42.667V246.544z"/>
	</g>
</g>
<g>
</g>
<g>
</g>
<g>
</g>
<g>
</g>
<g>
</g>
<g>
</g>
<g>
</g>
<g>
</g>
<g>
</g>
<g>
</g>
<g>
</g>
<g>
</g>
<g>
</g>
<g>
</g>
<g>
</g>
</svg>
