<?xml version="1.0" encoding="iso-8859-1"?>
<!-- Generator: Adobe Illustrator 19.0.0, SVG Export Plug-In . SVG Version: 6.00 Build 0)  -->
<svg version="1.1" id="Layer_1" xmlns="http://www.w3.org/2000/svg" xmlns:xlink="http://www.w3.org/1999/xlink" x="0px" y="0px"
	 viewBox="0 0 512 512" style="enable-background:new 0 0 512 512;" xml:space="preserve">
<g transform="translate(1 1)">
	<g>
		<path d="M511,169.667V152.6c0-33.28-26.453-59.733-59.733-59.733H383V75.8c0-5.12-3.413-8.533-8.533-8.533h-0.556
			c-4.235-33.555-33.054-59.733-67.71-59.733H203.8c-34.656,0-63.475,26.178-67.71,59.733h-0.556c-5.12,0-8.533,3.413-8.533,8.533
			v17.067H58.733C25.453,92.867-1,119.32-1,152.6v17.067v273.067c0,33.28,26.453,59.733,59.733,59.733h392.533
			c33.28,0,59.733-26.453,59.733-59.733c0-2.164-0.616-4.019-1.707-5.444V175.078C510.429,173.601,511,171.635,511,169.667z
			 M127,222.573v15.36H92.867V201.24v-14.507H127V222.573z M16.067,182.467L75.8,207.213v39.253c0,5.12,3.413,8.533,8.533,8.533
			h51.2c5.12,0,8.533-3.413,8.533-8.533v-11.093l107.52,44.373c0,0,0,0,0,0c0.853,0.853,2.56,0.853,3.413,0.853
			c0.853,0,2.56,0,4.267-0.853l106.667-44.19v10.91c0,5.12,3.413,8.533,8.533,8.533h51.2c5.12,0,8.533-3.413,8.533-8.533v-39.253
			l59.733-24.747V434.2H16.067V182.467z M383.853,222.573v-35.84h33.28v10.514c-0.566,1.217-0.853,2.603-0.853,3.993v36.693H383
			v-11.367C383.566,225.349,383.853,223.963,383.853,222.573z M195.267,92.867V75.8c0-4.352-2.471-7.461-6.355-8.3
			c2.928-5.217,8.511-8.767,14.888-8.767h102.4c6.378,0,11.96,3.55,14.888,8.767c-3.884,0.838-6.355,3.948-6.355,8.3v17.067H195.267
			z M331.8,84.333h34.133v8.533H331.8V84.333z M203.8,24.6h102.4c25.6,0,46.08,18.773,50.347,42.667H339.48
			c-4.267-14.507-17.067-25.6-33.28-25.6H203.8c-16.213,0-29.867,11.093-33.28,25.6h-17.067C157.72,43.373,178.2,24.6,203.8,24.6z
			 M144.067,84.333H178.2v8.533h-34.133V84.333z M16.067,152.6c0-23.893,18.773-42.667,42.667-42.667h76.8h51.2h136.533h51.2h76.8
			c23.893,0,42.667,18.773,42.667,42.667v11.093L479,169.88l-44.8,18.418V178.2c0-5.12-3.413-8.533-8.533-8.533h-51.2
			c-5.12,0-8.533,3.413-8.533,8.533v38.4L255,262.68L144.067,216.6v-38.4c0-5.12-3.413-8.533-8.533-8.533h-51.2
			c-5.12,0-8.533,3.413-8.533,8.533v10.24l-59.733-24.747V152.6z M451.267,485.4H58.733c-20.48,0-37.547-14.507-41.813-34.133
			h476.16C488.813,470.893,471.747,485.4,451.267,485.4z"/>
	</g>
</g>
<g>
</g>
<g>
</g>
<g>
</g>
<g>
</g>
<g>
</g>
<g>
</g>
<g>
</g>
<g>
</g>
<g>
</g>
<g>
</g>
<g>
</g>
<g>
</g>
<g>
</g>
<g>
</g>
<g>
</g>
</svg>
