<?xml version="1.0" encoding="iso-8859-1"?>
<!-- Generator: Adobe Illustrator 19.0.0, SVG Export Plug-In . SVG Version: 6.00 Build 0)  -->
<svg version="1.1" id="Layer_1" xmlns="http://www.w3.org/2000/svg" xmlns:xlink="http://www.w3.org/1999/xlink" x="0px" y="0px"
	 viewBox="0 0 512 512" style="enable-background:new 0 0 512 512;" xml:space="preserve">
<g transform="translate(1 1)">
	<g>
		<g>
			<path d="M459.8,84.333h-17.067V67.267c0-5.12-3.413-8.533-8.533-8.533h-34.133c-5.12,0-8.533,3.413-8.533,8.533v17.067h-25.6
				V67.267c0-5.12-3.413-8.533-8.533-8.533h-0.556C352.608,25.178,323.789-1,289.133-1h-68.267
				c-34.656,0-63.475,26.178-67.71,59.733H152.6c-5.12,0-8.533,3.413-8.533,8.533v17.067h-25.6V67.267
				c0-5.12-3.413-8.533-8.533-8.533H75.8c-5.12,0-8.533,3.413-8.533,8.533v17.067H50.2c-28.16,0-51.2,23.04-51.2,51.2v290.133
				c0,28.16,23.04,51.2,51.2,51.2h10.371l4.135,15.36C67.267,503.32,77.507,511,88.6,511c11.093,0,21.333-7.68,24.747-18.773
				l3.686-15.36h276.338l4.135,15.36C400.067,503.32,410.307,511,421.4,511s21.333-7.68,24.747-19.627l3.482-14.507H459.8
				c28.16,0,51.2-23.04,51.2-51.2V135.533C511,107.373,487.96,84.333,459.8,84.333z M408.6,75.8h17.067v8.533H408.6V75.8z
				 M212.333,84.333V67.267c0-4.352-2.471-7.462-6.355-8.3c2.928-5.217,8.511-8.767,14.888-8.767h68.267
				c6.378,0,11.96,3.55,14.888,8.767c-3.884,0.838-6.355,3.948-6.355,8.3v17.067H212.333z M314.733,75.8h34.133v8.533h-34.133V75.8z
				 M220.867,16.067h68.267c25.6,0,46.08,18.773,50.347,42.667h-17.067c-4.267-14.507-17.067-25.6-33.28-25.6h-68.267
				c-16.213,0-29.867,11.093-33.28,25.6H170.52C174.787,34.84,195.267,16.067,220.867,16.067z M161.133,75.8h34.133v8.533h-34.133
				V75.8z M84.333,75.8H101.4v8.533H84.333V75.8z M96.28,487.96c-0.853,3.413-4.267,5.973-7.68,5.973s-6.827-2.56-7.68-5.973
				l-2.56-11.093h20.48L96.28,487.96z M429.08,487.96c-0.853,3.413-4.267,5.973-7.68,5.973s-6.827-2.56-7.68-5.973l-2.56-11.093
				h20.48L429.08,487.96z M493.933,425.667c0,18.773-15.36,34.133-34.133,34.133h-13.135c-1.228-0.604-2.578-0.853-3.932-0.853
				h-42.667c-1.124,0-2.243,0.34-3.295,0.853H109.933H67.267H50.2c-18.773,0-34.133-15.36-34.133-34.133V135.533
				c0-18.773,15.36-34.133,34.133-34.133h25.6h34.133H152.6h51.2h102.4h51.2h42.667H434.2h25.6c18.773,0,34.133,15.36,34.133,34.133
				V425.667z"/>
			<path d="M442.733,118.467H67.267c-18.773,0-34.133,15.36-34.133,34.133v256c0,18.773,15.36,34.133,34.133,34.133h375.467
				c18.773,0,34.133-15.36,34.133-34.133v-256C476.867,133.827,461.507,118.467,442.733,118.467z M50.2,237.933v-51.2h409.6v51.2
				H50.2z M459.8,255v51.2H50.2V255H459.8z M50.2,323.267h409.6v51.2H50.2V323.267z M67.267,135.533h375.467
				c9.387,0,17.067,7.68,17.067,17.067v17.067H50.2V152.6C50.2,143.213,57.88,135.533,67.267,135.533z M442.733,425.667H67.267
				c-9.387,0-17.067-7.68-17.067-17.067v-17.067h409.6V408.6C459.8,417.987,452.12,425.667,442.733,425.667z"/>
		</g>
	</g>
</g>
<g>
</g>
<g>
</g>
<g>
</g>
<g>
</g>
<g>
</g>
<g>
</g>
<g>
</g>
<g>
</g>
<g>
</g>
<g>
</g>
<g>
</g>
<g>
</g>
<g>
</g>
<g>
</g>
<g>
</g>
</svg>
