<?xml version="1.0" encoding="iso-8859-1"?>
<!-- Generator: Adobe Illustrator 19.0.0, SVG Export Plug-In . SVG Version: 6.00 Build 0)  -->
<svg version="1.1" id="Layer_1" xmlns="http://www.w3.org/2000/svg" xmlns:xlink="http://www.w3.org/1999/xlink" x="0px" y="0px"
	 viewBox="0 0 512.077 512.077" style="enable-background:new 0 0 512.077 512.077;" xml:space="preserve">
<g transform="translate(1 1)">
	<g>
		<path d="M485.439,101.477h-25.6H399.72c-4.027-45.204-39.744-80.921-84.948-84.948V7.61c0-2.56-1.707-5.12-3.413-6.827
			c-2.56-1.707-5.12-2.56-7.68-0.853c-31.573,10.24-65.707,10.24-97.28,0c-2.56-0.853-5.973-0.853-7.68,0.853
			s-3.413,4.267-3.413,6.827v8.919c-45.204,4.027-80.921,39.744-84.948,84.948H50.238h-25.6c-14.507,0-25.6,11.093-25.6,25.6v25.6
			v119.467c0,9.387,7.68,17.067,17.067,17.067v170.667v25.6c0,14.507,11.093,25.6,25.6,25.6h25.6h375.467h25.6
			c14.507,0,25.6-11.093,25.6-25.6v-25.6V289.21c9.387,0,17.067-7.68,17.067-17.067V152.677v-25.6
			C511.038,112.57,499.945,101.477,485.439,101.477z M485.439,118.544c5.12,0,8.533,3.413,8.533,8.533v17.067h-17.067
			c-5.12,0-8.533-3.413-8.533-8.533v-17.067H485.439z M382.185,101.477h-17.067c-3.413-26.453-23.893-46.933-50.347-50.347V34.064
			C349.759,37.477,377.918,65.637,382.185,101.477z M198.718,82.704c1.707,0.853,3.413,1.707,5.12,1.707c0.853,0,1.707,0,2.56-0.853
			c31.573-10.24,65.707-10.24,97.28,0c2.56,0.853,5.12,0.853,7.68-0.853c1.707-1.707,3.413-4.267,3.413-6.827v-7.708
			c16.93,3.32,29.988,16.378,33.308,33.308H161.997c3.32-16.93,16.378-29.988,33.308-33.308v7.708
			C195.305,78.437,197.012,80.997,198.718,82.704z M212.372,18.704c28.16,7.68,57.173,7.68,85.333,0v5.973V58.81v5.12
			c-28.16-6.827-57.173-6.827-85.333,0v-5.12V24.677V18.704z M195.305,34.064V51.13c-25.6,3.413-46.933,23.893-50.347,50.347
			h-17.067C131.305,65.637,159.465,37.477,195.305,34.064z M16.105,127.077c0-5.12,3.413-8.533,8.533-8.533h17.067v17.067
			c0,5.12-3.413,8.533-8.533,8.533H16.105V127.077z M41.705,494.01c-5.12,0-8.533-3.413-8.533-8.533V468.41h17.067
			c5.12,0,8.533,3.413,8.533,8.533v17.067H41.705z M476.905,485.477c0,5.12-3.413,8.533-8.533,8.533h-17.067v-17.067
			c0-5.12,3.413-8.533,8.533-8.533h17.067V485.477z M476.905,451.344h-17.067c-14.507,0-25.6,11.093-25.6,25.6v17.067h-358.4
			v-17.067c0-14.507-11.093-25.6-25.6-25.6H33.172V289.21h153.6v8.533c0,14.507,11.093,25.6,25.6,25.6h85.333
			c14.507,0,25.6-11.093,25.6-25.6v-8.533h153.6V451.344z M306.238,280.677v17.067c0,5.12-3.413,8.533-8.533,8.533h-85.333
			c-5.12,0-8.533-3.413-8.533-8.533v-17.067V263.61c0-5.12,3.413-8.533,8.533-8.533h85.333c5.12,0,8.533,3.413,8.533,8.533V280.677z
			 M485.439,272.144H323.305v-8.533c0-14.507-11.093-25.6-25.6-25.6h-85.333c-14.507,0-25.6,11.093-25.6,25.6v8.533H24.638h-8.533
			V161.21h17.067c14.507,0,25.6-11.093,25.6-25.6v-17.067h59.733h34.133h204.8h34.133h59.733v17.067c0,14.507,11.093,25.6,25.6,25.6
			h17.067v110.933H485.439z"/>
	</g>
</g>
<g>
</g>
<g>
</g>
<g>
</g>
<g>
</g>
<g>
</g>
<g>
</g>
<g>
</g>
<g>
</g>
<g>
</g>
<g>
</g>
<g>
</g>
<g>
</g>
<g>
</g>
<g>
</g>
<g>
</g>
</svg>
