<?xml version="1.0" encoding="iso-8859-1"?>
<!-- Generator: Adobe Illustrator 19.0.0, SVG Export Plug-In . SVG Version: 6.00 Build 0)  -->
<svg version="1.1" id="Layer_1" xmlns="http://www.w3.org/2000/svg" xmlns:xlink="http://www.w3.org/1999/xlink" x="0px" y="0px"
	 viewBox="0 0 512 512" style="enable-background:new 0 0 512 512;" xml:space="preserve">
<g transform="translate(1 1)">
	<g>
		<g>
			<path d="M127,144.067H58.733c-5.12,0-8.533,3.413-8.533,8.533v68.267c0,5.12,3.413,8.533,8.533,8.533H127
				c5.12,0,8.533-3.413,8.533-8.533V152.6C135.533,147.48,132.12,144.067,127,144.067z M118.467,212.333h-51.2v-51.2h51.2V212.333z"
				/>
			<path d="M246.467,144.067H178.2c-5.12,0-8.533,3.413-8.533,8.533v68.267c0,5.12,3.413,8.533,8.533,8.533h68.267
				c5.12,0,8.533-3.413,8.533-8.533V152.6C255,147.48,251.587,144.067,246.467,144.067z M237.933,212.333h-51.2v-51.2h51.2V212.333z
				"/>
			<path d="M297.667,229.4h68.267c5.12,0,8.533-3.413,8.533-8.533V152.6c0-5.12-3.413-8.533-8.533-8.533h-68.267
				c-5.12,0-8.533,3.413-8.533,8.533v68.267C289.133,225.987,292.547,229.4,297.667,229.4z M306.2,161.133h51.2v51.2h-51.2V161.133z
				"/>
			<path d="M127,263.533H58.733c-5.12,0-8.533,3.413-8.533,8.533v68.267c0,5.12,3.413,8.533,8.533,8.533H127
				c5.12,0,8.533-3.413,8.533-8.533v-68.267C135.533,266.947,132.12,263.533,127,263.533z M118.467,331.8h-51.2v-51.2h51.2V331.8z"
				/>
			<path d="M246.467,263.533H178.2c-5.12,0-8.533,3.413-8.533,8.533v68.267c0,5.12,3.413,8.533,8.533,8.533h68.267
				c5.12,0,8.533-3.413,8.533-8.533v-68.267C255,266.947,251.587,263.533,246.467,263.533z M237.933,331.8h-51.2v-51.2h51.2V331.8z"
				/>
			<path d="M127,383H58.733c-5.12,0-8.533,3.413-8.533,8.533V459.8c0,5.12,3.413,8.533,8.533,8.533H127
				c5.12,0,8.533-3.413,8.533-8.533v-68.267C135.533,386.413,132.12,383,127,383z M118.467,451.267h-51.2v-51.2h51.2V451.267z"/>
			<path d="M246.467,383H178.2c-5.12,0-8.533,3.413-8.533,8.533V459.8c0,5.12,3.413,8.533,8.533,8.533h68.267
				c5.12,0,8.533-3.413,8.533-8.533v-68.267C255,386.413,251.587,383,246.467,383z M237.933,451.267h-51.2v-51.2h51.2V451.267z"/>
			<path d="M425.667,323.652V109.933v-51.2c0-14.507-11.093-25.6-25.6-25.6h-34.133v-25.6c0-5.12-3.413-8.533-8.533-8.533h-34.133
				c-5.12,0-8.533,3.413-8.533,8.533v25.6h-204.8v-25.6c0-5.12-3.413-8.533-8.533-8.533H67.267c-5.12,0-8.533,3.413-8.533,8.533
				v25.6H24.6c-14.507,0-25.6,11.093-25.6,25.6v51.2V485.4c0,14.507,11.093,25.6,25.6,25.6h392.533
				C469.187,511,511,469.187,511,417.133C511,367.958,473.681,327.929,425.667,323.652z M331.8,16.067h17.067v17.067H331.8V16.067z
				 M75.8,16.067h17.067v17.067H75.8V16.067z M16.067,58.733c0-5.12,3.413-8.533,8.533-8.533h42.667H101.4h221.867H357.4h42.667
				c5.12,0,8.533,3.413,8.533,8.533V101.4H16.067V58.733z M24.6,493.933c-5.12,0-8.533-3.413-8.533-8.533V118.467H408.6v204.8
				c-7.626,0.817-14.987,2.534-21.98,5.025c-4.195,1.429-8.254,3.144-12.153,5.125v-61.35c0-5.12-3.413-8.533-8.533-8.533h-68.267
				c-5.12,0-8.533,3.413-8.533,8.533v68.267c0,5.12,3.413,8.533,8.533,8.533h54.883c-9.983,9.443-17.876,21.068-22.94,34.133
				h-31.943c-5.12,0-8.533,3.413-8.533,8.533V459.8c0,5.12,3.413,8.533,8.533,8.533h40.672c6.508,10.031,14.881,18.725,24.642,25.6
				H24.6z M323.377,412.586c-0.001,0.016-0.001,0.032-0.002,0.048c-0.07,1.491-0.108,2.99-0.108,4.499
				c0,0.945,0.018,1.885,0.045,2.822c0.004,0.131,0.01,0.262,0.015,0.393c0.362,10.89,2.553,21.294,6.283,30.918H306.2v-51.2h18.601
				C324.059,404.151,323.577,408.33,323.377,412.586z M357.4,331.8h-51.2v-51.2h51.2V331.8z M417.133,493.933
				c-28.12,0-52.528-14.831-65.906-37.155c-0.182-0.43-0.391-0.85-0.654-1.245c-3.366-5.89-5.898-11.989-7.604-18.293
				c-0.026-0.097-0.056-0.193-0.082-0.29c-0.124-0.467-0.235-0.937-0.35-1.406c-0.188-0.774-0.369-1.551-0.534-2.335
				c-0.052-0.244-0.107-0.488-0.157-0.733c-0.226-1.133-0.429-2.275-0.606-3.426c-0.021-0.138-0.04-0.277-0.061-0.416
				c-0.175-1.184-0.328-2.375-0.45-3.577c-0.001-0.014-0.003-0.028-0.005-0.042c-0.12-1.194-0.206-2.399-0.271-3.609
				c-0.012-0.222-0.022-0.445-0.032-0.668c-0.054-1.195-0.09-2.396-0.09-3.605c0-42.667,34.133-76.8,76.8-76.8
				s76.8,34.133,76.8,76.8S459.8,493.933,417.133,493.933z"/>
			<path d="M442.733,408.6h-17.067v-42.667c0-5.12-3.413-8.533-8.533-8.533s-8.533,3.413-8.533,8.533v51.2
				c0,5.12,3.413,8.533,8.533,8.533h25.6c5.12,0,8.533-3.413,8.533-8.533S447.853,408.6,442.733,408.6z"/>
		</g>
	</g>
</g>
<g>
</g>
<g>
</g>
<g>
</g>
<g>
</g>
<g>
</g>
<g>
</g>
<g>
</g>
<g>
</g>
<g>
</g>
<g>
</g>
<g>
</g>
<g>
</g>
<g>
</g>
<g>
</g>
<g>
</g>
</svg>
