<?xml version="1.0" encoding="iso-8859-1"?>
<!-- Generator: Adobe Illustrator 19.0.0, SVG Export Plug-In . SVG Version: 6.00 Build 0)  -->
<svg version="1.1" id="Layer_1" xmlns="http://www.w3.org/2000/svg" xmlns:xlink="http://www.w3.org/1999/xlink" x="0px" y="0px"
	 viewBox="0 0 512 512" style="enable-background:new 0 0 512 512;" xml:space="preserve">
<g transform="translate(1 1)">
	<g>
		<g>
			<path d="M470.579-1H272.965c-15.27,0-26.947,11.677-26.947,26.947v8.916c-21.409-11.42-45.866-17.898-71.86-17.898
				c-84.435,0-152.702,68.267-152.702,152.702c0,25.477,6.365,50.084,18.1,71.86h-0.135c-15.27,0-26.947,11.677-26.947,26.947
				v161.684c0,11.677,7.186,21.558,17.965,25.151v46.709c0,3.593,1.797,7.186,5.389,8.084C36.726,511,38.523,511,39.421,511
				c2.695,0,4.491-0.898,6.288-2.695l51.2-51.2H290.93c15.27,0,26.947-11.677,26.947-26.947v-68.267l21.558-21.558h131.144
				c15.27,0,26.947-11.677,26.947-26.947V25.947C497.526,10.677,485.849-1,470.579-1z M174.158,34.93
				c27.641,0,53.302,8.279,74.658,22.489c0.262,0.305,0.527,0.598,0.795,0.865c34.452,23.528,56.323,61.208,59.002,102.74
				c0.011,0.171,0.022,0.341,0.032,0.512c0.067,1.106,0.116,2.216,0.156,3.328c0.01,0.282,0.024,0.564,0.032,0.846
				c0.039,1.316,0.062,2.634,0.062,3.956c0,0,0,0,0,0c0,1.322-0.023,2.64-0.062,3.956c-0.008,0.283-0.022,0.564-0.032,0.847
				c-0.04,1.111-0.089,2.221-0.156,3.327c-0.01,0.171-0.022,0.342-0.032,0.513c-2.679,41.532-24.55,79.211-59.002,102.74
				c-0.268,0.268-0.533,0.561-0.795,0.865c-5.019,3.34-10.274,6.353-15.739,9.007c-25.083,11.901-53.268,15.999-80.824,11.51
				c-7.07-1.233-14.14-3.005-21.21-5.214c-2.695-1.797-6.288-0.898-8.982,1.797l-28.744,28.744v-45.81
				c0-2.695-0.898-5.389-3.593-7.186c-1.833-1.519-3.62-3.082-5.366-4.679c-0.222-0.203-0.445-0.406-0.666-0.611
				c-0.671-0.621-1.334-1.25-1.992-1.883c-6.773-6.558-13.086-14.038-18.923-22.469c-0.047-0.047-0.101-0.093-0.149-0.139
				c-14.847-21.929-23.206-47.823-23.206-75.313C39.421,95.112,99.604,34.93,174.158,34.93z M299.912,430.158
				c0,5.389-3.593,8.982-8.982,8.982H93.316c-2.695,0-4.491,0.898-6.288,2.695L48.404,480.46v-32.337
				c0-5.389-3.593-8.982-8.982-8.982c-5.389,0-8.982-3.593-8.982-8.982V268.474c0-5.389,3.593-8.982,8.982-8.982h11.523
				c7.019,9.523,15.183,18.281,24.407,26.049v63.775c0,3.593,1.796,7.186,5.389,8.084c0.738,0.738,2.077,0.868,3.032,0.891
				c1.055,0.102,2.086-0.013,3.071-0.324c1.21-0.345,2.244-0.967,3.245-1.866c0.181-0.159,0.359-0.324,0.532-0.498l39.523-39.523
				c7.29,2.278,14.81,3.86,22.327,4.869c25.279,3.603,50.669,0.846,74.122-7.797c0.235-0.086,0.468-0.177,0.703-0.264
				c0.738-0.276,1.476-0.551,2.21-0.839c5.678-2.204,11.188-4.739,16.512-7.579v26.88c0,5.389,3.593,8.982,8.982,8.982h17.965
				v44.912c0,3.593,1.797,7.186,5.389,8.084c0.739,0.739,2.078,0.868,3.032,0.891c1.055,0.102,2.086-0.013,3.071-0.324
				c1.21-0.346,2.243-0.967,3.245-1.866c0.181-0.159,0.359-0.324,0.532-0.498l11.677-11.677V430.158z M479.561,313.386
				c0,5.389-3.593,8.982-8.982,8.982H335.842c-2.695,0-4.491,0.898-6.288,2.695l-26.947,26.947c0,0,0,0,0,0l-11.677,11.677v-32.337
				c0-5.389-3.593-8.982-8.982-8.982h-17.965v-29.154c9.844-7.164,18.795-15.475,26.66-24.741h64.063
				c4.491,0,8.084-3.593,8.084-8.982c0-5.389-3.593-8.982-8.084-8.982h-50.938c5.283-8.462,9.76-17.479,13.325-26.947h55.578
				c4.491,0,8.084-3.593,8.084-8.982c0-5.389-2.695-8.982-8.084-8.982h-50.06c2.078-8.639,3.422-17.564,3.965-26.709
				c0.005-0.08,0.011-0.159,0.016-0.238h18.233c5.389,0,8.982-3.593,8.982-8.982c0-5.39-3.593-8.982-8.982-8.982h-18.233
				c-0.005-0.08-0.011-0.159-0.016-0.238c-0.543-9.145-1.887-18.07-3.965-26.709h50.06c4.491,0,8.084-3.593,8.084-8.982
				s-2.695-8.982-8.084-8.982h-55.578c-3.565-9.468-8.041-18.486-13.325-26.947h32.074c5.389,0,8.982-3.593,8.982-8.982
				s-3.593-8.982-8.982-8.982H290.93c-0.095,0-0.184,0.01-0.278,0.012c-7.867-9.271-16.821-17.586-26.669-24.753V25.947
				c0-5.389,3.593-8.982,8.982-8.982h197.614c5.389,0,8.982,3.593,8.982,8.982V313.386z"/>
			<path d="M434.649,70.86h-62.877c-5.389,0-8.982,3.593-8.982,8.982s3.593,8.982,8.982,8.982h62.877
				c5.389,0,8.982-3.593,8.982-8.982S440.039,70.86,434.649,70.86z"/>
			<path d="M434.649,115.772h-26.947c-5.389,0-8.982,3.593-8.982,8.982s3.593,8.982,8.982,8.982h26.947
				c5.389,0,8.982-3.593,8.982-8.982S440.039,115.772,434.649,115.772z"/>
			<path d="M434.649,160.684h-53.895c-5.389,0-8.982,3.593-8.982,8.982c0,5.389,3.593,8.982,8.982,8.982h53.895
				c5.389,0,8.982-3.593,8.982-8.982C443.632,164.277,440.039,160.684,434.649,160.684z"/>
			<path d="M434.649,205.596h-26.947c-5.389,0-8.982,3.593-8.982,8.982c0,5.39,3.593,8.982,8.982,8.982h26.947
				c5.389,0,8.982-3.593,8.982-8.982C443.632,209.189,440.039,205.596,434.649,205.596z"/>
			<path d="M434.649,250.509h-44.912c-5.389,0-8.982,3.593-8.982,8.982c0,5.39,3.593,8.982,8.982,8.982h44.912
				c5.389,0,8.982-3.593,8.982-8.982C443.632,254.102,440.039,250.509,434.649,250.509z"/>
			<path d="M201.105,133.737h44.912c5.39,0,8.982-3.593,8.982-8.982s-3.593-8.982-8.982-8.982h-44.912
				c-5.39,0-8.982,3.593-8.982,8.982S195.716,133.737,201.105,133.737z"/>
			<path d="M102.298,133.737h62.877c5.39,0,8.982-3.593,8.982-8.982s-3.593-8.982-8.982-8.982h-62.877
				c-5.389,0-8.982,3.593-8.982,8.982S96.909,133.737,102.298,133.737z"/>
			<path d="M246.018,160.684h-8.982c-5.389,0-8.982,3.593-8.982,8.982c0,5.389,3.593,8.982,8.982,8.982h8.982
				c5.39,0,8.982-3.593,8.982-8.982C255,164.277,251.407,160.684,246.018,160.684z"/>
			<path d="M156.193,169.667c0,5.389,3.593,8.982,8.982,8.982h35.93c5.389,0,8.982-3.593,8.982-8.982
				c0-5.39-3.593-8.982-8.982-8.982h-35.93C159.786,160.684,156.193,164.277,156.193,169.667z"/>
			<path d="M102.298,178.649h26.947c5.389,0,8.982-3.593,8.982-8.982c0-5.39-3.593-8.982-8.982-8.982h-26.947
				c-5.389,0-8.982,3.593-8.982,8.982C93.316,175.056,96.909,178.649,102.298,178.649z"/>
			<path d="M246.018,205.596H219.07c-5.39,0-8.982,3.593-8.982,8.982c0,5.39,3.593,8.982,8.982,8.982h26.947
				c5.39,0,8.982-3.593,8.982-8.982C255,209.189,251.407,205.596,246.018,205.596z"/>
			<path d="M102.298,223.561h80.842c5.39,0,8.982-3.593,8.982-8.982c0-5.389-3.593-8.982-8.982-8.982h-80.842
				c-5.389,0-8.982,3.593-8.982,8.982C93.316,219.968,96.909,223.561,102.298,223.561z"/>
			<path d="M228.053,349.316h-62.877c-5.389,0-8.982,3.593-8.982,8.982c0,5.389,3.593,8.982,8.982,8.982h62.877
				c5.389,0,8.982-3.593,8.982-8.982C237.035,352.909,233.442,349.316,228.053,349.316z"/>
			<path d="M120.263,367.281h8.982c5.389,0,8.982-3.593,8.982-8.982c0-5.389-3.593-8.982-8.982-8.982h-8.982
				c-5.39,0-8.982,3.593-8.982,8.982C111.281,363.688,114.874,367.281,120.263,367.281z"/>
			<path d="M228.053,394.228h-26.947c-5.39,0-8.982,3.593-8.982,8.982s3.593,8.982,8.982,8.982h26.947
				c5.389,0,8.982-3.593,8.982-8.982S233.442,394.228,228.053,394.228z"/>
			<path d="M165.175,394.228h-44.912c-5.39,0-8.982,3.593-8.982,8.982s3.593,8.982,8.982,8.982h44.912
				c5.39,0,8.982-3.593,8.982-8.982S170.565,394.228,165.175,394.228z"/>
		</g>
	</g>
</g>
<g>
</g>
<g>
</g>
<g>
</g>
<g>
</g>
<g>
</g>
<g>
</g>
<g>
</g>
<g>
</g>
<g>
</g>
<g>
</g>
<g>
</g>
<g>
</g>
<g>
</g>
<g>
</g>
<g>
</g>
</svg>
