<?xml version="1.0" encoding="iso-8859-1"?>
<!-- Generator: Adobe Illustrator 19.0.0, SVG Export Plug-In . SVG Version: 6.00 Build 0)  -->
<svg version="1.1" id="Layer_1" xmlns="http://www.w3.org/2000/svg" xmlns:xlink="http://www.w3.org/1999/xlink" x="0px" y="0px"
	 viewBox="0 0 512 512" style="enable-background:new 0 0 512 512;" xml:space="preserve">
<g transform="translate(1 1)">
	<g>
		<path d="M486.253,269.933C500.76,266.52,511,252.867,511,237.507c0-18.773-15.36-34.133-34.133-34.133H315.049l-7.75-45.589
			c20.197-10.869,33.034-27.975,33.034-47.425c0-33.28-37.547-59.733-85.333-59.733s-85.333,25.6-85.333,59.733
			c0,19.449,12.837,36.556,33.034,47.425l-7.75,45.589H33.133C14.36,203.373-1,218.733-1,237.507
			c0,15.36,10.24,29.013,24.747,32.427L1.56,430.36c-0.853,7.68,0.853,14.507,5.973,20.48c5.12,5.12,11.947,8.533,19.627,8.533
			h91.307c5.12,0,8.533-3.413,8.533-8.533c0-18.773,15.36-34.133,34.133-34.133c1.418,0,2.813,0.098,4.187,0.268
			c0.572,0.259,1.168,0.462,1.786,0.585c0.797,0,0.858,0,1.558,0c15.18,3.454,26.602,17.093,26.602,33.28
			c0,5.12,3.413,8.533,8.533,8.533h102.4c5.12,0,8.533-3.413,8.533-8.533c0-16.014,11.179-29.536,26.117-33.167
			c0.661,0.034,1.343,0.004,2.043-0.113c0.575-0.115,1.132-0.313,1.668-0.57c1.412-0.18,2.847-0.283,4.306-0.283
			c18.773,0,34.133,15.36,34.133,34.133c0,5.12,3.413,8.533,8.533,8.533h91.307c7.68,0,14.507-3.413,19.627-8.533
			c5.12-5.973,6.827-12.8,5.973-20.48L486.253,269.933z M186.733,109.507c0-23.04,31.573-42.667,68.267-42.667
			c36.693,0,68.267,19.627,68.267,42.667c0,23.04-31.573,42.667-68.267,42.667C218.307,152.173,186.733,132.547,186.733,109.507z
			 M218.307,164.973c23.04,7.68,50.347,7.68,72.533,0l6.533,38.4h-85.6L218.307,164.973z M110.787,442.307H27.16
			c-2.56,0-5.12-0.853-6.827-2.56s-1.707-4.267-1.707-6.827l23.04-168.96c0-2.56-0.853-4.267-1.707-6.827
			c-1.707-1.707-4.267-2.56-6.827-2.56c-9.387,0-17.067-7.68-17.067-17.067s7.68-17.067,17.067-17.067H192.05l-30.466,179.21
			c-0.151-0.001-0.299-0.01-0.451-0.01C135.533,399.64,115.053,418.413,110.787,442.307z M298.52,442.307h-87.04
			c-3.282-18.379-16.163-33.718-33.583-39.824L208.87,220.44h91.407l31.021,182.329C314.287,409.06,301.751,424.211,298.52,442.307z
			 M489.667,439.747c-1.707,1.707-4.267,2.56-6.827,2.56h-83.627c-4.267-23.893-24.747-42.667-50.347-42.667
			c-0.151,0-0.3,0.009-0.451,0.01L317.95,220.44h158.916c9.387,0,17.067,7.68,17.067,17.067s-7.68,17.067-17.067,17.067
			c-2.56,0-5.12,0.853-6.827,2.56c-1.707,1.707-1.707,4.267-1.707,6.827l23.04,168.96
			C492.227,435.48,491.373,438.04,489.667,439.747z"/>
	</g>
</g>
<g>
</g>
<g>
</g>
<g>
</g>
<g>
</g>
<g>
</g>
<g>
</g>
<g>
</g>
<g>
</g>
<g>
</g>
<g>
</g>
<g>
</g>
<g>
</g>
<g>
</g>
<g>
</g>
<g>
</g>
</svg>
