<?xml version="1.0" encoding="iso-8859-1"?>
<!-- Generator: Adobe Illustrator 19.0.0, SVG Export Plug-In . SVG Version: 6.00 Build 0)  -->
<svg version="1.1" id="Layer_1" xmlns="http://www.w3.org/2000/svg" xmlns:xlink="http://www.w3.org/1999/xlink" x="0px" y="0px"
	 viewBox="0 0 512 512" style="enable-background:new 0 0 512 512;" xml:space="preserve">
<g transform="translate(1 1)">
	<g>
		<g>
			<path d="M284.533,220.867c18.773,0,34.133-15.36,34.133-34.133c0-18.773-15.36-34.133-34.133-34.133
				c-18.773,0-34.133,15.36-34.133,34.133C250.399,205.507,265.759,220.867,284.533,220.867z M284.533,169.667
				c9.387,0,17.067,7.68,17.067,17.067s-7.68,17.067-17.067,17.067c-9.387,0-17.067-7.68-17.067-17.067
				S275.146,169.667,284.533,169.667z"/>
			<path d="M409.119,452.12l-11.093-40.96c-0.853-1.707-2.56-4.267-4.267-5.12c-2.233-0.744-3.817-1.487-5.883-1.099l-4.074-15.888
				c3.035-1.781,4.694-5.915,3.984-9.466l-43.228-160.441c5.251-9.657,8.241-20.702,8.241-32.413
				c0-28.503-17.712-53.058-42.667-63.239V101.4h8.533c5.12,0,8.533-3.413,8.533-8.533v-51.2C327.199,17.773,308.426-1,284.533-1
				c-23.893,0-42.667,18.773-42.667,42.667v51.2c0,5.12,3.413,8.533,8.533,8.533h8.533v22.094
				c-24.955,10.182-42.667,34.736-42.667,63.239c0,11.002,2.654,21.407,7.328,30.636l-59.381,163.924
				c-1.532,4.177-2.963,8.379-4.309,12.602l-7.764-2.773l6.099-15.803c0.853-2.56,0.853-5.12,0-6.827s-3.413-3.413-5.12-4.267
				l-23.893-8.533c-4.267-1.707-9.387,0.853-11.093,5.12l-17.92,47.787c-1.707,4.267,0.853,9.387,5.12,11.093l23.893,8.533
				c0.853,0.853,1.707,0.853,2.56,0.853s2.56,0,3.413,0c1.707-0.853,3.413-3.413,4.267-5.12l6.451-16.713l9.201,3.286
				c-4.18,16.375-6.907,33.081-7.972,50.12l-1.707,22.187c0,3.413,2.56,6.827,5.973,8.533l0.237,0.087l-2.797,7.593
				c-1.707,4.267,0.853,9.387,5.12,11.093c0.853,0.853,1.707,0.853,2.56,0.853c3.413,0,6.827-2.56,7.68-5.12l3.176-8.621
				l0.237,0.087c0.853,0.853,1.707,0.853,2.56,0.853c2.56,0,5.12-1.707,6.827-4.267l12.8-18.773
				c16.213-22.187,29.013-46.08,38.4-71.68l9.387-26.453c0.853-2.56,0.853-5.12-0.853-7.68c-5.973-8.533-6.827-19.627-3.413-29.867
				c3.413-9.387,11.947-17.067,22.187-20.48c2.56-0.853,4.267-2.56,5.12-5.12l22.481-58.916c0.443,0.009,0.883,0.033,1.328,0.034
				l24.972,91.917l-7.576,2.09l-4.511-16.352c-0.853-1.707-2.56-4.267-4.267-5.12c-2.56-0.853-4.267-1.707-6.827-0.853
				l-24.747,6.827c-4.267,0.853-6.827,5.973-5.973,10.24l13.653,49.493c1.707,3.413,5.12,5.973,8.533,5.973c0,0,0.853,0,2.56,0.853
				l24.747-6.827c1.707-0.853,4.267-1.707,5.12-4.267s1.707-4.267,0.853-6.827l-4.684-16.981l7.514-2.073l9.117,33.56
				c1.707,3.413,5.12,5.973,8.533,5.973c0.853,0,1.707-0.853,0.853,0.853l1.451-0.4l4.017,15.664l-0.347,0.096
				c-4.267,0.853-6.827,5.973-5.973,10.24l11.093,40.96c4.267,15.36,17.92,25.6,33.28,25.6c0.029,0,0.06-0.003,0.089-0.003
				l2.471,9.39c1.707,3.413,5.12,5.973,8.533,5.973c0.853,0,1.707,0,1.707,0c4.267-0.853,6.827-5.973,5.973-10.24l-2.555-9.71
				c5.688-3.123,10.563-7.776,13.648-13.33C409.973,470.04,411.679,460.653,409.119,452.12z M126.666,409.453l-7.68-2.56
				l11.093-32.427l8.533,2.56L126.666,409.453z M282.826,380.44l-8.533-33.28l8.533-2.56l4.141,16.148
				c0.027,0.309,0.066,0.616,0.126,0.919c0.065,0.131,0.138,0.258,0.208,0.386l4.058,15.827L282.826,380.44z M333.173,234.52
				l37.547,139.947L337.439,383l-34.952-130.429c1.981-0.544,3.929-1.167,5.835-1.881c2.932-1.062,5.831-2.391,8.651-3.945
				c0.088-0.048,0.173-0.101,0.261-0.149c0.616-0.343,1.228-0.695,1.836-1.059c4.462-2.638,8.597-5.768,12.339-9.315
				c0.169-0.158,0.334-0.319,0.501-0.478c0.334-0.323,0.673-0.64,1-0.97C332.997,234.689,333.087,234.606,333.173,234.52z
				 M258.933,41.667c0-14.507,11.093-25.6,25.6-25.6c14.507,0,25.6,11.093,25.6,25.6v42.667h-8.533h-34.133h-8.533V41.667z
				 M275.999,101.4h17.067v17.623c-0.908-0.115-1.819-0.213-2.737-0.291c-1.973-0.259-4.076-0.265-5.796-0.265
				c-1.72,0-3.823,0.006-5.796,0.265c-0.918,0.078-1.83,0.176-2.737,0.291V101.4z M267.701,138.406
				c0.775,0.031,1.55-0.055,2.325-0.313c9.387-2.56,19.627-2.56,29.013,0c0.468,0,0.936,0,1.405,0
				c20.43,6.733,35.289,26.03,35.289,48.64c0,8.782-2.242,17.065-6.18,24.308c-0.582,0.61-1.091,1.327-1.5,2.146
				c-1.208,2.148-2.603,4.199-4.129,6.157c-9.411,11.337-23.595,18.589-39.391,18.589c-1.025,0-2.041-0.039-3.051-0.1
				c-0.906-0.479-1.912-0.754-2.922-0.754c-14.738-1.638-28.675-10.357-37.318-23.12c-4.998-7.901-7.908-17.237-7.908-27.226
				C233.333,164.464,247.747,145.409,267.701,138.406z M246.986,304.493c-13.653,5.12-23.893,16.213-29.013,29.867
				c-4.267,13.653-3.413,29.013,3.413,41.813l-8.533,23.04c-8.533,23.893-20.48,46.933-35.84,67.413l-9.387,12.8l-4.267-1.707
				l0.853-15.36c1.707-25.6,7.68-51.2,16.213-75.093l55.467-152.747c0.086,0.086,0.174,0.167,0.26,0.252
				c0.334,0.337,0.681,0.66,1.022,0.99c0.153,0.145,0.304,0.292,0.457,0.436c8.053,7.642,17.947,13.351,28.933,16.369
				L246.986,304.493z M366.655,394.008l4.065,15.445l-16.213,4.267l-4.014-15.253L366.655,394.008z M390.346,470.04
				c-2.56,3.413-5.973,6.827-10.24,7.68c-9.387,2.56-18.773-2.56-21.333-11.947l-8.408-32.791c0.243,0.026,0.485,0.122,0.728,0.364
				l32.685-8.381l8.275,32.274C392.906,461.507,392.906,465.773,390.346,470.04z"/>
		</g>
	</g>
</g>
<g>
</g>
<g>
</g>
<g>
</g>
<g>
</g>
<g>
</g>
<g>
</g>
<g>
</g>
<g>
</g>
<g>
</g>
<g>
</g>
<g>
</g>
<g>
</g>
<g>
</g>
<g>
</g>
<g>
</g>
</svg>
