<?xml version="1.0" encoding="iso-8859-1"?>
<!-- Generator: Adobe Illustrator 19.0.0, SVG Export Plug-In . SVG Version: 6.00 Build 0)  -->
<svg version="1.1" id="Layer_1" xmlns="http://www.w3.org/2000/svg" xmlns:xlink="http://www.w3.org/1999/xlink" x="0px" y="0px"
	 viewBox="0 0 512.968 512.968" style="enable-background:new 0 0 512.968 512.968;" xml:space="preserve">
<g transform="translate(1 1)">
	<g>
		<g>
			<path d="M511.32,73.767c-2.56-15.36-11.093-28.16-24.747-34.987l-50.347-27.307C396.973-9.86,348.333-2.18,316.76,29.394
				L80.387,265.767c-10.24,9.387-14.507,23.04-12.8,36.693c1.117,8.934,4.805,17.125,10.559,23.642L1.88,403.154
				c-2.56,2.56-3.413,5.973-2.56,8.533l25.6,93.867c0.853,2.56,3.413,5.12,5.973,5.973c0.853,0,1.707,0,2.56,0
				c2.56,0,4.267-0.853,5.973-2.56l126.75-127.568l6.37,3.835c7.68,4.267,17.067,6.827,25.6,6.827c12.8,0,25.6-5.12,35.84-14.507
				l263.68-263.68C508.76,103.634,513.88,89.127,511.32,73.767z M37.72,486.78l-20.48-75.093l74.876-74.876l60.187,36.235
				L37.72,486.78z M485.72,101.927L221.187,366.46c-10.24,11.093-27.307,12.8-40.107,5.12l-7.615-4.585
				c-0.708-1.518-1.66-2.737-3.478-3.949L94.893,317.82c-0.698-0.349-1.433-0.586-2.181-0.728c-4.37-4.484-7.418-9.93-8.059-16.339
				c-0.853-8.533,1.707-17.067,7.68-23.04L328.707,41.34c16.213-16.213,38.4-24.747,59.733-24.747
				c13.653,0,27.307,3.413,40.107,10.24l50.347,27.307c8.533,4.267,13.653,12.8,15.36,22.187S492.547,95.1,485.72,101.927z"/>
			<path d="M445.613,87.42l-128,128c-3.413,3.413-3.413,8.533,0,11.947c1.707,1.707,3.413,2.56,5.973,2.56s4.267-0.853,5.973-2.56
				l128-128c3.413-3.413,3.413-8.533,0-11.947C454.147,84.007,449.027,84.007,445.613,87.42z"/>
		</g>
	</g>
</g>
<g>
</g>
<g>
</g>
<g>
</g>
<g>
</g>
<g>
</g>
<g>
</g>
<g>
</g>
<g>
</g>
<g>
</g>
<g>
</g>
<g>
</g>
<g>
</g>
<g>
</g>
<g>
</g>
<g>
</g>
</svg>
