<?xml version="1.0" encoding="iso-8859-1"?>
<!-- Generator: Adobe Illustrator 19.0.0, SVG Export Plug-In . SVG Version: 6.00 Build 0)  -->
<svg version="1.1" id="Layer_1" xmlns="http://www.w3.org/2000/svg" xmlns:xlink="http://www.w3.org/1999/xlink" x="0px" y="0px"
	 viewBox="0 0 512 512" style="enable-background:new 0 0 512 512;" xml:space="preserve">
<g transform="translate(1 1)">
	<g>
		<path d="M434.2,178.2h-34.133c-5.12,0-8.533,3.413-8.533,8.533v34.133c0,5.12,3.413,8.533,8.533,8.533h8.533v42.667
			c0,7.027-4.305,13.096-10.408,15.704c-3.747-9.362-12.759-15.704-23.726-15.704h-16.401L373.613,52.76
			c0.853-7.68-1.707-13.653-6.827-19.627c-5.12-5.973-11.947-8.533-18.773-8.533h-24.747c0-14.507-11.093-25.6-25.6-25.6h-85.333
			c-14.507,0-25.6,11.093-25.6,25.6H170.52c-6.827,0-13.653,3.413-18.773,8.533c-4.267,5.12-6.827,11.947-6.827,18.773l15.55,220.16
			h-24.937c-10.967,0-19.979,6.342-23.726,15.704c-6.102-2.608-10.408-8.677-10.408-15.704V229.4h8.533
			c5.12,0,8.533-3.413,8.533-8.533v-34.133c0-5.12-3.413-8.533-8.533-8.533H75.8c-5.12,0-8.533,3.413-8.533,8.533v34.133
			c0,5.12,3.413,8.533,8.533,8.533h8.533v42.667c0,15.83,10.921,29.232,25.6,33.046V331.8c0,5.12,3.413,8.533,8.533,8.533H229.4
			v25.6h17.067V383H229.4v9.912l-104.96,24.222c-4.267,0.853-6.827,5.973-5.973,10.24v7.064
			C99.17,436.536,84.333,452.71,84.333,472.6c0,21.333,17.067,38.4,38.4,38.4s38.4-17.067,38.4-38.4
			c0-16.836-10.633-31.006-25.6-36.236v-3.739l93.867-21.661v2.757l-20.501,20.501c-0.278-0.006-0.553-0.021-0.833-0.021
			c-21.333,0-38.4,17.067-38.4,38.4c0,21.333,17.067,38.4,38.4,38.4c21.333,0,38.4-17.067,38.4-38.4
			c0-14.198-7.565-26.498-18.91-33.143l13.79-13.79h27.307l13.79,13.79c-11.345,6.645-18.91,18.945-18.91,33.143
			c0,21.333,17.067,38.4,38.4,38.4s38.4-17.067,38.4-38.4c0-21.333-17.067-38.4-38.4-38.4c-0.279,0-0.555,0.015-0.833,0.021
			L280.6,413.72v-2.757l93.867,21.661v3.739c-14.967,5.23-25.6,19.4-25.6,36.236c0,21.333,17.067,38.4,38.4,38.4
			c21.333,0,38.4-17.067,38.4-38.4c0-19.89-14.837-36.064-34.133-38.163v-7.064c0.22-1.098,0.153-2.252-0.135-3.376
			c-0.484-3.036-2.302-5.282-5.004-6.283c-0.542-0.262-1.106-0.464-1.688-0.581L280.6,393.109V383h-17.067v-17.067H280.6v-25.6
			h110.933c5.12,0,8.533-3.413,8.533-8.533v-26.688c14.679-3.814,25.6-17.216,25.6-33.046V229.4h8.533
			c5.12,0,8.533-3.413,8.533-8.533v-34.133C442.733,181.613,439.32,178.2,434.2,178.2z M84.333,195.267H101.4v17.067H84.333V195.267
			z M144.067,472.6c0,11.947-9.387,21.333-21.333,21.333S101.4,484.547,101.4,472.6c0-11.947,9.387-21.333,21.333-21.333
			S144.067,460.653,144.067,472.6z M208.067,493.933c-11.947,0-21.333-9.387-21.333-21.333c0-11.947,9.387-21.333,21.333-21.333
			S229.4,460.653,229.4,472.6C229.4,484.547,220.013,493.933,208.067,493.933z M323.267,472.6c0,11.947-9.387,21.333-21.333,21.333
			S280.6,484.547,280.6,472.6c0-11.947,9.387-21.333,21.333-21.333S323.267,460.653,323.267,472.6z M408.6,472.6
			c0,11.947-9.387,21.333-21.333,21.333c-11.947,0-21.333-9.387-21.333-21.333c0-11.947,9.387-21.333,21.333-21.333
			C399.213,451.267,408.6,460.653,408.6,472.6z M246.467,400.067h16.947c0.016,0.34,0.06,0.681,0.12,1.021v7.512h-17.067V400.067z
			 M203.8,24.6c0-5.12,3.413-8.533,8.533-8.533h85.333c5.12,0,8.533,3.413,8.533,8.533v8.533v51.2c0,5.12-3.413,8.533-8.533,8.533
			h-85.333c-5.12,0-8.533-3.413-8.533-8.533v-51.2V24.6z M161.987,51.053c0-2.56,0.853-5.12,2.56-6.827s3.413-2.56,5.973-2.56
			h16.213v42.667c0,11.491,6.963,20.833,17.067,24.224V229.4c0,5.12,3.413,8.533,8.533,8.533c5.12,0,8.533-3.413,8.533-8.533
			V109.933h25.6V229.4c0,5.12,3.413,8.533,8.533,8.533s8.533-3.413,8.533-8.533V109.933h25.6V229.4c0,5.12,3.413,8.533,8.533,8.533
			s8.533-3.413,8.533-8.533V108.557c10.103-3.391,17.067-12.734,17.067-24.224V41.667h24.747c1.707,0,4.267,0.853,5.12,2.56
			c1.707,2.56,2.56,4.267,2.56,6.827l-15.36,221.013H177.347L161.987,51.053z M263.533,348.867h-17.067v-8.533h17.067V348.867z
			 M383,323.267H280.6h-51.2H127v-25.6c0-5.12,3.413-8.533,8.533-8.533h34.133h179.2h25.6c5.12,0,8.533,3.413,8.533,8.533V323.267z
			 M425.667,212.333H408.6v-17.067h17.067V212.333z"/>
	</g>
</g>
<g>
</g>
<g>
</g>
<g>
</g>
<g>
</g>
<g>
</g>
<g>
</g>
<g>
</g>
<g>
</g>
<g>
</g>
<g>
</g>
<g>
</g>
<g>
</g>
<g>
</g>
<g>
</g>
<g>
</g>
</svg>
