<?xml version="1.0" encoding="iso-8859-1"?>
<!-- Generator: Adobe Illustrator 19.0.0, SVG Export Plug-In . SVG Version: 6.00 Build 0)  -->
<svg version="1.1" id="Layer_1" xmlns="http://www.w3.org/2000/svg" xmlns:xlink="http://www.w3.org/1999/xlink" x="0px" y="0px"
	 viewBox="0 0 512 512" style="enable-background:new 0 0 512 512;" xml:space="preserve">
<g transform="translate(1 1)">
	<g>
		<g>
			<path d="M502.467,203.8H470.04l0.511-3.065l18.262-6.322c4.267-1.707,6.827-6.827,5.12-11.093
				c-1.707-4.267-6.827-6.827-11.093-5.12l-9.056,3.135l3.082-18.495c0.853-2.56,0-5.12-1.707-6.827
				c-1.707-2.56-4.267-3.413-6.827-3.413h-51.2c-2.56,0-5.12,1.707-6.827,3.413s-1.707,4.267-1.707,6.827l6.827,40.96h-110.08
				v-5.973c0-11.093-8.533-19.627-19.627-19.627h-5.12v-8.533h85.333c9.387,0,17.067-7.68,17.067-17.067V127V16.067
				C383,6.68,375.32-1,365.933-1H144.067C134.68-1,127,6.68,127,16.067V127v25.6c0,9.387,7.68,17.067,17.067,17.067H229.4v8.533
				h-5.973c-11.093,0-19.627,8.533-19.627,19.627v5.973H100.547v-5.973c0-11.093-8.533-19.627-19.627-19.627H67.267v-42.667H101.4
				c2.56,0,5.12-0.853,6.827-3.413c1.707-1.707,2.56-4.267,1.707-6.827L92.867,39.96c-0.853-4.267-4.267-6.827-8.533-6.827h-51.2
				c-4.267,0-7.68,2.56-8.533,6.827L7.533,125.293c0,2.56,0,5.12,1.707,6.827c1.707,2.56,4.267,3.413,6.827,3.413H50.2V178.2H35.693
				c-11.093,0-19.627,8.533-19.627,19.627v5.973H7.533c-5.12,0-8.533,3.413-8.533,8.533v34.133c0,5.12,3.413,8.533,8.533,8.533
				h8.533v247.467c0,5.12,3.413,8.533,8.533,8.533h153.6c5.12,0,8.533-3.413,8.533-8.533V255h136.533v247.467
				c0,5.12,3.413,8.533,8.533,8.533h153.6c5.12,0,8.533-3.413,8.533-8.533V255h8.533c5.12,0,8.533-3.413,8.533-8.533v-34.133
				C511,207.213,507.587,203.8,502.467,203.8z M39.96,50.2h37.547l13.653,68.267H26.307L39.96,50.2z M427.373,169.667h30.72
				L452.12,203.8h-19.627L427.373,169.667z M365.933,16.067v102.4H144.067v-102.4H365.933z M144.067,135.533h221.867V152.6h-93.867
				h-34.133h-93.867V135.533z M246.467,169.667h17.067v8.533h-17.067V169.667z M221.72,197.827c0-1.707,0.853-2.56,2.56-2.56h13.653
				h34.133h14.507c1.707,0,2.56,0.853,2.56,2.56v5.973H221.72V197.827z M33.133,197.827c0-1.707,0.853-2.56,2.56-2.56h46.08
				c1.707,0,2.56,0.853,2.56,2.56v5.973h-51.2V197.827z M169.667,493.933H33.133V255h136.533V493.933z M476.867,493.933H340.333V255
				h136.533V493.933z M493.933,237.933H485.4H331.8H178.2H24.6h-8.533v-17.067H24.6h68.267h119.467h85.333h128H459.8h34.133V237.933
				z"/>
			<path d="M161.133,58.733c2.56,0,4.267-0.853,5.973-2.56l17.067-17.067c3.413-3.413,3.413-8.533,0-11.947s-8.533-3.413-11.947,0
				L155.16,44.227c-3.413,3.413-3.413,8.533,0,11.947C156.867,57.88,158.573,58.733,161.133,58.733z"/>
			<path d="M163.693,90.307c1.707,1.707,3.413,2.56,5.973,2.56s4.267-0.853,5.973-2.56l42.667-42.667
				c3.413-3.413,3.413-8.533,0-11.947s-8.533-3.413-11.947,0L163.693,78.36C160.28,81.773,160.28,86.893,163.693,90.307z"/>
			<path d="M50.2,348.867h102.4c5.12,0,8.533-3.413,8.533-8.533v-68.267c0-5.12-3.413-8.533-8.533-8.533H50.2
				c-5.12,0-8.533,3.413-8.533,8.533v68.267C41.667,345.453,45.08,348.867,50.2,348.867z M58.733,280.6h85.333v51.2H58.733V280.6z"
				/>
			<path d="M50.2,476.867h102.4c5.12,0,8.533-3.413,8.533-8.533v-93.867c0-5.12-3.413-8.533-8.533-8.533H50.2
				c-5.12,0-8.533,3.413-8.533,8.533v93.867C41.667,473.453,45.08,476.867,50.2,476.867z M58.733,383h85.333v76.8H58.733V383z"/>
			<path d="M109.933,297.667H92.867c-5.12,0-8.533,3.413-8.533,8.533s3.413,8.533,8.533,8.533h17.067
				c5.12,0,8.533-3.413,8.533-8.533S115.053,297.667,109.933,297.667z"/>
			<path d="M109.933,400.067H92.867c-5.12,0-8.533,3.413-8.533,8.533s3.413,8.533,8.533,8.533h17.067
				c5.12,0,8.533-3.413,8.533-8.533S115.053,400.067,109.933,400.067z"/>
			<path d="M357.4,348.867h102.4c5.12,0,8.533-3.413,8.533-8.533v-68.267c0-5.12-3.413-8.533-8.533-8.533H357.4
				c-5.12,0-8.533,3.413-8.533,8.533v68.267C348.867,345.453,352.28,348.867,357.4,348.867z M365.933,280.6h85.333v51.2h-85.333
				V280.6z"/>
			<path d="M357.4,476.867h102.4c5.12,0,8.533-3.413,8.533-8.533v-93.867c0-5.12-3.413-8.533-8.533-8.533H357.4
				c-5.12,0-8.533,3.413-8.533,8.533v93.867C348.867,473.453,352.28,476.867,357.4,476.867z M365.933,383h85.333v76.8h-85.333V383z"
				/>
			<path d="M417.133,297.667h-17.067c-5.12,0-8.533,3.413-8.533,8.533s3.413,8.533,8.533,8.533h17.067
				c5.12,0,8.533-3.413,8.533-8.533S422.253,297.667,417.133,297.667z"/>
			<path d="M417.133,400.067h-17.067c-5.12,0-8.533,3.413-8.533,8.533s3.413,8.533,8.533,8.533h17.067
				c5.12,0,8.533-3.413,8.533-8.533S422.253,400.067,417.133,400.067z"/>
		</g>
	</g>
</g>
<g>
</g>
<g>
</g>
<g>
</g>
<g>
</g>
<g>
</g>
<g>
</g>
<g>
</g>
<g>
</g>
<g>
</g>
<g>
</g>
<g>
</g>
<g>
</g>
<g>
</g>
<g>
</g>
<g>
</g>
</svg>
