<?xml version="1.0" encoding="iso-8859-1"?>
<!-- Generator: Adobe Illustrator 19.0.0, SVG Export Plug-In . SVG Version: 6.00 Build 0)  -->
<svg version="1.1" id="Layer_1" xmlns="http://www.w3.org/2000/svg" xmlns:xlink="http://www.w3.org/1999/xlink" x="0px" y="0px"
	 viewBox="0 0 512 512" style="enable-background:new 0 0 512 512;" xml:space="preserve">
<g transform="translate(1 1)">
	<g>
		<g>
			<path d="M400.067,297.667h17.067c5.12,0,8.533-3.413,8.533-8.533s-3.413-8.533-8.533-8.533h-17.067
				c-5.12,0-8.533,3.413-8.533,8.533S394.947,297.667,400.067,297.667z"/>
			<path d="M400.067,383h17.067c5.12,0,8.533-3.413,8.533-8.533s-3.413-8.533-8.533-8.533h-17.067c-5.12,0-8.533,3.413-8.533,8.533
				S394.947,383,400.067,383z"/>
			<path d="M400.067,468.333h17.067c5.12,0,8.533-3.413,8.533-8.533c0-5.12-3.413-8.533-8.533-8.533h-17.067
				c-5.12,0-8.533,3.413-8.533,8.533C391.533,464.92,394.947,468.333,400.067,468.333z"/>
			<path d="M502.467,203.8h-77.653v-5.973c0-11.093-8.533-19.627-19.627-19.627h-5.12v-8.533H485.4
				c9.387,0,17.067-7.68,17.92-17.067V16.067C503.32,6.68,495.64-1,486.253-1H264.387C255-1,247.32,6.68,247.32,16.067v68.267
				H137.24c-15.36,0-30.72,6.827-40.107,18.773c-10.24,11.093-14.507,26.453-12.8,41.813l7.597,58.88H7.533
				c-5.12,0-8.533,3.413-8.533,8.533v34.133c0,5.12,3.413,8.533,8.533,8.533h8.533v247.467c0,5.12,3.413,8.533,8.533,8.533h34.133
				c5.12,0,8.533-3.413,8.533-8.533V255h31.437c5.158,25.059,27.138,42.667,52.19,42.667h35.84v17.067h-42.667
				c-23.893,0-42.667,18.773-42.667,42.667c0,5.12,3.413,8.533,8.533,8.533h76.8v51.2c-14.507,0-25.6,11.093-25.6,25.6V459.8H127
				c-5.12,0-8.533,3.413-8.533,8.533v25.6c0,5.12,3.413,8.533,8.533,8.533h8.533c0,5.12,3.413,8.533,8.533,8.533
				c5.12,0,8.533-3.413,8.533-8.533h85.333c0,5.12,3.413,8.533,8.533,8.533s8.533-3.413,8.533-8.533h8.533
				c5.12,0,8.533-3.413,8.533-8.533v-25.6c0-5.12-3.413-8.533-8.533-8.533H229.4v-17.067c0-14.507-11.093-25.6-25.6-25.6v-51.2h76.8
				c5.12,0,8.533-3.413,8.533-8.533c0-23.893-18.773-42.667-42.667-42.667H203.8v-17.067h37.547
				c25.052,0,47.032-17.608,52.19-42.667h29.73v76.8v85.333v85.333c0,5.12,3.413,8.533,8.533,8.533h153.6
				c5.12,0,8.533-3.413,8.533-8.533v-85.333V331.8V255h8.533c5.12,0,8.533-3.413,8.533-8.533v-34.133
				C511,207.213,507.587,203.8,502.467,203.8z M255,485.4H135.533v-8.533h34.133h51.2H255V485.4z M212.333,442.733V459.8H178.2
				v-17.067c0-5.12,4.267-8.533,8.533-8.533H203.8C208.92,434.2,212.333,438.467,212.333,442.733z M120.173,348.867
				c3.413-10.24,12.8-17.067,23.893-17.067h42.667v17.067H120.173z M247.32,331.8c11.093,0,20.48,6.827,23.893,17.067H203.8V331.8
				H247.32z M300.261,203.8l4.369-34.133h44.237v8.533h-5.973c-11.093,0-19.627,8.533-19.627,19.627v5.973H300.261z M406.04,195.267
				c1.707,0,2.56,0.853,2.56,2.56v5.973h-67.413v-5.973c0-1.707,0.853-2.56,2.56-2.56H357.4h34.133H406.04z M383,178.2h-17.067
				v-8.533H383V178.2z M391.533,152.6H357.4h-50.347l1.707-7.68c0-3.413,0-5.973,0-9.387H485.4V152.6H391.533z M485.4,16.067
				v101.547H304.519c-2.185-5.647-5.311-10.917-9.412-15.36c-4.118-4.462-8.935-8.218-14.212-11.133
				c-0.326-0.186-0.656-0.362-0.985-0.54c-0.19-0.1-0.378-0.204-0.569-0.302c-2.383-1.245-4.844-2.287-7.368-3.116
				c-2.742-0.93-5.561-1.648-8.438-2.125V16.067H485.4z M50.2,493.933H33.133V255H50.2V493.933z M58.733,237.933H24.6h-8.533
				v-17.067H93.72l2.56,17.067H58.733z M241.347,280.6h-90.453c-17.92,0-33.28-13.653-35.84-31.573L101.4,142.36
				c-1.707-11.093,1.707-21.333,8.533-29.013S127,101.4,137.24,101.4H255c10.24,0,20.48,4.267,27.307,11.947
				c6.827,8.533,10.24,18.773,8.533,29.013l-13.653,106.667C274.627,266.947,259.267,280.6,241.347,280.6z M476.867,408.6H340.333
				v-68.267h136.533V408.6z M476.867,493.933H340.333v-68.267h136.533V493.933z M476.867,323.267H340.333V255h136.533V323.267z
				 M493.933,237.933H485.4H331.8h-35.84l2.56-17.067h33.28h85.333h76.8V237.933z"/>
			<path d="M280.6,58.733c2.56,0,4.267-0.853,5.973-2.56l17.067-17.067c3.413-3.413,3.413-8.533,0-11.947s-8.533-3.413-11.947,0
				l-17.067,17.067c-3.413,3.413-3.413,8.533,0,11.947C276.333,57.88,278.04,58.733,280.6,58.733z"/>
			<path d="M291.693,81.773c1.707,1.707,3.413,2.56,5.973,2.56s4.267-0.853,5.973-2.56l34.133-34.133
				c3.413-3.413,3.413-8.533,0-11.947c-3.413-3.413-8.533-3.413-11.947,0l-34.133,34.133C288.28,73.24,288.28,78.36,291.693,81.773z
				"/>
		</g>
	</g>
</g>
<g>
</g>
<g>
</g>
<g>
</g>
<g>
</g>
<g>
</g>
<g>
</g>
<g>
</g>
<g>
</g>
<g>
</g>
<g>
</g>
<g>
</g>
<g>
</g>
<g>
</g>
<g>
</g>
<g>
</g>
</svg>
