<?xml version="1.0" encoding="iso-8859-1"?>
<!-- Generator: Adobe Illustrator 19.0.0, SVG Export Plug-In . SVG Version: 6.00 Build 0)  -->
<svg version="1.1" id="Layer_1" xmlns="http://www.w3.org/2000/svg" xmlns:xlink="http://www.w3.org/1999/xlink" x="0px" y="0px"
	 viewBox="0 0 512 512" style="enable-background:new 0 0 512 512;" xml:space="preserve">
<g transform="translate(1 1)">
	<g>
		<path d="M434.2,161.133h-34.133c-5.12,0-8.533,3.413-8.533,8.533V203.8c0,5.12,3.413,8.533,8.533,8.533h8.533V255
			c0,8.362-6.1,15.354-14.066,16.784C386.917,261.058,372.608,255,359.107,255h-95.573v-17.067h53.76
			c12.8,0,24.747-5.12,34.133-14.507c8.533-9.387,13.653-22.187,12.8-34.987l-5.12-144.213C357.4,18.627,336.92-1,311.32-1H198.68
			c-25.6,0-46.933,19.627-47.787,45.227l-5.12,144.213c-0.853,13.653,3.413,25.6,12.8,34.987
			c8.533,9.387,21.333,14.507,34.133,14.507h53.76V255H152.6c-14.832,0-29.655,5.78-37.318,16.756
			c-7.877-1.504-13.882-8.458-13.882-16.756v-42.667h8.533c5.12,0,8.533-3.413,8.533-8.533v-34.133c0-5.12-3.413-8.533-8.533-8.533
			H75.8c-5.12,0-8.533,3.413-8.533,8.533V203.8c0,5.12,3.413,8.533,8.533,8.533h8.533V255c0,15.841,10.937,29.252,25.633,33.055
			c-0.011,0.359-0.033,0.714-0.033,1.079c0,38.06,77.199,47.86,119.467,50.357v26.443h17.067V383H229.4v9.912l-104.96,24.222
			c-4.267,0.853-6.827,5.973-5.973,10.24v7.064C99.17,436.536,84.333,452.71,84.333,472.6c0,21.333,17.067,38.4,38.4,38.4
			s38.4-17.067,38.4-38.4c0-16.836-10.633-31.006-25.6-36.236v-3.739l93.867-21.661v2.757l-20.501,20.501
			c-0.278-0.006-0.553-0.021-0.833-0.021c-21.333,0-38.4,17.067-38.4,38.4c0,21.333,17.067,38.4,38.4,38.4
			c21.333,0,38.4-17.067,38.4-38.4c0-14.198-7.565-26.498-18.91-33.143l13.79-13.79h27.307l13.79,13.79
			c-11.345,6.645-18.91,18.945-18.91,33.143c0,21.333,17.067,38.4,38.4,38.4s38.4-17.067,38.4-38.4c0-21.333-17.067-38.4-38.4-38.4
			c-0.279,0-0.555,0.015-0.833,0.021L280.6,413.72v-2.757l93.867,21.661v3.739c-14.967,5.23-25.6,19.4-25.6,36.236
			c0,21.333,17.067,38.4,38.4,38.4c21.333,0,38.4-17.067,38.4-38.4c0-19.89-14.837-36.064-34.133-38.163v-7.064
			c0.22-1.098,0.153-2.252-0.135-3.376c-0.484-3.036-2.302-5.282-5.004-6.283c-0.542-0.262-1.106-0.464-1.688-0.581L280.6,393.109
			V383h-17.067v-17.067H280.6v-26.443c42.267-2.497,119.467-12.297,119.467-50.357c0-0.364-0.021-0.719-0.034-1.078
			c14.696-3.802,25.634-17.213,25.634-33.055v-42.667h8.533c5.12,0,8.533-3.413,8.533-8.533v-34.133
			C442.733,164.547,439.32,161.133,434.2,161.133z M193.56,220.867c-8.533,0-16.213-3.413-22.187-9.387
			c-5.973-5.973-8.533-13.653-8.533-22.187l5.12-144.213c0.853-16.213,14.507-29.013,30.72-29.013h112.64
			c16.213,0,29.867,12.8,30.72,29.013l5.973,144.213c0,8.533-2.56,16.213-8.533,22.187c-5.973,5.973-13.653,9.387-22.187,9.387
			H193.56z M84.333,178.2H101.4v17.067H84.333V178.2z M144.067,472.6c0,11.947-9.387,21.333-21.333,21.333
			S101.4,484.547,101.4,472.6c0-11.947,9.387-21.333,21.333-21.333S144.067,460.653,144.067,472.6z M208.067,493.933
			c-11.947,0-21.333-9.387-21.333-21.333c0-11.947,9.387-21.333,21.333-21.333S229.4,460.653,229.4,472.6
			C229.4,484.547,220.013,493.933,208.067,493.933z M323.267,472.6c0,11.947-9.387,21.333-21.333,21.333S280.6,484.547,280.6,472.6
			c0-11.947,9.387-21.333,21.333-21.333S323.267,460.653,323.267,472.6z M408.6,472.6c0,11.947-9.387,21.333-21.333,21.333
			c-11.947,0-21.333-9.387-21.333-21.333c0-11.947,9.387-21.333,21.333-21.333C399.213,451.267,408.6,460.653,408.6,472.6z
			 M246.467,400.067h16.947c0.016,0.34,0.06,0.681,0.12,1.021v7.512h-17.067V400.067z M263.533,340.333v8.533h-17.067v-8.533
			H263.533z M255,323.267c-61.44,0-128-13.653-128-34.133c0-11.093,12.8-17.067,25.6-17.067h206.507
			c10.24,0,23.893,5.973,23.893,17.067C383,309.613,316.44,323.267,255,323.267z M425.667,195.267H408.6V178.2h17.067V195.267z"/>
	</g>
</g>
<g>
</g>
<g>
</g>
<g>
</g>
<g>
</g>
<g>
</g>
<g>
</g>
<g>
</g>
<g>
</g>
<g>
</g>
<g>
</g>
<g>
</g>
<g>
</g>
<g>
</g>
<g>
</g>
<g>
</g>
</svg>
