<?xml version="1.0" encoding="iso-8859-1"?>
<!-- Generator: Adobe Illustrator 19.0.0, SVG Export Plug-In . SVG Version: 6.00 Build 0)  -->
<svg version="1.1" id="Layer_1" xmlns="http://www.w3.org/2000/svg" xmlns:xlink="http://www.w3.org/1999/xlink" x="0px" y="0px"
	 viewBox="0 0 512 512" style="enable-background:new 0 0 512 512;" xml:space="preserve">
<g transform="translate(1 1)">
	<g>
		<g>
			<path d="M462.698,182.547c-2.212,0-4.381,0.156-6.507,0.432L304.772,38.992C297.767,21.073,280.497,8.66,259.83,8.66H47.302
				C20.253,8.66-1,29.913-1,56.962c0,27.049,21.253,48.302,48.302,48.302H259.83c8.54,0,16.499-2.123,23.396-5.873L414.79,224.647
				c-0.25,2.029-0.394,4.095-0.394,6.202c0,2.726,0.226,5.388,0.642,7.981L285.544,366.512c-2.09-0.266-4.22-0.418-6.393-0.418
				c-27.049,0-48.302,21.253-48.302,48.302c0,10.953,3.487,20.955,9.431,28.981h-86.714c-16.423,0-28.981,12.558-28.981,28.981
				c0,16.423,12.558,28.981,28.981,28.981h251.17c16.423,0,28.981-12.558,28.981-28.981c0-16.423-12.558-28.981-28.981-28.981
				h-86.714c5.944-8.026,9.431-18.028,9.431-28.981c0-1.868-0.111-3.705-0.309-5.513l129.232-130.142
				c2.067,0.26,4.174,0.409,6.322,0.409c27.049,0,48.302-21.253,48.302-48.302S489.747,182.547,462.698,182.547z M47.302,85.943
				c-16.423,0-28.981-12.558-28.981-28.981c0-16.423,12.559-28.981,28.981-28.981H259.83c11.91,0,21.782,6.608,26.312,16.501
				c0.055,0.968,0.288,1.92,0.737,2.82c0.966,2.898,1.932,6.762,1.932,9.66c0,8.694-3.864,16.423-10.626,22.219
				c-1.4,0.467-2.342,1.391-2.949,2.542c-4.42,2.688-9.676,4.221-15.406,4.221H47.302z M297.762,87.152
				c3.833-4.841,6.741-10.458,8.487-16.611c0.326-0.983,0.635-1.967,0.917-2.953l129.28,122.526
				c-5.831,3.72-10.771,8.661-14.489,14.493L297.762,87.152z M414.396,472.358c0,5.796-3.864,9.66-9.66,9.66h-251.17
				c-5.796,0-9.66-3.864-9.66-9.66c0-5.796,3.864-9.66,9.66-9.66h251.17C410.532,462.698,414.396,466.562,414.396,472.358z
				 M250.17,414.396c0-16.423,12.558-28.981,28.981-28.981c1.745,0,3.444,0.15,5.092,0.423c0.517,0.204,1.062,0.39,1.671,0.543
				c1.932,0.966,3.864,0.966,4.83,1.932c0,0.966,0.966,0.966,0.966,0.966c1.932,0.966,2.898,1.932,4.83,2.898
				c0.966,0.966,2.898,1.932,3.864,3.864c1.932,1.932,2.898,2.898,3.864,4.83c0.966,2.898,1.932,4.83,2.898,7.728
				c0.186,0.559,0.422,1.114,0.687,1.659c0.18,1.348,0.279,2.727,0.279,4.137c0,16.423-12.558,28.981-28.981,28.981
				S250.17,430.819,250.17,414.396z M319.887,388.148c-0.361-0.566-0.732-1.123-1.116-1.672c-0.726-1.32-1.591-2.639-2.911-3.959
				c-0.17-0.113-0.327-0.239-0.491-0.359c-3.059-3.446-6.612-6.436-10.56-8.873l117.15-116.19
				c3.469,5.44,7.997,10.111,13.324,13.732L319.887,388.148z M462.698,259.83c-0.886,0-1.757-0.044-2.619-0.115
				c-0.99-0.811-2.083-1.452-3.177-1.817c-9.66-1.932-17.389-10.626-20.287-20.287c-0.5-1.5-1.522-2.993-2.789-4.225
				c-0.067-0.835-0.109-1.679-0.109-2.537c0-2.786,0.369-5.457,1.05-7.978c2.956-9.542,10.635-17.164,21.169-20.037
				c0.398-0.133,0.795-0.289,1.189-0.46c1.797-0.328,3.658-0.506,5.574-0.506c16.423,0,28.981,12.558,28.981,28.981
				S479.121,259.83,462.698,259.83z"/>
			<path d="M163.226,192.208v-48.302c0-5.796-3.864-9.66-9.66-9.66s-9.66,3.864-9.66,9.66v48.302c0,5.796,3.864,9.66,9.66,9.66
				S163.226,198.004,163.226,192.208z"/>
			<path d="M69.521,134.245c-4.83-1.932-10.626,0.966-12.558,5.796l-19.321,48.302c-1.932,4.83,0.966,10.626,5.796,12.558
				c1.932,0.966,2.898,0.966,3.864,0.966c3.864,0,7.728-1.932,8.694-6.762l19.321-48.302
				C77.249,141.974,74.351,136.177,69.521,134.245z"/>
			<path d="M250.17,201.868c0.966,0,1.932,0,3.864,0c5.796-1.932,7.728-7.728,5.796-12.558l-19.321-48.302
				c-1.932-5.796-7.728-7.728-12.559-5.796c-5.796,1.932-7.728,7.728-5.796,12.558l19.321,48.302
				C242.442,199.936,246.306,201.868,250.17,201.868z"/>
		</g>
	</g>
</g>
<g>
</g>
<g>
</g>
<g>
</g>
<g>
</g>
<g>
</g>
<g>
</g>
<g>
</g>
<g>
</g>
<g>
</g>
<g>
</g>
<g>
</g>
<g>
</g>
<g>
</g>
<g>
</g>
<g>
</g>
</svg>
