<?xml version="1.0" encoding="iso-8859-1"?>
<!-- Generator: Adobe Illustrator 19.0.0, SVG Export Plug-In . SVG Version: 6.00 Build 0)  -->
<svg version="1.1" id="Layer_1" xmlns="http://www.w3.org/2000/svg" xmlns:xlink="http://www.w3.org/1999/xlink" x="0px" y="0px"
	 viewBox="0 0 512.229 512.229" style="enable-background:new 0 0 512.229 512.229;" xml:space="preserve">
<g transform="translate(1 1)">
	<g>
		<path d="M431.114,209.514c-2.377,0-4.706,0.175-6.977,0.51L274.026,67.722c4.873-18.478,0.255-38.813-13.883-52.951
			c-21.943-21.029-56.686-21.029-77.714,0l-40.714,41.562c-7.009-1.489-14.198-2.248-21.457-2.248
			c-26.514,0-52.114,10.057-71.314,29.257l-12.8,12.8c-3.657,3.657-3.657,9.143,0,12.8l24.216,24.216
			c-7.849,23.317-2.585,49.529,15.098,67.212c11.886,11.886,28.343,18.286,44.8,18.286c7.235,0,14.47-1.152,21.705-3.895
			l24.009,24.009c1.829,1.829,3.657,2.743,6.4,2.743c1.829,0,4.571-0.914,6.4-2.743l12.8-12.8
			c19.2-19.2,29.257-43.886,29.257-71.314c0-7.392-0.737-14.583-2.18-21.523l21.818-21.373l145.305,137.613
			c-0.236,1.916-0.371,3.866-0.371,5.855c0,2.58,0.214,5.1,0.607,7.553L263.451,383.624c-1.978-0.252-3.994-0.395-6.051-0.395
			c-25.6,0-45.714,20.114-45.714,45.714c0,10.367,3.3,19.832,8.925,27.429h-82.068c-15.543,0-27.429,11.886-27.429,27.429
			c0,15.543,11.886,27.429,27.429,27.429h237.714c15.543,0,27.429-11.886,27.429-27.429c0-15.543-11.886-27.429-27.429-27.429
			h-82.068c5.625-7.596,8.925-17.062,8.925-27.429c0-1.768-0.105-3.506-0.292-5.217l122.309-123.17
			c1.957,0.246,3.95,0.387,5.984,0.387c25.6,0,45.714-20.114,45.714-45.714S456.714,209.514,431.114,209.514z M88.257,186.657
			c-10.057-10.057-14.629-24.686-12.8-38.4l51.2,51.2C112.943,201.286,98.314,196.714,88.257,186.657z M177.857,212.257l-6.4,6.4
			l-56.822-56.822l-37.35-37.35c0,0,0,0,0,0l-21.943-21.943l6.4-6.4C77.286,80.6,98.314,72.371,120.257,72.371
			c6.449,0,12.734,0.65,18.797,1.937c0.663,0.605,1.4,1.166,2.232,1.72C155,79.686,167.8,87,177.857,97.057
			c10.057,10.057,17.371,22.857,21.029,36.571c0.168,0.503,0.414,1.003,0.694,1.495c1.344,6.06,2.049,12.299,2.049,18.62
			C201.629,175.686,193.4,196.714,177.857,212.257z M191.571,83.343c-6.794-6.794-14.392-12.437-22.546-16.901
			c-0.294-0.162-0.589-0.321-0.884-0.479c-0.335-0.179-0.67-0.357-1.007-0.532c-0.376-0.195-0.752-0.386-1.128-0.576
			c-0.394-0.198-0.789-0.395-1.186-0.588c-0.155-0.075-0.311-0.149-0.466-0.224c-1.271-0.611-2.552-1.197-3.846-1.752l33.807-34.72
			c14.629-14.629,37.486-14.629,52.114,0c10.404,10.405,13.401,24.97,9.005,37.778c-0.318,0.478-0.592,0.984-0.777,1.536
			c-1.829,4.571-4.571,9.143-8.229,12.8l-34.264,33.362C207.291,102.165,200.401,92.172,191.571,83.343z M253.743,98.886l0.8-0.915
			l5.6-5.485c2.449-2.556,4.601-5.291,6.48-8.153l139.645,132.344c-5.518,3.52-10.194,8.197-13.712,13.716L253.743,98.886z
			 M385.4,483.8c0,5.486-3.657,9.143-9.143,9.143H138.543c-5.486,0-9.143-3.657-9.143-9.143c0-5.486,3.657-9.143,9.143-9.143
			h237.714C381.743,474.657,385.4,478.314,385.4,483.8z M229.971,428.943c0-15.543,11.886-27.429,27.429-27.429
			c1.652,0,3.259,0.142,4.819,0.401c0.489,0.193,1.005,0.37,1.581,0.514c1.829,0.914,3.657,0.914,4.571,1.829
			c0,0.914,0.914,0.914,0.914,0.914c1.829,0.914,2.743,1.829,4.571,2.743c0.914,0.914,2.743,1.829,3.657,3.657
			c1.829,1.829,2.743,2.743,3.657,4.571c0.914,2.743,1.829,4.571,2.743,7.314c0.176,0.529,0.399,1.054,0.65,1.57
			c0.17,1.276,0.264,2.581,0.264,3.916c0,15.543-11.886,27.429-27.429,27.429C241.857,456.371,229.971,444.486,229.971,428.943z
			 M295.954,404.1c-0.342-0.536-0.693-1.063-1.056-1.582c-0.687-1.249-1.506-2.498-2.755-3.746
			c-0.161-0.107-0.309-0.226-0.464-0.339c-2.895-3.261-6.258-6.092-9.994-8.398l110.874-109.965
			c3.283,5.149,7.568,9.569,12.61,12.997L295.954,404.1z M431.114,282.657c-0.838,0-1.663-0.041-2.479-0.109
			c-0.937-0.768-1.972-1.374-3.007-1.72c-9.143-2.743-16.457-10.057-19.2-19.2c-0.473-1.419-1.44-2.833-2.639-3.999
			c-0.064-0.791-0.103-1.59-0.103-2.401c0-11.079,6.042-20.296,15.141-24.679c1-0.47,2.033-0.897,3.105-1.263
			c0.016-0.006,0.033-0.011,0.05-0.016c0.449-0.152,0.909-0.286,1.37-0.419c2.448-0.681,5.048-1.052,7.763-1.052
			c15.543,0,27.429,11.886,27.429,27.429S446.657,282.657,431.114,282.657z"/>
	</g>
</g>
<g>
</g>
<g>
</g>
<g>
</g>
<g>
</g>
<g>
</g>
<g>
</g>
<g>
</g>
<g>
</g>
<g>
</g>
<g>
</g>
<g>
</g>
<g>
</g>
<g>
</g>
<g>
</g>
<g>
</g>
</svg>
