<?xml version="1.0" encoding="iso-8859-1"?>
<!-- Generator: Adobe Illustrator 19.0.0, SVG Export Plug-In . SVG Version: 6.00 Build 0)  -->
<svg version="1.1" id="Layer_1" xmlns="http://www.w3.org/2000/svg" xmlns:xlink="http://www.w3.org/1999/xlink" x="0px" y="0px"
	 viewBox="0 0 512.162 512.162" style="enable-background:new 0 0 512.162 512.162;" xml:space="preserve">
<g transform="translate(1 1)">
	<g>
		<g>
			<path d="M511,500.841l-40.533-194.56h6.4c4.267,0,7.68-3.413,8.533-6.827l7.396-44.373h9.671c5.12,0,8.533-3.413,8.533-8.533
				v-34.133c0-5.12-3.413-8.533-8.533-8.533H390.68v-5.973c0-11.093-8.533-19.627-19.627-19.627h-5.12v-8.533h85.333
				c9.387,0,17.067-7.68,17.067-17.067v-25.6V16.148c0-9.387-7.68-17.067-17.067-17.067H229.4c-9.387,0-17.067,7.68-17.067,17.067
				v110.933v25.6c0,9.387,7.68,17.067,17.067,17.067h85.333v8.533h-5.973c-11.093,0-19.627,8.533-19.627,19.627v5.973H152.6v-17.067
				h8.533c5.12,0,8.533-3.413,8.533-8.533v-34.133c0-5.12-3.413-8.533-8.533-8.533H152.6v-25.6c0-5.12-3.413-8.533-8.533-8.533
				H33.133c-5.12,0-8.533,3.413-8.533,8.533v34.133c0,5.12,3.413,8.533,8.533,8.533h8.533v17.067h-8.533
				c-5.12,0-8.533,3.413-8.533,8.533v25.6H7.533c-5.12,0-8.533,3.413-8.533,8.533v34.133c0,5.12,3.413,8.533,8.533,8.533h8.533v76.8
				v85.333v85.333c0,5.12,3.413,8.533,8.533,8.533h153.6c5.12,0,8.533-3.413,8.533-8.533v-85.333v-85.333v-76.8h240.071
				l7.396,44.373c0.853,3.413,4.267,6.827,8.533,6.827h6.4L408.6,500.841c-0.853,5.12,2.56,9.387,6.827,10.24
				c0.853,0,0.853,0,1.707,0c4.267,0,7.68-2.56,8.533-6.827l34.133-163.84l34.133,163.84c0.853,4.267,4.267,6.827,8.533,6.827
				c0.853,0,0.853,0,1.707,0C509.293,510.228,511.853,505.108,511,500.841z M451.267,16.148v102.4H229.4v-102.4H451.267z
				 M229.4,135.614h221.867v17.067H357.4h-34.133H229.4V135.614z M331.8,169.748h17.067v8.533H331.8V169.748z M307.053,197.908
				c0-1.707,0.853-2.56,2.56-2.56h13.653H357.4h14.507c1.707,0,2.56,0.853,2.56,2.56v5.973h-67.413V197.908z M41.667,118.548h93.867
				v17.067H50.2h-8.533V118.548z M58.733,152.681h85.333h8.533v17.067h-8.533H58.733V152.681z M41.667,186.814H50.2h85.333v17.067
				H41.667V186.814z M16.067,220.948h17.067h110.933h153.6H383h110.933v17.067H485.4h-51.2h-256H24.6h-8.533V220.948z
				 M169.667,408.681H33.133v-68.267h136.533V408.681z M169.667,494.014H33.133v-68.267h136.533V494.014z M169.667,323.348H33.133
				v-68.267h136.533V323.348z M475.16,255.081l-5.973,34.133h-7.68c-0.084-0.014-0.165-0.017-0.249-0.029
				c-1.057-0.179-2.135-0.177-3.164,0.029h-8.533l-5.12-34.133H475.16z"/>
			<path d="M92.867,297.748h17.067c5.12,0,8.533-3.413,8.533-8.533s-3.413-8.533-8.533-8.533H92.867
				c-5.12,0-8.533,3.413-8.533,8.533S87.747,297.748,92.867,297.748z"/>
			<path d="M92.867,383.081h17.067c5.12,0,8.533-3.413,8.533-8.533s-3.413-8.533-8.533-8.533H92.867
				c-5.12,0-8.533,3.413-8.533,8.533S87.747,383.081,92.867,383.081z"/>
			<path d="M92.867,468.414h17.067c5.12,0,8.533-3.413,8.533-8.533c0-5.12-3.413-8.533-8.533-8.533H92.867
				c-5.12,0-8.533,3.413-8.533,8.533C84.333,465.001,87.747,468.414,92.867,468.414z"/>
			<path d="M246.467,58.814c2.56,0,4.267-0.853,5.973-2.56l17.067-17.067c3.413-3.413,3.413-8.533,0-11.947s-8.533-3.413-11.947,0
				l-17.067,17.067c-3.413,3.413-3.413,8.533,0,11.947C242.2,57.961,243.907,58.814,246.467,58.814z"/>
			<path d="M249.027,90.387c1.707,1.707,3.413,2.56,5.973,2.56s4.267-0.853,5.973-2.56l42.667-42.667
				c3.413-3.413,3.413-8.533,0-11.947s-8.533-3.413-11.947,0l-42.667,42.667C245.613,81.854,245.613,86.974,249.027,90.387z"/>
		</g>
	</g>
</g>
<g>
</g>
<g>
</g>
<g>
</g>
<g>
</g>
<g>
</g>
<g>
</g>
<g>
</g>
<g>
</g>
<g>
</g>
<g>
</g>
<g>
</g>
<g>
</g>
<g>
</g>
<g>
</g>
<g>
</g>
</svg>
