<?xml version="1.0" encoding="iso-8859-1"?>
<!-- Generator: Adobe Illustrator 19.0.0, SVG Export Plug-In . SVG Version: 6.00 Build 0)  -->
<svg version="1.1" id="Layer_1" xmlns="http://www.w3.org/2000/svg" xmlns:xlink="http://www.w3.org/1999/xlink" x="0px" y="0px"
	 viewBox="0 0 512 512" style="enable-background:new 0 0 512 512;" xml:space="preserve">
<g transform="translate(1 1)">
	<g>
		<g>
			<path d="M472.6,16.067H37.4c-21.333,0-38.4,17.067-38.4,38.4v260.267v38.4c0,21.333,17.067,38.4,38.4,38.4h163.84l-12.8,51.2
				h-1.707c-23.893,0-42.667,18.773-42.667,42.667c0,5.12,3.413,8.533,8.533,8.533h204.8c5.12,0,8.533-3.413,8.533-8.533
				c0-23.893-18.773-42.667-42.667-42.667h-1.707l-12.8-51.2H472.6c21.333,0,38.4-17.067,38.4-38.4v-38.4V54.467
				C511,33.133,493.933,16.067,472.6,16.067z M16.067,54.467c0-11.947,9.387-21.333,21.333-21.333h435.2
				c11.947,0,21.333,9.387,21.333,21.333V306.2H16.067V54.467z M348.013,476.867H162.84c3.413-10.24,12.8-17.067,23.893-17.067
				h8.533h119.467h9.387C335.213,459.8,344.6,466.627,348.013,476.867z M303.64,442.733h-97.28l12.8-51.2h71.68L303.64,442.733z
				 M493.933,353.133c0,11.947-9.387,21.333-21.333,21.333H297.667h-85.333H37.4c-11.947,0-21.333-9.387-21.333-21.333v-29.867
				h477.867V353.133z"/>
			<path d="M391.533,196.092v-34.959h-128V127h25.6V58.733h-68.267V127h25.6v34.133h-128v34.959
				c-19.681,3.86-34.133,20.878-34.133,41.841c0,23.893,18.773,42.667,42.667,42.667s42.667-18.773,42.667-42.667
				c0-20.963-14.452-37.981-34.133-41.841V178.2h110.933v17.892c-19.681,3.86-34.133,20.878-34.133,41.841
				c0,23.893,18.773,42.667,42.667,42.667c23.893,0,42.667-18.773,42.667-42.667c0-20.963-14.452-37.981-34.133-41.841V178.2
				h110.933v17.892c-19.681,3.86-34.133,20.878-34.133,41.841c0,23.893,18.773,42.667,42.667,42.667
				c23.893,0,42.667-18.773,42.667-42.667C425.667,216.97,411.214,199.952,391.533,196.092z M237.933,75.8h34.133v34.133h-34.133
				V75.8z M152.6,237.933c0,14.507-11.093,25.6-25.6,25.6s-25.6-11.093-25.6-25.6c0-14.507,11.093-25.6,25.6-25.6
				S152.6,223.427,152.6,237.933z M280.6,237.933c0,14.507-11.093,25.6-25.6,25.6c-14.507,0-25.6-11.093-25.6-25.6
				c0-14.507,11.093-25.6,25.6-25.6C269.507,212.333,280.6,223.427,280.6,237.933z M383,263.533c-14.507,0-25.6-11.093-25.6-25.6
				c0-14.507,11.093-25.6,25.6-25.6c14.507,0,25.6,11.093,25.6,25.6C408.6,252.44,397.507,263.533,383,263.533z"/>
		</g>
	</g>
</g>
<g>
</g>
<g>
</g>
<g>
</g>
<g>
</g>
<g>
</g>
<g>
</g>
<g>
</g>
<g>
</g>
<g>
</g>
<g>
</g>
<g>
</g>
<g>
</g>
<g>
</g>
<g>
</g>
<g>
</g>
</svg>
