<?xml version="1.0" encoding="iso-8859-1"?>
<!-- Generator: Adobe Illustrator 19.0.0, SVG Export Plug-In . SVG Version: 6.00 Build 0)  -->
<svg version="1.1" id="Layer_1" xmlns="http://www.w3.org/2000/svg" xmlns:xlink="http://www.w3.org/1999/xlink" x="0px" y="0px"
	 viewBox="0 0 512 512" style="enable-background:new 0 0 512 512;" xml:space="preserve">
<g transform="translate(1 1)">
	<g>
		<g>
			<path d="M135.533,260.092V242.2h110.933v17.892c-19.681,3.86-34.133,20.878-34.133,41.841c0,23.893,18.773,42.667,42.667,42.667
				c23.893,0,42.667-18.773,42.667-42.667c0-20.963-14.452-37.981-34.133-41.841V242.2h110.933v17.892
				c-19.681,3.86-34.133,20.878-34.133,41.841c0,23.893,18.773,42.667,42.667,42.667c23.893,0,42.667-18.773,42.667-42.667
				c0-20.963-14.452-37.981-34.133-41.841v-34.959h-128V191h25.6v-68.267h-68.267V191h25.6v34.133h-128v34.959
				c-19.681,3.86-34.133,20.878-34.133,41.841c0,23.893,18.773,42.667,42.667,42.667s42.667-18.773,42.667-42.667
				C169.667,280.97,155.214,263.952,135.533,260.092z M280.6,301.933c0,14.507-11.093,25.6-25.6,25.6
				c-14.507,0-25.6-11.093-25.6-25.6c0-14.507,11.093-25.6,25.6-25.6C269.507,276.333,280.6,287.427,280.6,301.933z M408.6,301.933
				c0,14.507-11.093,25.6-25.6,25.6c-14.507,0-25.6-11.093-25.6-25.6c0-14.507,11.093-25.6,25.6-25.6
				C397.507,276.333,408.6,287.427,408.6,301.933z M237.933,139.8h34.133v34.133h-34.133V139.8z M127,327.533
				c-14.507,0-25.6-11.093-25.6-25.6c0-14.507,11.093-25.6,25.6-25.6s25.6,11.093,25.6,25.6
				C152.6,316.44,141.507,327.533,127,327.533z"/>
			<path d="M502.467,370.2h-25.6V105.667c0-14.507-11.093-25.6-25.6-25.6H58.733c-14.507,0-25.6,11.093-25.6,25.6V370.2h-25.6
				c-5.12,0-8.533,3.413-8.533,8.533v25.6c0,14.507,11.093,25.6,25.6,25.6h460.8c14.507,0,25.6-11.093,25.6-25.6v-25.6
				C511,373.613,507.587,370.2,502.467,370.2z M50.2,105.667c0-5.12,3.413-8.533,8.533-8.533h392.533
				c5.12,0,8.533,3.413,8.533,8.533V370.2H323.267c-5.12,0-8.533,3.413-8.533,8.533v8.533H195.267v-8.533
				c0-5.12-3.413-8.533-8.533-8.533H50.2V105.667z M493.933,404.333c0,5.12-3.413,8.533-8.533,8.533H24.6
				c-5.12,0-8.533-3.413-8.533-8.533v-17.067h25.6H178.2v8.533c0,5.12,3.413,8.533,8.533,8.533h136.533
				c5.12,0,8.533-3.413,8.533-8.533v-8.533h136.533h25.6V404.333z"/>
		</g>
	</g>
</g>
<g>
</g>
<g>
</g>
<g>
</g>
<g>
</g>
<g>
</g>
<g>
</g>
<g>
</g>
<g>
</g>
<g>
</g>
<g>
</g>
<g>
</g>
<g>
</g>
<g>
</g>
<g>
</g>
<g>
</g>
</svg>
