<?xml version="1.0" encoding="iso-8859-1"?>
<!-- Generator: Adobe Illustrator 19.0.0, SVG Export Plug-In . SVG Version: 6.00 Build 0)  -->
<svg version="1.1" id="Layer_1" xmlns="http://www.w3.org/2000/svg" xmlns:xlink="http://www.w3.org/1999/xlink" x="0px" y="0px"
	 viewBox="0 0 512 512" style="enable-background:new 0 0 512 512;" xml:space="preserve">
<g transform="translate(1 1)">
	<g>
		<path d="M348.867-1H161.133C142.36-1,127,14.36,127,33.133V408.6v34.133v34.133C127,495.64,142.36,511,161.133,511h187.733
			C367.64,511,383,495.64,383,476.867v-34.133V408.6V33.133C383,14.36,367.64-1,348.867-1z M144.067,438.119
			c5.029,2.927,10.859,4.615,17.067,4.615h187.733c6.208,0,12.037-1.688,17.067-4.615v4.615c0,9.387-7.68,17.067-17.067,17.067
			H161.133c-9.387,0-17.067-7.68-17.067-17.067V438.119z M348.867,425.667H161.133c-9.387,0-17.067-7.68-17.067-17.067V229.4
			h221.867v179.2C365.933,417.987,358.253,425.667,348.867,425.667z M161.133,16.067h187.733c9.387,0,17.067,7.68,17.067,17.067
			v179.2H144.067v-179.2C144.067,23.747,151.747,16.067,161.133,16.067z M348.867,493.933H161.133
			c-9.387,0-17.067-7.68-17.067-17.067v-4.615c5.029,2.927,10.859,4.615,17.067,4.615h187.733c6.208,0,12.037-1.688,17.067-4.615
			v4.615C365.933,486.253,358.253,493.933,348.867,493.933z"/>
	</g>
</g>
<g>
</g>
<g>
</g>
<g>
</g>
<g>
</g>
<g>
</g>
<g>
</g>
<g>
</g>
<g>
</g>
<g>
</g>
<g>
</g>
<g>
</g>
<g>
</g>
<g>
</g>
<g>
</g>
<g>
</g>
</svg>
