<?xml version="1.0" encoding="iso-8859-1"?>
<!-- Generator: Adobe Illustrator 19.0.0, SVG Export Plug-In . SVG Version: 6.00 Build 0)  -->
<svg version="1.1" id="Layer_1" xmlns="http://www.w3.org/2000/svg" xmlns:xlink="http://www.w3.org/1999/xlink" x="0px" y="0px"
	 viewBox="0 0 512 512" style="enable-background:new 0 0 512 512;" xml:space="preserve">
<g transform="translate(1 1)">
	<g>
		<path d="M340.333,237.933H331.8v-68.267c0-5.12-3.413-8.533-8.533-8.533h-18.639L263.533,4.973C262.68,1.56,259.267-1,255-1
			c-4.267,0-7.68,2.56-8.533,5.973l-41.095,156.16h-18.639c-5.12,0-8.533,3.413-8.533,8.533v68.267h-8.533
			c-18.773,0-34.133,15.36-34.133,34.133v204.8c0,18.773,15.36,34.133,34.133,34.133h170.667c18.773,0,34.133-15.36,34.133-34.133
			v-51.2v-102.4v-51.2C374.467,253.293,359.107,237.933,340.333,237.933z M357.4,348.867h-93.867c-5.12,0-8.533,3.413-8.533,8.533
			s3.413,8.533,8.533,8.533H357.4V383h-93.867c-5.12,0-8.533,3.413-8.533,8.533c0,5.12,3.413,8.533,8.533,8.533H357.4v17.067
			H237.933V331.8H357.4V348.867z M255,40.813l31.573,120.32h-63.147L255,40.813z M195.267,178.2h17.067h85.333h17.067v59.733
			H195.267V178.2z M340.333,493.933H169.667c-9.387,0-17.067-7.68-17.067-17.067v-204.8c0-9.387,7.68-17.067,17.067-17.067h17.067
			h136.533h17.067c9.387,0,17.067,7.68,17.067,17.067v42.667h-128c-5.12,0-8.533,3.413-8.533,8.533v102.4
			c0,5.12,3.413,8.533,8.533,8.533h128v42.667C357.4,486.253,349.72,493.933,340.333,493.933z"/>
	</g>
</g>
<g>
</g>
<g>
</g>
<g>
</g>
<g>
</g>
<g>
</g>
<g>
</g>
<g>
</g>
<g>
</g>
<g>
</g>
<g>
</g>
<g>
</g>
<g>
</g>
<g>
</g>
<g>
</g>
<g>
</g>
</svg>
