<?xml version="1.0" encoding="iso-8859-1"?>
<!-- Generator: Adobe Illustrator 19.0.0, SVG Export Plug-In . SVG Version: 6.00 Build 0)  -->
<svg version="1.1" id="Layer_1" xmlns="http://www.w3.org/2000/svg" xmlns:xlink="http://www.w3.org/1999/xlink" x="0px" y="0px"
	 viewBox="0 0 512 512" style="enable-background:new 0 0 512 512;" xml:space="preserve">
<g transform="translate(1 1)">
	<g>
		<g>
			<path d="M206.683,302.533c0.428,0.398,0.884,0.774,1.383,1.107c14.509,7.255,29.02,10.698,44.249,11.058
				c0.892,0.023,1.787,0.036,2.685,0.036s1.792-0.012,2.685-0.036c15.229-0.36,29.739-3.803,44.249-11.058
				c0.5-0.333,0.955-0.709,1.383-1.107c32.125-17.33,54.083-51.324,54.083-90.2c0-56.32-46.08-102.4-102.4-102.4
				s-102.4,46.08-102.4,102.4C152.6,251.21,174.559,285.203,206.683,302.533z M237.933,178.2c0-9.387,7.68-17.067,17.067-17.067
				c9.387,0,17.067,7.68,17.067,17.067s-7.68,17.067-17.067,17.067C245.613,195.267,237.933,187.587,237.933,178.2z M255,212.333
				c18.773,0,34.133,15.36,34.133,34.133v44.013c-10.469,4.608-22.012,7.187-34.133,7.187c-12.122,0-23.665-2.579-34.133-7.187
				v-44.013C220.867,227.693,236.227,212.333,255,212.333z M255,127c46.933,0,85.333,38.4,85.333,85.333
				c0,27.763-13.441,52.535-34.133,68.144v-34.011c0-19.214-10.731-36.037-26.491-44.792c5.828-6.13,9.424-14.401,9.424-23.475
				c0-18.773-15.36-34.133-34.133-34.133s-34.133,15.36-34.133,34.133c0,9.075,3.596,17.345,9.424,23.475
				c-15.76,8.754-26.491,25.578-26.491,44.792v34.011c-20.692-15.609-34.133-40.381-34.133-68.144
				C169.667,165.4,208.067,127,255,127z"/>
			<path d="M195.267,348.867c-5.12,0-8.533,3.413-8.533,8.533s3.413,8.533,8.533,8.533h51.2c5.12,0,8.533-3.413,8.533-8.533
				s-3.413-8.533-8.533-8.533H195.267z"/>
			<path d="M135.533,365.933h25.6c5.12,0,8.533-3.413,8.533-8.533s-3.413-8.533-8.533-8.533h-25.6c-5.12,0-8.533,3.413-8.533,8.533
				S130.413,365.933,135.533,365.933z"/>
			<path d="M280.6,348.867c-5.12,0-8.533,3.413-8.533,8.533s3.413,8.533,8.533,8.533h42.667c5.12,0,8.533-3.413,8.533-8.533
				s-3.413-8.533-8.533-8.533H280.6z"/>
			<path d="M374.467,348.867H357.4c-5.12,0-8.533,3.413-8.533,8.533s3.413,8.533,8.533,8.533h17.067c5.12,0,8.533-3.413,8.533-8.533
				S379.587,348.867,374.467,348.867z"/>
			<path d="M135.533,417.133H203.8c5.12,0,8.533-3.413,8.533-8.533s-3.413-8.533-8.533-8.533h-68.267
				c-5.12,0-8.533,3.413-8.533,8.533S130.413,417.133,135.533,417.133z"/>
			<path d="M374.467,400.067h-34.133c-5.12,0-8.533,3.413-8.533,8.533s3.413,8.533,8.533,8.533h34.133
				c5.12,0,8.533-3.413,8.533-8.533S379.587,400.067,374.467,400.067z"/>
			<path d="M314.733,408.6c0-5.12-3.413-8.533-8.533-8.533h-68.267c-5.12,0-8.533,3.413-8.533,8.533s3.413,8.533,8.533,8.533H306.2
				C311.32,417.133,314.733,413.72,314.733,408.6z"/>
			<path d="M220.867,451.267h-85.333c-5.12,0-8.533,3.413-8.533,8.533c0,5.12,3.413,8.533,8.533,8.533h85.333
				c5.12,0,8.533-3.413,8.533-8.533C229.4,454.68,225.987,451.267,220.867,451.267z"/>
			<path d="M280.6,451.267H255c-5.12,0-8.533,3.413-8.533,8.533c0,5.12,3.413,8.533,8.533,8.533h25.6
				c5.12,0,8.533-3.413,8.533-8.533C289.133,454.68,285.72,451.267,280.6,451.267z"/>
			<path d="M374.467,451.267h-59.733c-5.12,0-8.533,3.413-8.533,8.533c0,5.12,3.413,8.533,8.533,8.533h59.733
				c5.12,0,8.533-3.413,8.533-8.533C383,454.68,379.587,451.267,374.467,451.267z"/>
			<path d="M408.6,50.2H289.133V33.133C289.133,14.36,273.773-1,255-1s-34.133,15.36-34.133,34.133V50.2H101.4
				c-14.507,0-25.6,11.093-25.6,25.6v409.6c0,14.507,11.093,25.6,25.6,25.6h307.2c14.507,0,25.6-11.093,25.6-25.6V75.8
				C434.2,61.293,423.107,50.2,408.6,50.2z M237.933,58.733V41.667h34.133v17.067V75.8h-34.133V58.733z M255.853,16.067
				c5.973,0,11.947,3.413,14.507,8.533h-29.867C243.053,19.48,249.88,16.067,255.853,16.067z M417.133,485.4
				c0,5.12-3.413,8.533-8.533,8.533H101.4c-5.12,0-8.533-3.413-8.533-8.533V75.8c0-5.12,3.413-8.533,8.533-8.533h119.467v17.067
				c0,5.12,3.413,8.533,8.533,8.533h51.2c5.12,0,8.533-3.413,8.533-8.533V67.267H408.6c5.12,0,8.533,3.413,8.533,8.533V485.4z"/>
		</g>
	</g>
</g>
<g>
</g>
<g>
</g>
<g>
</g>
<g>
</g>
<g>
</g>
<g>
</g>
<g>
</g>
<g>
</g>
<g>
</g>
<g>
</g>
<g>
</g>
<g>
</g>
<g>
</g>
<g>
</g>
<g>
</g>
</svg>
