<?xml version="1.0" encoding="iso-8859-1"?>
<!-- Generator: Adobe Illustrator 19.0.0, SVG Export Plug-In . SVG Version: 6.00 Build 0)  -->
<svg version="1.1" id="Layer_1" xmlns="http://www.w3.org/2000/svg" xmlns:xlink="http://www.w3.org/1999/xlink" x="0px" y="0px"
	 viewBox="0 0 512 512" style="enable-background:new 0 0 512 512;" xml:space="preserve">
<g transform="translate(1 1)">
	<g>
		<g>
			<path d="M468.333,148.333H41.667c-5.12,0-8.533,3.413-8.533,8.533v273.067c0,5.12,3.413,8.533,8.533,8.533h426.667
				c5.12,0,8.533-3.413,8.533-8.533V156.867C476.867,151.747,473.453,148.333,468.333,148.333z M459.8,421.4H50.2v-256h409.6V421.4z
				"/>
			<path d="M292.017,383.6c0.428,0.398,0.884,0.774,1.383,1.107c14.509,7.255,29.02,10.698,44.249,11.058
				c0.892,0.023,1.787,0.036,2.685,0.036s1.792-0.012,2.685-0.036c15.229-0.36,29.739-3.803,44.249-11.058
				c0.5-0.333,0.955-0.708,1.383-1.107c32.125-17.33,54.083-51.324,54.083-90.2c0-56.32-46.08-102.4-102.4-102.4
				c-56.32,0-102.4,46.08-102.4,102.4C237.933,332.276,259.892,366.27,292.017,383.6z M323.267,259.267
				c0-9.387,7.68-17.067,17.067-17.067s17.067,7.68,17.067,17.067c0,9.387-7.68,17.067-17.067,17.067
				S323.267,268.653,323.267,259.267z M340.333,293.4c18.773,0,34.133,15.36,34.133,34.133v44.013
				c-10.469,4.608-22.012,7.187-34.133,7.187s-23.665-2.579-34.133-7.187v-44.013C306.2,308.76,321.56,293.4,340.333,293.4z
				 M340.333,208.067c46.933,0,85.333,38.4,85.333,85.333c0,27.763-13.441,52.535-34.133,68.144v-34.011
				c0-19.214-10.731-36.037-26.491-44.792c5.828-6.13,9.424-14.401,9.424-23.475c0-18.773-15.36-34.133-34.133-34.133
				c-18.773,0-34.133,15.36-34.133,34.133c0,9.075,3.596,17.345,9.424,23.475c-15.76,8.754-26.491,25.578-26.491,44.792v34.011
				C268.441,345.935,255,321.163,255,293.4C255,246.467,293.4,208.067,340.333,208.067z"/>
			<path d="M75.8,267.8h8.533c5.12,0,8.533-3.413,8.533-8.533c0-5.12-3.413-8.533-8.533-8.533H75.8c-5.12,0-8.533,3.413-8.533,8.533
				C67.267,264.387,70.68,267.8,75.8,267.8z"/>
			<path d="M161.133,250.733h-42.667c-5.12,0-8.533,3.413-8.533,8.533c0,5.12,3.413,8.533,8.533,8.533h42.667
				c5.12,0,8.533-3.413,8.533-8.533C169.667,254.147,166.253,250.733,161.133,250.733z"/>
			<path d="M195.267,267.8h17.067c5.12,0,8.533-3.413,8.533-8.533c0-5.12-3.413-8.533-8.533-8.533h-17.067
				c-5.12,0-8.533,3.413-8.533,8.533C186.733,264.387,190.147,267.8,195.267,267.8z"/>
			<path d="M212.333,301.933H178.2c-5.12,0-8.533,3.413-8.533,8.533S173.08,319,178.2,319h34.133c5.12,0,8.533-3.413,8.533-8.533
				S217.453,301.933,212.333,301.933z"/>
			<path d="M75.8,319h68.267c5.12,0,8.533-3.413,8.533-8.533s-3.413-8.533-8.533-8.533H75.8c-5.12,0-8.533,3.413-8.533,8.533
				S70.68,319,75.8,319z"/>
			<path d="M75.8,370.2h42.667c5.12,0,8.533-3.413,8.533-8.533s-3.413-8.533-8.533-8.533H75.8c-5.12,0-8.533,3.413-8.533,8.533
				S70.68,370.2,75.8,370.2z"/>
			<path d="M212.333,353.133H152.6c-5.12,0-8.533,3.413-8.533,8.533s3.413,8.533,8.533,8.533h59.733c5.12,0,8.533-3.413,8.533-8.533
				S217.453,353.133,212.333,353.133z"/>
			<path d="M109.933,216.6H178.2c5.12,0,8.533-3.413,8.533-8.533s-3.413-8.533-8.533-8.533h-68.267c-5.12,0-8.533,3.413-8.533,8.533
				S104.813,216.6,109.933,216.6z"/>
			<path d="M485.4,105.667H289.133V63c0-18.773-15.36-34.133-34.133-34.133c-18.773,0-34.133,15.36-34.133,34.133v42.667H24.6
				c-14.507,0-25.6,11.093-25.6,25.6v324.267c0,14.507,11.093,25.6,25.6,25.6h460.8c14.507,0,25.6-11.093,25.6-25.6V131.267
				C511,116.76,499.907,105.667,485.4,105.667z M237.933,114.2V71.533h34.133V114.2v8.533h-34.133V114.2z M255.853,45.933
				c5.973,0,11.947,3.413,14.507,8.533h-29.867C243.053,49.347,249.88,45.933,255.853,45.933z M493.933,455.533
				c0,5.12-3.413,8.533-8.533,8.533H24.6c-5.12,0-8.533-3.413-8.533-8.533V131.267c0-5.12,3.413-8.533,8.533-8.533h196.267v8.533
				c0,5.12,3.413,8.533,8.533,8.533h51.2c5.12,0,8.533-3.413,8.533-8.533v-8.533H485.4c5.12,0,8.533,3.413,8.533,8.533V455.533z"/>
		</g>
	</g>
</g>
<g>
</g>
<g>
</g>
<g>
</g>
<g>
</g>
<g>
</g>
<g>
</g>
<g>
</g>
<g>
</g>
<g>
</g>
<g>
</g>
<g>
</g>
<g>
</g>
<g>
</g>
<g>
</g>
<g>
</g>
</svg>
