<?xml version="1.0" encoding="iso-8859-1"?>
<!-- Generator: Adobe Illustrator 19.0.0, SVG Export Plug-In . SVG Version: 6.00 Build 0)  -->
<svg version="1.1" id="Layer_1" xmlns="http://www.w3.org/2000/svg" xmlns:xlink="http://www.w3.org/1999/xlink" x="0px" y="0px"
	 viewBox="0 0 512 512" style="enable-background:new 0 0 512 512;" xml:space="preserve">
<g transform="translate(1 1)">
	<g>
		<g>
			<path d="M425.667,327.533h-128c-5.12,0-8.533,3.413-8.533,8.533s3.413,8.533,8.533,8.533h128c5.12,0,8.533-3.413,8.533-8.533
				S430.787,327.533,425.667,327.533z"/>
			<path d="M178.2,284.867c0-5.12-3.413-8.533-8.533-8.533H84.333c-5.12,0-8.533,3.413-8.533,8.533c0,5.12,3.413,8.533,8.533,8.533
				h85.333C174.787,293.4,178.2,289.987,178.2,284.867z"/>
			<path d="M255,293.4h128c5.12,0,8.533-3.413,8.533-8.533c0-5.12-3.413-8.533-8.533-8.533H255c-5.12,0-8.533,3.413-8.533,8.533
				C246.467,289.987,249.88,293.4,255,293.4z"/>
			<path d="M263.533,336.067c0-5.12-3.413-8.533-8.533-8.533H127c-5.12,0-8.533,3.413-8.533,8.533S121.88,344.6,127,344.6h128
				C260.12,344.6,263.533,341.187,263.533,336.067z"/>
			<path d="M289.133,182.467c0,5.12,3.413,8.533,8.533,8.533h128c5.12,0,8.533-3.413,8.533-8.533s-3.413-8.533-8.533-8.533h-128
				C292.547,173.933,289.133,177.347,289.133,182.467z"/>
			<path d="M425.667,225.133h-85.333c-5.12,0-8.533,3.413-8.533,8.533c0,5.12,3.413,8.533,8.533,8.533h85.333
				c5.12,0,8.533-3.413,8.533-8.533C434.2,228.547,430.787,225.133,425.667,225.133z"/>
			<path d="M255,242.2h17.067c5.12,0,8.533-3.413,8.533-8.533c0-5.12-3.413-8.533-8.533-8.533H255c-5.12,0-8.533,3.413-8.533,8.533
				C246.467,238.787,249.88,242.2,255,242.2z"/>
			<path d="M255,139.8h128c5.12,0,8.533-3.413,8.533-8.533c0-5.12-3.413-8.533-8.533-8.533H255c-5.12,0-8.533,3.413-8.533,8.533
				C246.467,136.387,249.88,139.8,255,139.8z"/>
			<path d="M212.333,114.2H75.8v136.533h136.533V114.2z M195.267,233.667h-102.4v-102.4h102.4V233.667z"/>
			<path d="M502.467,370.2h-25.6V105.667c0-14.507-11.093-25.6-25.6-25.6H58.733c-14.507,0-25.6,11.093-25.6,25.6V370.2h-25.6
				c-5.12,0-8.533,3.413-8.533,8.533v25.6c0,14.507,11.093,25.6,25.6,25.6h460.8c14.507,0,25.6-11.093,25.6-25.6v-25.6
				C511,373.613,507.587,370.2,502.467,370.2z M50.2,105.667c0-5.12,3.413-8.533,8.533-8.533h392.533
				c5.12,0,8.533,3.413,8.533,8.533V370.2H323.267c-5.12,0-8.533,3.413-8.533,8.533v8.533H195.267v-8.533
				c0-5.12-3.413-8.533-8.533-8.533H50.2V105.667z M493.933,404.333c0,5.12-3.413,8.533-8.533,8.533H24.6
				c-5.12,0-8.533-3.413-8.533-8.533v-17.067h25.6H178.2v8.533c0,5.12,3.413,8.533,8.533,8.533h136.533
				c5.12,0,8.533-3.413,8.533-8.533v-8.533h136.533h25.6V404.333z"/>
		</g>
	</g>
</g>
<g>
</g>
<g>
</g>
<g>
</g>
<g>
</g>
<g>
</g>
<g>
</g>
<g>
</g>
<g>
</g>
<g>
</g>
<g>
</g>
<g>
</g>
<g>
</g>
<g>
</g>
<g>
</g>
<g>
</g>
</svg>
