<?xml version="1.0" encoding="iso-8859-1"?>
<!-- Generator: Adobe Illustrator 19.0.0, SVG Export Plug-In . SVG Version: 6.00 Build 0)  -->
<svg version="1.1" id="Layer_1" xmlns="http://www.w3.org/2000/svg" xmlns:xlink="http://www.w3.org/1999/xlink" x="0px" y="0px"
	 viewBox="0 0 509.44 509.44" style="enable-background:new 0 0 509.44 509.44;" xml:space="preserve">
<g transform="translate(0 1)">
	<g>
		<path d="M506.88,127.853l-17.92-17.92c-3.413-3.413-8.533-3.413-11.947,0l-23.893,23.893l-6.4-6.4l23.467-23.467
			c1.707-1.707,2.56-3.413,2.56-5.973s-0.853-4.267-2.56-5.973L397.653,19.48c-3.413-3.413-8.533-3.413-11.947,0L355.84,49.347
			c-0.824,0.824-1.445,1.749-1.871,2.724L217.6,188.44c-3.413,3.413-3.413,8.533,0,11.947l5.985,5.985L121.173,309.187
			l-66.56,66.133c-0.822,0.822-1.441,1.646-1.867,2.563L12.8,417.987C4.267,425.667,0,436.76,0,447.853s4.267,22.187,12.8,29.867
			c7.68,8.533,18.773,12.8,29.867,12.8s21.333-4.267,29.867-12.8l211.615-210.785l5.985,5.985c1.707,1.707,3.413,2.56,5.973,2.56
			s4.267-0.853,5.973-2.56L435.2,139.8l5.973,5.973L320,266.947c-3.413,3.413-3.413,8.533,0,11.947l17.92,17.92
			c1.707,1.707,3.413,2.56,5.973,2.56c2.56,0,5.12-0.853,5.973-2.56L506.88,139.8c1.707-1.707,2.56-3.413,2.56-5.973
			S508.587,129.56,506.88,127.853z M392.533,37.4l60.587,60.587l-17.92,17.92L374.613,55.32L392.533,37.4z M204.8,272.92
			L84.48,393.24l-11.617-11.617L192.94,261.06L204.8,272.92z M271.36,255L60.587,465.773c-9.387,10.24-25.6,10.24-35.84,0
			c-5.12-4.267-7.68-11.093-7.68-17.92s2.56-13.653,7.68-17.92l36.193-36.34l17.567,17.567c1.707,1.707,3.413,2.56,5.973,2.56
			s4.267,0,5.973-1.707l133.12-133.12c3.413-3.413,3.413-8.533,0-11.947l-18.285-18.285l30.232-30.355L271.36,255z M296.107,255
			l-5.973-5.973l-48.64-48.64l-5.973-5.973L361.813,68.12l60.587,60.587L296.107,255z M343.893,278.893l-5.973-5.973
			l145.067-145.067l5.973,5.973L343.893,278.893z"/>
	</g>
</g>
<g>
</g>
<g>
</g>
<g>
</g>
<g>
</g>
<g>
</g>
<g>
</g>
<g>
</g>
<g>
</g>
<g>
</g>
<g>
</g>
<g>
</g>
<g>
</g>
<g>
</g>
<g>
</g>
<g>
</g>
</svg>
