<?xml version="1.0" encoding="iso-8859-1"?>
<!-- Generator: Adobe Illustrator 19.0.0, SVG Export Plug-In . SVG Version: 6.00 Build 0)  -->
<svg version="1.1" id="Layer_1" xmlns="http://www.w3.org/2000/svg" xmlns:xlink="http://www.w3.org/1999/xlink" x="0px" y="0px"
	 viewBox="0 0 512 512" style="enable-background:new 0 0 512 512;" xml:space="preserve">
<g transform="translate(1 1)">
	<g>
		<g>
			<path d="M434.2-1H127H92.867c-14.507,0-25.6,11.093-25.6,25.6v17.067h-8.533c-5.12,0-8.533,3.413-8.533,8.533
				s3.413,8.533,8.533,8.533h8.533v51.2h-8.533c-5.12,0-8.533,3.413-8.533,8.533S53.613,127,58.733,127h8.533v51.2h-8.533
				c-5.12,0-8.533,3.413-8.533,8.533s3.413,8.533,8.533,8.533h8.533v51.2h-8.533c-5.12,0-8.533,3.413-8.533,8.533
				s3.413,8.533,8.533,8.533h8.533v51.2h-8.533c-5.12,0-8.533,3.413-8.533,8.533s3.413,8.533,8.533,8.533h8.533V383h-8.533
				c-5.12,0-8.533,3.413-8.533,8.533c0,5.12,3.413,8.533,8.533,8.533h8.533v51.2h-8.533c-5.12,0-8.533,3.413-8.533,8.533
				c0,5.12,3.413,8.533,8.533,8.533h8.533V485.4c0,14.507,11.093,25.6,25.6,25.6H127h307.2c14.507,0,25.6-11.093,25.6-25.6V24.6
				C459.8,10.093,448.707-1,434.2-1z M84.333,485.4v-17.067h8.533c5.12,0,8.533-3.413,8.533-8.533c0-5.12-3.413-8.533-8.533-8.533
				h-8.533v-51.2h8.533c5.12,0,8.533-3.413,8.533-8.533c0-5.12-3.413-8.533-8.533-8.533h-8.533v-51.2h8.533
				c5.12,0,8.533-3.413,8.533-8.533s-3.413-8.533-8.533-8.533h-8.533v-51.2h8.533c5.12,0,8.533-3.413,8.533-8.533
				s-3.413-8.533-8.533-8.533h-8.533v-51.2h8.533c5.12,0,8.533-3.413,8.533-8.533s-3.413-8.533-8.533-8.533h-8.533V127h8.533
				c5.12,0,8.533-3.413,8.533-8.533s-3.413-8.533-8.533-8.533h-8.533v-51.2h8.533c5.12,0,8.533-3.413,8.533-8.533
				s-3.413-8.533-8.533-8.533h-8.533V24.6c0-5.12,3.413-8.533,8.533-8.533h25.6v477.867h-25.6
				C87.747,493.933,84.333,490.52,84.333,485.4z M442.733,485.4c0,5.12-3.413,8.533-8.533,8.533H135.533V16.067H434.2
				c5.12,0,8.533,3.413,8.533,8.533V485.4z"/>
			<path d="M348.867,332.53v-43.397c0-5.12-3.413-8.533-8.533-8.533H255c-5.12,0-8.533,3.413-8.533,8.533v10.274l-33.28-11.981
				c-4.267-1.707-9.387,0.853-11.093,5.12l-23.04,64c-0.853,2.56-0.853,5.12,0,6.827c0.853,1.707,3.413,3.413,5.12,4.267
				l31.933,11.31c-2.435,6.551-3.773,13.66-3.773,21.117c0,33.28,26.453,59.733,59.733,59.733c21.893,0,40.828-11.449,51.225-28.757
				c5.68,2.017,11.361,3.157,17.041,3.157c28.16,0,51.2-23.04,51.2-51.2C391.533,357.747,373,336.625,348.867,332.53z
				 M263.533,297.667H331.8v42.667v25.6h-10.556c-5.878-8.508-13.912-15.38-23.359-19.851c-6.966-3.382-14.581-5.369-22.359-5.745
				l0.864-2.393l5.916-15.531c0.478-1.435,0.679-2.865,0.621-4.15c0.058-1.343-0.142-2.573-0.621-3.53
				c-0.853-1.707-3.413-3.413-5.12-4.267l-13.653-4.915V297.667z M197.827,354.84l17.067-48.64l34.603,12.142
				c0.858,0.708,1.857,1.24,2.943,1.512l10.821,4.162l-6.554,18.025c-11.313,3.017-21.954,9.372-29.577,18.465
				c-1.042,1.185-2.048,2.403-2.993,3.67L197.827,354.84z M272.067,442.733c-23.893,0-42.667-18.773-42.667-42.667
				c0-20.558,13.903-37.313,33.001-41.594c0.627,0.018,1.287-0.045,1.986-0.22c0.561-0.187,1.121-0.327,1.682-0.441
				c1.958-0.265,3.957-0.412,5.998-0.412c0.938,0,1.87,0.034,2.794,0.097c0.05,0.003,0.099,0.008,0.149,0.011
				c14.149,1.011,26.565,9.25,33.75,21.226c2.248,3.597,3.779,7.195,4.731,10.916c0.64,2.634,1.048,5.369,1.188,8.185
				c0,0.007,0.001,0.013,0.001,0.02c0.036,0.732,0.054,1.47,0.054,2.213c0,0.709-0.019,1.412-0.052,2.111
				c-0.01,0.213-0.029,0.431-0.042,0.645c-0.031,0.498-0.063,0.996-0.11,1.489c-0.024,0.253-0.057,0.508-0.086,0.763
				c-0.049,0.436-0.1,0.871-0.161,1.302c-0.065,0.449-0.141,0.899-0.222,1.35c-0.031,0.179-0.06,0.359-0.094,0.538
				c-0.534,2.743-1.38,5.483-2.646,8.015c-0.258,0.644-0.428,1.308-0.536,1.976C304.061,432.828,289.418,442.733,272.067,442.733z
				 M340.333,417.133c-3.413,0-6.827-0.853-10.24-1.707c0.247-1.485,0.492-2.969,0.719-4.454c0.511-2.83,0.828-5.73,0.933-8.692
				c0.033-0.738,0.055-1.476,0.055-2.214c0-0.926-0.028-1.851-0.069-2.774c-0.012-0.26-0.027-0.519-0.042-0.778
				c-0.041-0.71-0.094-1.416-0.158-2.12c-0.022-0.235-0.04-0.472-0.064-0.706c-0.089-0.852-0.192-1.698-0.317-2.534
				c-0.083-0.571-0.187-1.134-0.286-1.699c-0.028-0.154-0.052-0.31-0.082-0.464c-0.374-2.037-0.846-4.036-1.418-5.992h10.969
				c5.12,0,8.533-3.413,8.533-8.533V349.72c14.507,4.267,25.6,17.067,25.6,33.28C374.467,401.773,359.107,417.133,340.333,417.133z"
				/>
			<path d="M186.733,101.4h85.333c5.12,0,8.533-3.413,8.533-8.533c0-5.12-3.413-8.533-8.533-8.533h-85.333
				c-5.12,0-8.533,3.413-8.533,8.533C178.2,97.987,181.613,101.4,186.733,101.4z"/>
			<path d="M391.533,144.067H331.8c-5.12,0-8.533,3.413-8.533,8.533c0,5.12,3.413,8.533,8.533,8.533h59.733
				c5.12,0,8.533-3.413,8.533-8.533C400.067,147.48,396.653,144.067,391.533,144.067z"/>
			<path d="M220.867,144.067c-5.12,0-8.533,3.413-8.533,8.533c0,5.12,3.413,8.533,8.533,8.533H280.6c5.12,0,8.533-3.413,8.533-8.533
				c0-5.12-3.413-8.533-8.533-8.533H220.867z"/>
			<path d="M169.667,161.133h17.067c5.12,0,8.533-3.413,8.533-8.533c0-5.12-3.413-8.533-8.533-8.533h-17.067
				c-5.12,0-8.533,3.413-8.533,8.533C161.133,157.72,164.547,161.133,169.667,161.133z"/>
			<path d="M391.533,178.2h-17.067c-5.12,0-8.533,3.413-8.533,8.533s3.413,8.533,8.533,8.533h17.067c5.12,0,8.533-3.413,8.533-8.533
				S396.653,178.2,391.533,178.2z"/>
			<path d="M348.867,186.733c0-5.12-3.413-8.533-8.533-8.533H255c-5.12,0-8.533,3.413-8.533,8.533s3.413,8.533,8.533,8.533h85.333
				C345.453,195.267,348.867,191.853,348.867,186.733z"/>
			<path d="M169.667,195.267H203.8c5.12,0,8.533-3.413,8.533-8.533s-3.413-8.533-8.533-8.533h-34.133
				c-5.12,0-8.533,3.413-8.533,8.533S164.547,195.267,169.667,195.267z"/>
			<path d="M391.533,212.333H306.2c-5.12,0-8.533,3.413-8.533,8.533s3.413,8.533,8.533,8.533h85.333c5.12,0,8.533-3.413,8.533-8.533
				S396.653,212.333,391.533,212.333z"/>
			<path d="M220.867,212.333c-5.12,0-8.533,3.413-8.533,8.533s3.413,8.533,8.533,8.533H255c5.12,0,8.533-3.413,8.533-8.533
				s-3.413-8.533-8.533-8.533H220.867z"/>
			<path d="M195.267,220.867c0-5.12-3.413-8.533-8.533-8.533h-17.067c-5.12,0-8.533,3.413-8.533,8.533s3.413,8.533,8.533,8.533
				h17.067C191.853,229.4,195.267,225.987,195.267,220.867z"/>
		</g>
	</g>
</g>
<g>
</g>
<g>
</g>
<g>
</g>
<g>
</g>
<g>
</g>
<g>
</g>
<g>
</g>
<g>
</g>
<g>
</g>
<g>
</g>
<g>
</g>
<g>
</g>
<g>
</g>
<g>
</g>
<g>
</g>
</svg>
