<?xml version="1.0" encoding="iso-8859-1"?>
<!-- Generator: Adobe Illustrator 19.0.0, SVG Export Plug-In . SVG Version: 6.00 Build 0)  -->
<svg version="1.1" id="Layer_1" xmlns="http://www.w3.org/2000/svg" xmlns:xlink="http://www.w3.org/1999/xlink" x="0px" y="0px"
	 viewBox="0 0 512 512" style="enable-background:new 0 0 512 512;" xml:space="preserve">
<g transform="translate(1 1)">
	<g>
		<path d="M280.6,365.933v-25.6h119.467c18.773,0,34.133-15.36,34.133-34.133V195.267c0-18.773-15.36-34.133-34.133-34.133H383V127
			V76.003c10.418-7.715,17.067-20.118,17.067-34.336C400.067,17.773,381.293-1,357.4-1H152.6c-23.893,0-42.667,18.773-42.667,42.667
			c0,14.218,6.649,26.621,17.067,34.336V127v34.133h-17.067c-18.773,0-34.133,15.36-34.133,34.133V306.2
			c0,18.773,15.36,34.133,34.133,34.133H229.4v25.6h17.067V383H229.4v9.912l-104.96,24.222c-4.267,0.853-6.827,5.973-5.973,10.24
			v7.064C99.17,436.536,84.333,452.71,84.333,472.6c0,21.333,17.067,38.4,38.4,38.4c21.333,0,38.4-17.067,38.4-38.4
			c0-16.836-10.633-31.006-25.6-36.236v-3.739l93.867-21.661v2.757l-20.501,20.501c-0.278-0.006-0.553-0.021-0.833-0.021
			c-21.333,0-38.4,17.067-38.4,38.4c0,21.333,17.067,38.4,38.4,38.4c21.333,0,38.4-17.067,38.4-38.4
			c0-14.198-7.565-26.498-18.91-33.143l13.79-13.79h27.307l13.79,13.79c-11.345,6.645-18.91,18.945-18.91,33.143
			c0,21.333,17.067,38.4,38.4,38.4c21.333,0,38.4-17.067,38.4-38.4c0-21.333-17.067-38.4-38.4-38.4
			c-0.279,0-0.555,0.015-0.833,0.021L280.6,413.72v-2.757l93.867,21.661v3.739c-14.967,5.23-25.6,19.4-25.6,36.236
			c0,21.333,17.067,38.4,38.4,38.4s38.4-17.067,38.4-38.4c0-19.89-14.837-36.064-34.133-38.163v-7.064
			c0.22-1.098,0.153-2.252-0.135-3.376c-0.484-3.036-2.302-5.282-5.004-6.283c-0.542-0.262-1.106-0.464-1.688-0.581L280.6,393.109
			V383h-17.067v-17.067H280.6z M144.067,472.6c0,11.947-9.387,21.333-21.333,21.333S101.4,484.547,101.4,472.6
			c0-11.947,9.387-21.333,21.333-21.333S144.067,460.653,144.067,472.6z M208.067,493.933c-11.947,0-21.333-9.387-21.333-21.333
			c0-11.947,9.387-21.333,21.333-21.333S229.4,460.653,229.4,472.6C229.4,484.547,220.013,493.933,208.067,493.933z M323.267,472.6
			c0,11.947-9.387,21.333-21.333,21.333S280.6,484.547,280.6,472.6c0-11.947,9.387-21.333,21.333-21.333
			S323.267,460.653,323.267,472.6z M408.6,472.6c0,11.947-9.387,21.333-21.333,21.333c-11.947,0-21.333-9.387-21.333-21.333
			c0-11.947,9.387-21.333,21.333-21.333C399.213,451.267,408.6,460.653,408.6,472.6z M246.467,400.067h16.947
			c0.016,0.34,0.06,0.681,0.12,1.021v7.512h-17.067V400.067z M144.067,169.667v-34.133h221.867v34.133v102.4H144.067V169.667z
			 M152.6,16.067h204.8c14.507,0,25.6,11.093,25.6,25.6c0,14.507-11.093,25.6-25.6,25.6H152.6c-14.507,0-25.6-11.093-25.6-25.6
			C127,27.16,138.093,16.067,152.6,16.067z M357.4,84.333h8.533v34.133H144.067V84.333h8.533H357.4z M109.933,323.267
			c-9.387,0-17.067-7.68-17.067-17.067V195.267c0-9.387,7.68-17.067,17.067-17.067H127v102.4c0,5.12,3.413,8.533,8.533,8.533
			h238.933c5.12,0,8.533-3.413,8.533-8.533V178.2h17.067c9.387,0,17.067,7.68,17.067,17.067V306.2
			c0,9.387-7.68,17.067-17.067,17.067H280.6h-51.2H109.933z M263.533,340.333v8.533h-17.067v-8.533H263.533z"/>
	</g>
</g>
<g>
</g>
<g>
</g>
<g>
</g>
<g>
</g>
<g>
</g>
<g>
</g>
<g>
</g>
<g>
</g>
<g>
</g>
<g>
</g>
<g>
</g>
<g>
</g>
<g>
</g>
<g>
</g>
<g>
</g>
</svg>
