<?xml version="1.0" encoding="iso-8859-1"?>
<!-- Generator: Adobe Illustrator 19.0.0, SVG Export Plug-In . SVG Version: 6.00 Build 0)  -->
<svg version="1.1" id="Layer_1" xmlns="http://www.w3.org/2000/svg" xmlns:xlink="http://www.w3.org/1999/xlink" x="0px" y="0px"
	 viewBox="0 0 503.715 503.715" style="enable-background:new 0 0 503.715 503.715;" xml:space="preserve">
<g transform="translate(1 1)">
	<g>
		<path d="M495.052,8.249l-0.839-0.839C484.141-2.663,458.121-4.342,446.37,6.57L72.862,357.416
			c-0.168,0.168-0.322,0.337-0.473,0.506c-0.123,0.11-0.248,0.215-0.366,0.333c-9.233,9.233-26.02,9.233-35.252,0
			c-1.679-1.679-5.036-2.518-8.393-1.679c-3.357,0.839-5.036,3.357-5.875,6.715L5.292,484.58l-3.774,3.774
			c-3.357,3.357-3.357,8.393,0,11.751c1.679,1.679,3.357,2.518,5.875,2.518c2.518,0,4.197-0.839,5.875-2.518l3.774-3.774
			l121.289-17.21c3.357-0.839,5.875-2.518,6.715-5.875c1.679-2.518,0.839-5.875-1.679-8.393c-10.072-9.233-10.072-25.18,0-35.253
			c0.16-0.16,0.304-0.326,0.449-0.493c0.132-0.114,0.267-0.223,0.391-0.346L459.63,93.011c0.358-0.251,0.702-0.52,1.009-0.828
			l28.226-30.291l7.027-7.48C505.125,41.822,505.125,21.678,495.052,8.249z M453.925,74.557l-26.859-26.859l31.056-28.538
			c1.956-1.304,5.944-3.108,10.772-3.458c5.009,0.016,10.114,1.278,12.729,3.458c5.036,7.554,5.036,19.305,0.839,25.18
			L453.925,74.557z M414.893,59.027l27.702,27.702L137.492,411.134l-47.003-47.003L414.893,59.027z M123.223,464.012l-86.173,12.31
			l24.061-24.061c3.357-3.357,3.357-8.393,0-11.751c-3.357-3.357-8.393-3.357-11.751,0l-24.061,24.061l12.31-86.173
			c12.59,5.875,28.538,4.197,40.289-3.357l48.682,48.682C118.187,435.475,117.348,451.422,123.223,464.012z"/>
	</g>
</g>
<g>
</g>
<g>
</g>
<g>
</g>
<g>
</g>
<g>
</g>
<g>
</g>
<g>
</g>
<g>
</g>
<g>
</g>
<g>
</g>
<g>
</g>
<g>
</g>
<g>
</g>
<g>
</g>
<g>
</g>
</svg>
