<?xml version="1.0" encoding="iso-8859-1"?>
<!-- Generator: Adobe Illustrator 19.0.0, SVG Export Plug-In . SVG Version: 6.00 Build 0)  -->
<svg version="1.1" id="Layer_1" xmlns="http://www.w3.org/2000/svg" xmlns:xlink="http://www.w3.org/1999/xlink" x="0px" y="0px"
	 viewBox="0 0 512 512" style="enable-background:new 0 0 512 512;" xml:space="preserve">
<g transform="translate(1 1)">
	<g>
		<path d="M508.44,146.627l-17.92-17.92c-3.413-3.413-8.533-3.413-11.947,0l-24.32,24.32l-6.4-6.4l36.693-36.693
			c0.853-0.853,2.56-3.413,2.56-5.973s-0.853-4.267-2.56-5.973l-0.427-0.427l15.787-15.787c14.507-14.507,14.507-37.547,0-52.053
			L480.28,10.093C473.453,3.267,464.067-1,453.827-1c-9.387,0-18.773,4.267-26.453,10.24l-15.807,15.807
			c-3.401-2.992-8.231-2.862-11.5,0.407L56.173,369.347l-1.707,1.707c-30.638,30.638-46.809,73.328-43.843,116.376l-9.064,9.064
			c-3.413,3.413-3.413,8.533,0,11.947c1.707,1.707,3.413,2.56,5.973,2.56s4.267-0.853,5.973-2.56l8.858-8.858
			c3.323,0.32,6.84,0.325,9.915,0.325c40.107,0,78.507-16.213,106.667-44.373l296.96-296.96l6.4,6.4L309.613,297.667
			c-3.413,3.413-3.413,8.533,0,11.947l17.92,17.92c1.707,1.707,3.413,2.56,5.973,2.56c1.707,0,4.267-0.853,5.973-2.56l168.96-168.96
			C511.853,155.16,511.853,150.04,508.44,146.627z M439.32,22.04c7.68-7.68,21.333-7.68,29.013,0l20.48,20.48
			c7.68,7.68,7.68,20.48,0,28.16l-15.787,15.787l-48.651-48.652L439.32,22.04z M405.613,43.8l60.16,60.16
			c0.147,0.147,0.294,0.278,0.441,0.412l-36.28,36.28c0,0,0,0-0.001,0.001s0,0-0.001,0.001L132.892,437.695
			c-13.247-6.708-25.081-15.857-34.905-25.681c-9.824-9.824-18.974-21.659-25.681-34.905l32.081-32.081l30.293,30.293
			c1.707,1.707,3.413,2.56,5.973,2.56c1.707,0,4.267-0.853,5.973-2.56l247.467-247.467c3.413-3.413,3.413-8.533,0-11.947
			L363.8,85.613L405.613,43.8z M351.427,97.987l23.893,23.893L139.8,357.4l-23.893-23.893L351.427,97.987z M28.304,465.224
			c0.027-0.315,0.054-0.631,0.083-0.946c0.046-0.517,0.098-1.033,0.15-1.549c2.781-26.61,14.009-52.255,31.903-72.902
			c6.827,12.8,15.36,23.893,25.6,34.133c10.24,9.387,21.333,18.773,34.133,25.6c-25.6,22.187-58.027,33.28-92.16,32.427
			C27.752,476.369,27.855,470.771,28.304,465.224z M333.507,309.613l-5.973-5.973l157.013-157.013l5.973,5.973L333.507,309.613z"/>
	</g>
</g>
<g>
</g>
<g>
</g>
<g>
</g>
<g>
</g>
<g>
</g>
<g>
</g>
<g>
</g>
<g>
</g>
<g>
</g>
<g>
</g>
<g>
</g>
<g>
</g>
<g>
</g>
<g>
</g>
<g>
</g>
</svg>
