<?xml version="1.0" encoding="iso-8859-1"?>
<!-- Generator: Adobe Illustrator 19.0.0, SVG Export Plug-In . SVG Version: 6.00 Build 0)  -->
<svg version="1.1" id="Layer_1" xmlns="http://www.w3.org/2000/svg" xmlns:xlink="http://www.w3.org/1999/xlink" x="0px" y="0px"
	 viewBox="0 0 511.787 511.787" style="enable-background:new 0 0 511.787 511.787;" xml:space="preserve">
<g transform="translate(1 1)">
	<g>
		<path d="M450.305,59.373c-2.56-3.413-5.973-6.827-10.24-7.68l-8.533-2.56c-4.267-0.853-8.533-0.853-12.8,1.707
			c-3.413,2.56-6.827,5.973-7.68,10.24l-2.326,8.804l-8.272-2.282l4.624-16.762c0.853-4.267,0.853-8.533-1.707-12.8
			c-2.56-3.413-5.973-6.827-10.24-7.68l-49.493-13.653c-4.267-0.853-8.533-0.853-12.8,1.707c-4.267,1.707-6.827,5.973-7.68,10.24
			l-5.832,21.14c-0.84,0.913-1.349,2.11-1.848,3.607l-26.453,98.987c-0.853,4.267,1.707,9.387,5.973,10.24l0.234,0.064
			l-15.684,57.963h-4.176V84.12c0-23.893-8.533-47.787-23.04-65.707L239.532,2.2c-3.413-4.267-10.24-4.267-13.653,0l-12.8,16.213
			c-14.507,17.92-23.04,41.813-23.04,65.707v136.533h-5.851l-39.376-148.48l-4.267-16.213c-2.56-11.093-9.387-19.627-19.627-25.6
			c-9.387-5.973-21.333-7.68-32.427-4.267c-11.093,2.56-19.627,9.387-25.6,19.627S56.065,67.053,58.625,79l4.267,16.213
			c0.133,0.267,0.281,0.526,0.434,0.781l34.125,128.564c-10.879,5.723-18.346,17.143-18.346,30.228
			c0,15.83,10.921,29.232,25.6,33.046v188.821c0,18.773,15.36,34.133,34.133,34.133h187.733c18.773,0,34.133-15.36,34.133-34.133
			V442.52v-102.4v-52.288c14.679-3.814,25.6-17.216,25.6-33.046c0-18.773-15.36-34.133-34.133-34.133h-1.256l10.886-40.107
			c0.488,0,0.975,0,1.463,0c1.707,0,3.413,0,4.267-0.853c2.56-0.853,3.413-2.56,4.267-5.12l24.263-90.793l8.383,2.312l-17.286,65.44
			c-0.853,4.267-0.853,8.533,1.707,12.8c2.56,3.413,5.973,6.827,10.24,7.68l8.533,2.56c1.707,0.853,2.56,0.853,4.267,0.853
			c2.56,0,5.12-0.853,8.533-2.56c3.413-2.56,6.827-5.973,7.68-10.24l23.893-90.453C452.865,67.907,452.865,63.64,450.305,59.373z
			 M339.372,32.92l49.493,13.653l-4.267,16.213l-49.493-13.653L339.372,32.92z M258.305,92.653v128h-17.067v-128H258.305z
			 M226.732,28.653l5.973-7.68l6.827,7.68c10.24,13.653,17.067,29.867,18.773,46.933h-51.2
			C208.812,58.52,215.638,42.307,226.732,28.653z M207.105,92.653h17.067v128h-17.067V92.653z M131.315,85.551l36.537,135.102
			h-52.907L81.783,99.06L131.315,85.551z M77.398,54.253c3.413-5.973,9.387-10.24,16.213-11.947
			c1.707-0.853,4.267-0.853,5.973-0.853c5.12,0,9.387,0.853,12.8,3.413c5.973,3.413,10.24,9.387,11.947,15.36l2.431,8.103
			L77.226,81.84l-2.388-7.96C73.132,67.053,73.985,60.227,77.398,54.253z M326.572,493.72H138.839
			c-9.387,0-17.067-7.68-17.067-17.067V288.92h221.867v42.667H198.572c-5.12,0-8.533,3.413-8.533,8.533v102.4
			c0,5.12,3.413,8.533,8.533,8.533h145.067v25.6C343.639,486.04,335.958,493.72,326.572,493.72z M343.639,365.72H232.705
			c-5.12,0-8.533,3.413-8.533,8.533s3.413,8.533,8.533,8.533h110.933v17.067h-93.867c-5.12,0-8.533,3.413-8.533,8.533
			s3.413,8.533,8.533,8.533h93.867v17.067H207.105v-85.333h136.533V365.72z M369.239,254.787c0,9.387-7.68,17.067-17.067,17.067
			H113.239c-9.387,0-17.067-7.68-17.067-17.067c0-7.549,4.972-13.986,11.8-16.22c0.049,0.001,0.098,0.007,0.147,0.007
			c0.652,0,0.808-0.003,1.226-0.385c1.254-0.296,2.553-0.469,3.894-0.469h65.707h19.627h68.267h19.627h52.907h12.8
			C361.559,237.72,369.239,245.4,369.239,254.787z M297.559,220.653l13.616-53.615l33.145,9.039l-11.775,44.575H297.559z
			 M357.351,161.554l-48.699-13.434c-0.276-0.092-0.539-0.156-0.797-0.21l22.034-82.202l49.532,13.509L357.351,161.554z
			 M411.905,158.36l-8.533-2.56l18.917-71.613c0.311-0.556,0.554-1.15,0.71-1.773c0.099-0.494,0.147-1,0.157-1.509l4.11-15.558
			l8.533,2.56L411.905,158.36z"/>
	</g>
</g>
<g>
</g>
<g>
</g>
<g>
</g>
<g>
</g>
<g>
</g>
<g>
</g>
<g>
</g>
<g>
</g>
<g>
</g>
<g>
</g>
<g>
</g>
<g>
</g>
<g>
</g>
<g>
</g>
<g>
</g>
</svg>
