<?xml version="1.0" encoding="iso-8859-1"?>
<!-- Generator: Adobe Illustrator 19.0.0, SVG Export Plug-In . SVG Version: 6.00 Build 0)  -->
<svg version="1.1" id="Layer_1" xmlns="http://www.w3.org/2000/svg" xmlns:xlink="http://www.w3.org/1999/xlink" x="0px" y="0px"
	 viewBox="0 0 512 512" style="enable-background:new 0 0 512 512;" xml:space="preserve">
<g transform="translate(1 1)">
	<g>
		<g>
			<path d="M299.138,140.241H255c-5.297,0-8.828,3.531-8.828,8.828v44.138c0,5.297,3.531,8.828,8.828,8.828h44.138
				c5.297,0,8.828-3.531,8.828-8.828v-44.138C307.966,143.772,304.434,140.241,299.138,140.241z M290.31,184.379h-26.483v-26.483
				h26.483V184.379z"/>
			<path d="M378.586,140.241h-44.138c-5.297,0-8.828,3.531-8.828,8.828v44.138c0,5.297,3.531,8.828,8.828,8.828h44.138
				c5.297,0,8.828-3.531,8.828-8.828v-44.138C387.414,143.772,383.883,140.241,378.586,140.241z M369.759,184.379h-26.483v-26.483
				h26.483V184.379z"/>
			<path d="M458.034,140.241h-44.138c-5.297,0-8.828,3.531-8.828,8.828v44.138c0,5.297,3.531,8.828,8.828,8.828h44.138
				c5.297,0,8.828-3.531,8.828-8.828v-44.138C466.862,143.772,463.331,140.241,458.034,140.241z M449.207,184.379h-26.483v-26.483
				h26.483V184.379z"/>
			<path d="M299.138,219.69H255c-5.297,0-8.828,3.531-8.828,8.828v44.138c0,5.297,3.531,8.828,8.828,8.828h44.138
				c5.297,0,8.828-3.531,8.828-8.828v-44.138C307.966,223.221,304.434,219.69,299.138,219.69z M290.31,263.828h-26.483v-26.483
				h26.483V263.828z"/>
			<path d="M378.586,219.69h-44.138c-5.297,0-8.828,3.531-8.828,8.828v44.138c0,5.297,3.531,8.828,8.828,8.828h44.138
				c5.297,0,8.828-3.531,8.828-8.828v-44.138C387.414,223.221,383.883,219.69,378.586,219.69z M369.759,263.828h-26.483v-26.483
				h26.483V263.828z"/>
			<path d="M458.034,219.69h-44.138c-5.297,0-8.828,3.531-8.828,8.828v44.138c0,5.297,3.531,8.828,8.828,8.828h44.138
				c5.297,0,8.828-3.531,8.828-8.828v-44.138C466.862,223.221,463.331,219.69,458.034,219.69z M449.207,263.828h-26.483v-26.483
				h26.483V263.828z"/>
			<path d="M299.138,299.138H255c-5.297,0-8.828,3.531-8.828,8.828v44.138c0,5.297,3.531,8.828,8.828,8.828h44.138
				c5.297,0,8.828-3.531,8.828-8.828v-44.138C307.966,302.669,304.434,299.138,299.138,299.138z M290.31,343.276h-26.483v-26.483
				h26.483V343.276z"/>
			<path d="M378.586,299.138h-44.138c-5.297,0-8.828,3.531-8.828,8.828v44.138c0,5.297,3.531,8.828,8.828,8.828h44.138
				c5.297,0,8.828-3.531,8.828-8.828v-44.138C387.414,302.669,383.883,299.138,378.586,299.138z M369.759,343.276h-26.483v-26.483
				h26.483V343.276z"/>
			<path d="M458.034,299.138h-44.138c-5.297,0-8.828,3.531-8.828,8.828v44.138c0,5.297,3.531,8.828,8.828,8.828h44.138
				c5.297,0,8.828-3.531,8.828-8.828v-44.138C466.862,302.669,463.331,299.138,458.034,299.138z M449.207,343.276h-26.483v-26.483
				h26.483V343.276z"/>
			<path d="M299.138,378.586H255c-5.297,0-8.828,3.531-8.828,8.828v44.138c0,5.297,3.531,8.828,8.828,8.828h44.138
				c5.297,0,8.828-3.531,8.828-8.828v-44.138C307.966,382.117,304.434,378.586,299.138,378.586z M290.31,422.724h-26.483v-26.483
				h26.483V422.724z"/>
			<path d="M378.586,378.586h-44.138c-5.297,0-8.828,3.531-8.828,8.828v44.138c0,5.297,3.531,8.828,8.828,8.828h44.138
				c5.297,0,8.828-3.531,8.828-8.828v-44.138C387.414,382.117,383.883,378.586,378.586,378.586z M369.759,422.724h-26.483v-26.483
				h26.483V422.724z"/>
			<path d="M458.034,378.586h-44.138c-5.297,0-8.828,3.531-8.828,8.828v44.138c0,5.297,3.531,8.828,8.828,8.828h44.138
				c5.297,0,8.828-3.531,8.828-8.828v-44.138C466.862,382.117,463.331,378.586,458.034,378.586z M449.207,422.724h-26.483v-26.483
				h26.483V422.724z"/>
			<path d="M290.31,51.966h26.483c5.297,0,8.828-3.531,8.828-8.828s-3.531-8.828-8.828-8.828H290.31
				c-5.297,0-8.828,3.531-8.828,8.828S285.014,51.966,290.31,51.966z"/>
			<path d="M352.103,51.966h70.621c5.297,0,8.828-3.531,8.828-8.828s-3.531-8.828-8.828-8.828h-70.621
				c-5.297,0-8.828,3.531-8.828,8.828S346.807,51.966,352.103,51.966z"/>
			<path d="M290.31,87.276h70.621c5.297,0,8.828-3.531,8.828-8.828c0-5.297-3.531-8.828-8.828-8.828H290.31
				c-5.297,0-8.828,3.531-8.828,8.828C281.483,83.745,285.014,87.276,290.31,87.276z"/>
			<path d="M422.724,69.621h-26.483c-5.297,0-8.828,3.531-8.828,8.828c0,5.297,3.531,8.828,8.828,8.828h26.483
				c5.297,0,8.828-3.531,8.828-8.828C431.552,73.152,428.021,69.621,422.724,69.621z"/>
			<path d="M475.69,34.31h-8.828v-8.828C466.862,10.476,455.386-1,440.379-1H272.655c-15.007,0-26.483,11.476-26.483,26.483v8.828
				H219.69v-8.828C219.69,10.476,208.214-1,193.207-1H69.621C54.614-1,43.138,10.476,43.138,25.483v8.828H34.31
				c-15.007,0-26.483,11.476-26.483,26.483v26.483v397.241C7.828,499.524,19.303,511,34.31,511H475.69
				c15.007,0,26.483-11.476,26.483-26.483V87.276V60.793C502.172,45.786,490.697,34.31,475.69,34.31z M475.69,51.966
				c5.297,0,8.828,3.531,8.828,8.828v17.655h-17.655V51.966H475.69z M263.828,25.483c0-5.297,3.531-8.828,8.828-8.828h167.724
				c5.297,0,8.828,3.531,8.828,8.828v17.655v44.138v8.828c0,5.297-3.531,8.828-8.828,8.828H272.655
				c-5.297,0-8.828-3.531-8.828-8.828v-8.828V43.138V25.483z M246.172,51.966v26.483H219.69V51.966H246.172z M60.793,25.483
				c0-5.297,3.531-8.828,8.828-8.828h123.586c5.297,0,8.828,3.531,8.828,8.828v17.655v44.138v344.276
				c0,5.297-3.531,8.828-8.828,8.828H69.621c-5.297,0-8.828-3.531-8.828-8.828V87.276V43.138V25.483z M25.483,60.793
				c0-5.297,3.531-8.828,8.828-8.828h8.828v26.483H25.483V60.793z M475.69,493.345H34.31c-5.297,0-8.828-3.531-8.828-8.828V96.103
				h17.655v335.448c0,15.007,11.476,26.483,26.483,26.483h123.586c15.007,0,26.483-11.476,26.483-26.483V96.103h26.483
				c0,15.007,11.476,26.483,26.483,26.483h167.724c15.007,0,26.483-11.476,26.483-26.483h17.655v388.414
				C484.517,489.814,480.986,493.345,475.69,493.345z"/>
		</g>
	</g>
</g>
<g>
</g>
<g>
</g>
<g>
</g>
<g>
</g>
<g>
</g>
<g>
</g>
<g>
</g>
<g>
</g>
<g>
</g>
<g>
</g>
<g>
</g>
<g>
</g>
<g>
</g>
<g>
</g>
<g>
</g>
</svg>
