<?xml version="1.0" encoding="iso-8859-1"?>
<!-- Generator: Adobe Illustrator 19.0.0, SVG Export Plug-In . SVG Version: 6.00 Build 0)  -->
<svg version="1.1" id="Layer_1" xmlns="http://www.w3.org/2000/svg" xmlns:xlink="http://www.w3.org/1999/xlink" x="0px" y="0px"
	 viewBox="0 0 505.759 505.759" style="enable-background:new 0 0 505.759 505.759;" xml:space="preserve">
<g transform="translate(1 1)">
	<g>
		<g>
			<path d="M345.746,170.813c-42.667,0-76.8,34.133-76.8,76.8s34.133,76.8,76.8,76.8c42.667,0,76.8-34.133,76.8-76.8
				S388.413,170.813,345.746,170.813z M345.746,307.346c-33.28,0-59.733-26.453-59.733-59.733c0-33.28,26.453-59.733,59.733-59.733
				s59.733,26.453,59.733,59.733C405.48,280.893,379.026,307.346,345.746,307.346z"/>
			<path d="M345.746,204.946c-23.893,0-42.667,18.773-42.667,42.667c0,5.12,3.413,8.533,8.533,8.533s8.533-3.413,8.533-8.533
				c0-14.507,11.093-25.6,25.6-25.6c5.12,0,8.533-3.413,8.533-8.533C354.28,208.359,350.866,204.946,345.746,204.946z"/>
			<path d="M72.68,222.013h102.4c5.12,0,8.533-3.413,8.533-8.533c0-5.12-3.413-8.533-8.533-8.533H72.68
				c-5.12,0-8.533,3.413-8.533,8.533C64.146,218.6,67.56,222.013,72.68,222.013z"/>
			<path d="M72.68,256.146h102.4c5.12,0,8.533-3.413,8.533-8.533s-3.413-8.533-8.533-8.533H72.68c-5.12,0-8.533,3.413-8.533,8.533
				S67.56,256.146,72.68,256.146z"/>
			<path d="M72.68,290.28h102.4c5.12,0,8.533-3.413,8.533-8.533c0-5.12-3.413-8.533-8.533-8.533H72.68
				c-5.12,0-8.533,3.413-8.533,8.533C64.146,286.866,67.56,290.28,72.68,290.28z"/>
			<path d="M472.039,167.4l-44.267-6.439c-21.44-20.312-50.343-32.814-82.026-32.814c-22.337,0-43.289,6.218-61.222,17.001
				c-50.445-1.553-101.665,1.023-150.404,7.746L31.72,167.4c-20.48,2.56-34.987,20.48-32.427,40.96L11.24,318.44
				c1.707,13.653,12.8,23.04,25.6,23.04h13.227l7.253,14.507c5.973,11.947,18.773,19.627,32.427,19.627
				c13.653,0,26.453-7.68,32.427-19.627l7.253-14.507h142.635c20.335,16.018,45.945,25.6,73.685,25.6
				c13.513,0,26.519-2.278,38.659-6.462c6.671,9.259,17.816,14.996,29.608,14.996c13.653,0,26.453-7.68,32.427-18.773l7.68-15.36
				h12.8c12.8,0,23.893-9.387,25.6-22.187l11.947-110.08C507.026,188.733,492.52,169.96,472.039,167.4z M28.306,316.733
				L16.36,206.653c-1.707-11.093,5.973-21.333,17.92-22.187l102.4-14.507c37.547-5.12,75.947-7.68,114.347-7.68
				c4.267,0,7.68,0,11.093,0c-23.04,22.187-35.84,52.907-35.84,85.333c0,0.94,0.013,1.878,0.036,2.816
				c0.012,0.503,0.033,1.004,0.051,1.506c0.015,0.39,0.026,0.781,0.045,1.171c0.034,0.736,0.077,1.469,0.125,2.202
				c0.007,0.098,0.012,0.196,0.019,0.294c1.743,26.072,11.946,49.92,27.873,68.811H123.88H55.613H36.84
				C32.573,324.413,29.16,321,28.306,316.733z M106.813,348.306c-3.413,5.973-9.387,10.24-17.067,10.24
				c-7.68,0-13.653-3.413-17.067-10.24l-3.413-6.827h40.96L106.813,348.306z M245.984,270.679c-0.001-0.006-0.003-0.011-0.004-0.017
				c-0.165-0.708-0.318-1.421-0.468-2.134c-0.035-0.165-0.071-0.329-0.104-0.495c-0.129-0.63-0.249-1.263-0.366-1.897
				c-0.047-0.255-0.094-0.509-0.139-0.765c-0.102-0.578-0.198-1.158-0.29-1.739c-0.05-0.318-0.1-0.637-0.147-0.956
				c-0.08-0.537-0.156-1.075-0.228-1.614c-0.049-0.372-0.095-0.745-0.141-1.119c-0.061-0.499-0.12-0.999-0.173-1.501
				c-0.045-0.425-0.085-0.852-0.125-1.278c-0.043-0.46-0.087-0.919-0.124-1.38c-0.039-0.484-0.07-0.969-0.101-1.454
				c-0.027-0.414-0.057-0.827-0.079-1.242c-0.03-0.572-0.051-1.146-0.072-1.72c-0.012-0.335-0.03-0.669-0.039-1.004
				c-0.024-0.915-0.038-1.831-0.038-2.751c0-1.006,0.019-2.009,0.048-3.011c0.008-0.289,0.022-0.577,0.033-0.866
				c0.028-0.737,0.062-1.473,0.106-2.207c0.017-0.294,0.036-0.588,0.056-0.882c0.055-0.797,0.118-1.592,0.191-2.385
				c0.018-0.196,0.034-0.392,0.053-0.587c0.203-2.071,0.467-4.13,0.794-6.174c0.011-0.066,0.022-0.132,0.033-0.199
				c0.156-0.96,0.325-1.917,0.508-2.871c0.02-0.105,0.04-0.209,0.061-0.314c0.6-3.077,1.339-6.116,2.215-9.11
				c0.023-0.08,0.048-0.159,0.071-0.238c0.258-0.874,0.53-1.744,0.811-2.611c0.057-0.174,0.113-0.349,0.171-0.523
				c0.268-0.811,0.548-1.618,0.836-2.422c0.057-0.159,0.111-0.319,0.169-0.477c0.326-0.894,0.665-1.783,1.015-2.667
				c0.156-0.393,0.32-0.782,0.482-1.173c0.181-0.441,0.363-0.882,0.55-1.32c0.244-0.57,0.494-1.138,0.748-1.703
				c0.086-0.193,0.174-0.384,0.261-0.576c16.181-35.36,51.937-60.084,93.189-60.084c35.678,0,67.24,18.496,85.588,46.369
				c10.289,15.892,16.289,34.217,16.779,53.467c0.021,0.852,0.033,1.707,0.033,2.564c0,0.9-0.013,1.8-0.036,2.698
				c-0.013,0.48-0.036,0.957-0.055,1.435c-0.016,0.401-0.028,0.802-0.048,1.203c-0.038,0.722-0.085,1.442-0.138,2.16
				c-0.01,0.134-0.017,0.268-0.027,0.401c-4.066,52.667-48.432,94.502-102.096,94.502
				C297.351,350.013,256.517,315.988,245.984,270.679z M431.08,348.306c-3.413,5.973-9.387,10.24-17.067,10.24
				c-5.12,0-9.387-1.707-12.8-5.12c0.918-0.524,1.86-1.075,2.812-1.636c2.878-1.621,5.688-3.351,8.414-5.197
				c2.58-1.668,5.134-3.389,7.548-5.113h14.507L431.08,348.306z M487.4,206.653l-11.947,110.08c-0.853,4.267-4.267,7.68-8.533,7.68
				h-29.855c17.541-20.805,28.148-47.622,28.148-76.8c0-24.939-7.75-48.152-20.953-67.363l25.219,3.363
				C480.573,185.32,488.253,195.56,487.4,206.653z"/>
		</g>
	</g>
</g>
<g>
</g>
<g>
</g>
<g>
</g>
<g>
</g>
<g>
</g>
<g>
</g>
<g>
</g>
<g>
</g>
<g>
</g>
<g>
</g>
<g>
</g>
<g>
</g>
<g>
</g>
<g>
</g>
<g>
</g>
</svg>
