<?xml version="1.0" encoding="iso-8859-1"?>
<!-- Generator: Adobe Illustrator 19.0.0, SVG Export Plug-In . SVG Version: 6.00 Build 0)  -->
<svg version="1.1" id="Layer_1" xmlns="http://www.w3.org/2000/svg" xmlns:xlink="http://www.w3.org/1999/xlink" x="0px" y="0px"
	 viewBox="0 0 512.377 512.377" style="enable-background:new 0 0 512.377 512.377;" xml:space="preserve">
<g transform="translate(1)">
	<g>
		<path d="M472.6,39.526C446.147,9.659,414.573-1.434,357.4,0.273c-3.413,0-6.827,2.56-7.68,5.12
			c-1.707,3.413-0.853,6.827,2.56,9.387l34.321,34.524l-120.169,79.343c-50.655-31.76-118.342-30.484-167.591,6.454
			c-1.707,0.853-3.413,3.413-3.413,5.973s0.853,5.12,2.56,6.827l102.4,102.4L1.56,449.126c-1.707,1.707-2.56,3.413-2.56,5.973v48.64
			c0,5.12,3.413,8.533,8.533,8.533h48.64c1.707,0,4.267-0.853,5.973-2.56l198.827-198.827l102.4,102.4
			c1.707,1.707,3.413,2.56,5.973,2.56c3.413,0,5.973-1.707,6.827-3.413c36.869-49.159,38.823-116.076,6.911-167.031l78.741-120.428
			l34.667,34.873c1.707,1.707,3.413,2.56,5.973,2.56c0.853,0,1.707,0,2.56-0.853c3.413-0.853,5.973-3.413,5.973-6.827
			C513.56,122.299,503.32,74.513,472.6,39.526z M248.173,298.939L51.907,495.206h-35.84v-36.693l196.267-196.267l0.001,0.001
			L248.173,298.939z M368.493,393.659l-250.88-250.88c42.87-27.611,98.73-26.755,141.245,0.448c0.517,0.785,1.204,1.505,2.115,2.112
			c6.827,4.267,12.8,9.387,18.773,15.36l70.827,70.827c5.973,5.973,11.093,11.947,15.36,18.773c0.501,0.501,1.082,0.997,1.709,1.455
			C395.251,294.261,396.064,350.128,368.493,393.659z M372.76,230.673c-3.413-4.267-6.827-7.68-10.24-11.093l-70.827-70.827
			c-3.413-3.413-6.827-6.827-10.24-9.387l117.76-76.8l50.347,50.347L372.76,230.673z M468.262,107.722
			c-0.407-0.955-0.959-1.813-1.635-2.489L406.04,44.646c-0.7-0.525-1.436-0.973-2.193-1.339L377.88,17.339
			c39.253,1.707,62.293,11.093,81.92,33.28c21.333,23.893,32.427,56.32,34.133,82.773L468.262,107.722z"/>
	</g>
</g>
<g>
</g>
<g>
</g>
<g>
</g>
<g>
</g>
<g>
</g>
<g>
</g>
<g>
</g>
<g>
</g>
<g>
</g>
<g>
</g>
<g>
</g>
<g>
</g>
<g>
</g>
<g>
</g>
<g>
</g>
</svg>
