<?xml version="1.0" encoding="iso-8859-1"?>
<!-- Generator: Adobe Illustrator 19.0.0, SVG Export Plug-In . SVG Version: 6.00 Build 0)  -->
<svg version="1.1" id="Layer_1" xmlns="http://www.w3.org/2000/svg" xmlns:xlink="http://www.w3.org/1999/xlink" x="0px" y="0px"
	 viewBox="0 0 512 512" style="enable-background:new 0 0 512 512;" xml:space="preserve">
<g transform="translate(1 1)">
	<g>
		<g>
			<path d="M508.44,74.093L435.907,1.56c-3.413-3.413-8.533-3.413-11.947,0L1.56,423.96c-1.707,1.707-2.56,3.413-2.56,5.973
				s0.853,4.267,2.56,5.973l72.533,72.533c1.707,1.707,3.413,2.56,5.973,2.56s4.267-0.853,5.973-2.56l422.4-422.4
				C511.853,82.627,511.853,77.507,508.44,74.093z M423.96,146.627l-11.947-11.947c-3.413-3.413-8.533-3.413-11.947,0
				c-3.413,3.413-3.413,8.533,0,11.947l11.947,11.947l-11.947,11.947l-11.947-11.947c-3.413-3.413-8.533-3.413-11.947,0
				c-3.413,3.413-3.413,8.533,0,11.947l11.947,11.947l-12.373,12.373l-12.373-12.373c-3.413-3.413-8.533-3.413-11.947,0
				c-3.413,3.413-3.413,8.533,0,11.947l12.373,12.373l-12.373,12.373l-11.947-11.947c-3.413-3.413-8.533-3.413-11.947,0
				c-3.413,3.413-3.413,8.533,0,11.947l11.947,11.947l-11.947,11.947l-29.867-29.867c-3.413-3.413-8.533-3.413-11.947,0
				c-3.413,3.413-3.413,8.533,0,11.947L315.587,255l-11.947,11.947L291.693,255c-3.413-3.413-8.533-3.413-11.947,0
				c-3.413,3.413-3.413,8.533,0,11.947l11.947,11.947l-12.373,12.373l-12.373-12.373c-3.413-3.413-8.533-3.413-11.947,0
				s-3.413,8.533,0,11.947l12.086,12.661L255,315.587l-11.947-11.947c-3.413-3.413-8.533-3.413-11.947,0s-3.413,8.533,0,11.947
				l11.947,11.947l-11.947,11.947l-11.947-11.947c-3.413-3.413-8.533-3.413-11.947,0c-3.413,3.413-3.413,8.533,0,11.947
				l11.947,11.947L206.787,363.8l-30.293-30.293c-3.413-3.413-8.533-3.413-11.947,0s-3.413,8.533,0,11.947l30.293,30.293
				l-12.373,12.373l-11.947-11.947c-3.413-3.413-8.533-3.413-11.947,0c-3.413,3.413-3.413,8.533,0,11.947l11.947,11.947
				l-11.947,11.947l-11.947-11.947c-3.413-3.413-8.533-3.413-11.947,0c-3.413,3.413-3.413,8.533,0,11.947l11.947,11.947
				l-12.373,12.373L121.88,423.96c-3.413-3.413-8.533-3.413-11.947,0s-3.413,8.533,0,11.947l12.661,12.086l-12.234,12.234
				l-12.373-12.373c-3.413-3.413-8.533-3.413-11.947,0s-3.413,8.533,0,11.947l12.086,12.661L80.067,490.52L19.48,429.933
				L429.933,19.48l60.587,60.587L423.96,146.627z"/>
			<path d="M400.067,61.293c-13.653,13.653-13.653,34.987,0,48.64c6.827,6.827,15.36,10.24,23.893,10.24s17.067-3.413,24.747-11.093
				c6.827-5.973,10.24-15.36,10.24-23.893c0-8.533-3.413-17.067-10.24-23.893C435.053,47.64,413.72,47.64,400.067,61.293z
				 M441.027,86.04c0,4.267-1.707,8.533-5.12,11.947c-6.827,6.827-17.067,6.827-23.893,0c-6.827-6.827-6.827-17.067,0-23.893
				c3.413-3.413,7.68-5.12,11.947-5.12s8.533,1.707,11.947,5.12S441.027,81.773,441.027,86.04z"/>
		</g>
	</g>
</g>
<g>
</g>
<g>
</g>
<g>
</g>
<g>
</g>
<g>
</g>
<g>
</g>
<g>
</g>
<g>
</g>
<g>
</g>
<g>
</g>
<g>
</g>
<g>
</g>
<g>
</g>
<g>
</g>
<g>
</g>
</svg>
