<?xml version="1.0" encoding="iso-8859-1"?>
<!-- Generator: Adobe Illustrator 19.0.0, SVG Export Plug-In . SVG Version: 6.00 Build 0)  -->
<svg version="1.1" id="Layer_1" xmlns="http://www.w3.org/2000/svg" xmlns:xlink="http://www.w3.org/1999/xlink" x="0px" y="0px"
	 viewBox="0 0 512 512" style="enable-background:new 0 0 512 512;" xml:space="preserve">
<g transform="translate(1 1)">
	<g>
		<g>
			<path d="M195.267,186.733c-18.773,0-34.133,15.36-34.133,34.133c0,18.773,15.36,34.133,34.133,34.133
				c18.773,0,34.133-15.36,34.133-34.133C229.4,202.093,214.04,186.733,195.267,186.733z M195.267,237.933
				c-9.387,0-17.067-7.68-17.067-17.067c0-9.387,7.68-17.067,17.067-17.067s17.067,7.68,17.067,17.067
				C212.333,230.253,204.653,237.933,195.267,237.933z"/>
			<path d="M459.8,75.8H323.267c-2.56,0-5.12,0.853-6.827,3.413c-14.507,19.627-37.547,30.72-61.44,30.72
				c-23.893,0-46.933-11.093-61.44-30.72c-1.707-2.56-4.267-3.413-6.827-3.413H50.2C22.04,75.8-1,98.84-1,127v34.133V280.6v68.267
				V383c0,28.16,23.04,51.2,51.2,51.2h136.533c2.56,0,5.12-0.853,6.827-3.413c14.507-19.627,37.547-30.72,61.44-30.72
				c23.893,0,46.933,11.093,61.44,30.72c1.707,2.56,4.267,3.413,6.827,3.413H459.8c28.16,0,51.2-23.04,51.2-51.2V127
				C511,98.84,487.96,75.8,459.8,75.8z M16.067,289.133H418.84c-13.653,30.72-44.373,51.2-78.507,51.2H16.067V289.133z
				 M423.96,272.067H16.067v-102.4h324.267c46.933,0,85.333,38.4,85.333,85.333C425.667,260.973,424.813,266.093,423.96,272.067z
				 M493.933,383c0,18.773-15.36,34.133-34.133,34.133H327.533C309.613,395.8,283.16,383,255,383
				c-28.16,0-54.613,12.8-72.533,34.133H50.2c-18.773,0-34.133-15.36-34.133-34.133v-25.6h324.267
				c45.227,0,86.187-30.72,98.987-74.24c0-0.916-0.003-1.942-0.081-2.959c2.122-8.4,3.495-16.801,3.495-25.201
				c0-56.32-46.08-102.4-102.4-102.4H16.067V127c0-18.773,15.36-34.133,34.133-34.133h132.267C200.387,114.2,226.84,127,255,127
				c28.16,0,54.613-12.8,72.533-34.133H459.8c18.773,0,34.133,15.36,34.133,34.133V383z"/>
		</g>
	</g>
</g>
<g>
</g>
<g>
</g>
<g>
</g>
<g>
</g>
<g>
</g>
<g>
</g>
<g>
</g>
<g>
</g>
<g>
</g>
<g>
</g>
<g>
</g>
<g>
</g>
<g>
</g>
<g>
</g>
<g>
</g>
</svg>
