<?xml version="1.0" encoding="iso-8859-1"?>
<!-- Generator: Adobe Illustrator 19.0.0, SVG Export Plug-In . SVG Version: 6.00 Build 0)  -->
<svg version="1.1" id="Layer_1" xmlns="http://www.w3.org/2000/svg" xmlns:xlink="http://www.w3.org/1999/xlink" x="0px" y="0px"
	 viewBox="0 0 512 512" style="enable-background:new 0 0 512 512;" xml:space="preserve">
<g transform="translate(1 1)">
	<g>
		<path d="M459.8,331.718H340.333c-18.773,0-34.133-15.36-34.133-34.133v-14.507c0-43.52,12.8-87.893,38.4-130.56
			c11.093-20.48,15.36-43.52,11.947-67.413c-6.827-44.373-44.373-80.213-89.6-85.333c-29.013-3.413-58.88,5.973-80.213,25.6
			C165.4,44.144,152.6,72.304,152.6,101.318c0,19.627,5.12,37.547,15.36,53.76c23.893,37.547,35.84,83.627,35.84,133.12v9.387
			c0,18.773-15.36,34.133-34.133,34.133H50.2c-28.16,0-51.2,23.04-51.2,51.2v85.333c0,5.12,3.413,8.533,8.533,8.533h19.264
			c8.003,20.25,27.539,34.133,49.856,34.133H441.88c22.554,0,42.267-14.179,50.106-34.133h10.48c5.12,0,8.533-3.413,8.533-8.533
			v-85.333C511,354.758,487.96,331.718,459.8,331.718z M16.067,382.918c0-18.773,15.36-34.133,34.133-34.133h119.467
			c28.16,0,51.2-23.04,51.2-51.2v-9.387c0-52.907-13.653-101.547-38.4-141.653c-8.533-13.653-12.8-29.013-12.8-45.227
			c0-23.893,10.24-47.787,29.013-63.147c17.92-16.213,41.813-23.893,66.56-21.333c37.547,4.267,68.267,34.133,74.24,70.827
			c3.413,19.627-0.853,39.253-10.24,56.32c-26.453,46.08-40.107,92.16-40.107,139.093v14.507c0,28.16,23.04,51.2,51.2,51.2H459.8
			c18.773,0,34.133,15.36,34.133,34.133v76.8H485.4H33.133H16.067V382.918z M441.88,493.851H76.653
			c-12.8,0-23.893-6.827-30.72-17.067H472.6C466.627,487.024,454.68,493.851,441.88,493.851z"/>
	</g>
</g>
<g>
</g>
<g>
</g>
<g>
</g>
<g>
</g>
<g>
</g>
<g>
</g>
<g>
</g>
<g>
</g>
<g>
</g>
<g>
</g>
<g>
</g>
<g>
</g>
<g>
</g>
<g>
</g>
<g>
</g>
</svg>
