<?xml version="1.0" encoding="iso-8859-1"?>
<!-- Generator: Adobe Illustrator 19.0.0, SVG Export Plug-In . SVG Version: 6.00 Build 0)  -->
<svg version="1.1" id="Layer_1" xmlns="http://www.w3.org/2000/svg" xmlns:xlink="http://www.w3.org/1999/xlink" x="0px" y="0px"
	 viewBox="0 0 512.077 512.077" style="enable-background:new 0 0 512.077 512.077;" xml:space="preserve">
<g transform="translate(1 1)">
	<g>
		<g>
			<path d="M417.21,225.037c-1.659,0-3.307,0.044-4.944,0.128L172.304,108.13c-58.027-24.747-124.587-5.973-162.133,45.227
				c-7.68,9.387-11.093,20.48-11.093,32.427c0,26.37,17.96,48.997,42.667,54.57v61.483c0,5.12,3.413,8.533,8.533,8.533h273.452
				c-0.25,2.81-0.385,5.655-0.385,8.533c0,8.884,1.22,17.469,3.499,25.6H50.277c-2.56,0-5.12,0.853-6.827,2.56l-42.667,51.2
				c-1.707,2.56-2.56,5.973-0.853,9.387s4.267,5.12,7.68,5.12h409.6c52.053,0,93.867-41.813,93.867-93.867
				S469.264,225.037,417.21,225.037z M16.144,185.784c0-7.68,2.56-16.213,7.68-23.04c23.04-31.573,58.88-48.64,95.573-48.64
				c15.36,0,30.72,2.56,45.227,8.533l220.16,107.52c-19.627,6.827-36.693,20.48-47.787,39.253L49.424,224.184
				C30.65,221.624,16.144,205.41,16.144,185.784z M326.757,293.304H58.81V243.81l270.507,41.813
				c-0.138,0.413-0.275,0.826-0.413,1.238c-0.509,1.412-0.986,2.84-1.428,4.284C327.236,291.865,326.997,292.584,326.757,293.304z
				 M25.53,395.704l29.013-34.133H332.73c7.68,13.653,17.92,25.6,29.867,34.133H25.53z M417.21,395.704
				c-42.667,0-76.8-34.133-76.8-76.8c0-4.284,0.36-8.477,1.022-12.564c0.605-0.824,1.123-1.758,1.538-2.796
				c1.707-7.68,4.267-14.507,7.68-21.333c0.245-0.613,0.431-1.225,0.568-1.833c5.501-9.954,13.125-18.308,22.142-24.656
				c0.072-0.05,0.143-0.103,0.215-0.153c0.359-0.251,0.724-0.491,1.087-0.736c12.153-8.047,26.763-12.729,42.548-12.729
				c42.667,0,76.8,34.133,76.8,76.8S459.877,395.704,417.21,395.704z"/>
			<path d="M417.21,259.17c-33.28,0-59.733,26.453-59.733,59.733c0,33.28,26.453,59.733,59.733,59.733s59.733-26.453,59.733-59.733
				C476.944,285.624,450.49,259.17,417.21,259.17z M417.21,361.57c-23.893,0-42.667-18.773-42.667-42.667
				s18.773-42.667,42.667-42.667s42.667,18.773,42.667,42.667S441.104,361.57,417.21,361.57z"/>
			<path d="M440.25,295.864c-3.413-3.413-8.533-3.413-11.947,0l-11.093,11.093l-11.093-11.093c-3.413-3.413-8.533-3.413-11.947,0
				c-3.413,3.413-3.413,8.533,0,11.947l11.093,11.093l-11.093,11.093c-3.413,3.413-3.413,8.533,0,11.947
				c1.707,1.707,3.413,2.56,5.973,2.56s4.267-0.853,5.973-2.56l11.093-11.093l11.093,11.093c1.707,1.707,3.413,2.56,5.973,2.56
				s4.267-0.853,5.973-2.56c3.413-3.413,3.413-8.533,0-11.947l-11.093-11.093l11.093-11.093
				C443.664,304.397,443.664,299.277,440.25,295.864z"/>
		</g>
	</g>
</g>
<g>
</g>
<g>
</g>
<g>
</g>
<g>
</g>
<g>
</g>
<g>
</g>
<g>
</g>
<g>
</g>
<g>
</g>
<g>
</g>
<g>
</g>
<g>
</g>
<g>
</g>
<g>
</g>
<g>
</g>
</svg>
