<?xml version="1.0" encoding="iso-8859-1"?>
<!-- Generator: Adobe Illustrator 19.0.0, SVG Export Plug-In . SVG Version: 6.00 Build 0)  -->
<svg version="1.1" id="Layer_1" xmlns="http://www.w3.org/2000/svg" xmlns:xlink="http://www.w3.org/1999/xlink" x="0px" y="0px"
	 viewBox="0 0 512 512" style="enable-background:new 0 0 512 512;" xml:space="preserve">
<g transform="translate(1 1)">
	<g>
		<path d="M485.4,374.467h-17.067V357.4H485.4c9.387,0,17.067-7.68,17.067-17.067v-256c0-18.773-15.36-34.133-34.133-34.133H41.667
			c-18.773,0-34.133,15.36-34.133,34.133v256c0,9.387,7.68,17.067,17.067,17.067h17.067v17.067H24.6
			c-14.507,0-25.6,11.093-25.6,25.6V434.2c0,14.507,11.093,25.6,25.6,25.6h460.8c14.507,0,25.6-11.093,25.6-25.6v-34.133
			C511,385.56,499.907,374.467,485.4,374.467z M451.267,374.467H434.2V357.4h17.067V374.467z M92.867,374.467V357.4h17.067
			c9.387,0,17.067-7.68,17.067-17.067v-17.067h256v17.067c0,9.387,7.68,17.067,17.067,17.067h17.067v17.067H92.867z M383,306.2H127
			v-85.333h256V306.2z M24.6,84.333c0-9.387,7.68-17.067,17.067-17.067h426.667c9.387,0,17.067,7.68,17.067,17.067v256h-25.6
			h-34.133h-25.6v-25.6v-102.4c0-5.12-3.413-8.533-8.533-8.533H118.467c-5.12,0-8.533,3.413-8.533,8.533v102.4v25.6h-25.6H50.2H24.6
			V84.333z M58.733,357.4H75.8v17.067H58.733V357.4z M493.933,434.2c0,5.12-3.413,8.533-8.533,8.533H24.6
			c-5.12,0-8.533-3.413-8.533-8.533v-34.133c0-5.12,3.413-8.533,8.533-8.533h25.6h34.133h341.333H459.8h25.6
			c5.12,0,8.533,3.413,8.533,8.533V434.2z"/>
	</g>
</g>
<g>
</g>
<g>
</g>
<g>
</g>
<g>
</g>
<g>
</g>
<g>
</g>
<g>
</g>
<g>
</g>
<g>
</g>
<g>
</g>
<g>
</g>
<g>
</g>
<g>
</g>
<g>
</g>
<g>
</g>
</svg>
