<?xml version="1.0" encoding="iso-8859-1"?>
<!-- Generator: Adobe Illustrator 19.0.0, SVG Export Plug-In . SVG Version: 6.00 Build 0)  -->
<svg version="1.1" id="Layer_1" xmlns="http://www.w3.org/2000/svg" xmlns:xlink="http://www.w3.org/1999/xlink" x="0px" y="0px"
	 viewBox="0 0 512 512" style="enable-background:new 0 0 512 512;" xml:space="preserve">
<g transform="translate(1 1)">
	<g>
		<g>
			<path d="M452.808,257.56c0.63-0.873,1.253-1.764,1.872-2.693c2.56-3.413,3.413-8.533,2.56-12.8s-3.413-7.68-7.68-10.24
				L174.787,59.453c-3.413-2.56-8.533-3.413-12.8-2.56s-7.68,3.413-10.24,7.68c-0.095,0.147-0.178,0.298-0.27,0.445l-27.89-17.512
				c-4.267-2.56-9.387-1.707-11.947,2.56L20.333,191.72c0,0.853,0,0.853,0,0.853c-2.56,4.267-1.707,9.387,2.56,11.947
				s9.387,1.707,11.947-2.56c11.093-17.067,28.16-29.013,47.787-33.28c19.627-4.267,40.96-0.853,58.027,10.24l193.67,121.147
				c-7.058,13.201-11.057,28.31-11.057,44.4h-230.4c-42.667,0-76.8-34.133-76.8-76.8c0-5.12-3.413-8.533-8.533-8.533
				S-1,262.547-1,267.667v170.667c0,5.12,3.413,8.533,8.533,8.533h34.133c0,9.387,7.68,17.067,17.067,17.067H383
				c9.387,0,17.067-7.68,16.213-17.067c0-3.577-0.32-7.048-0.982-10.417c6.101,1.235,12.422,1.884,18.902,1.884
				c52.053,0,93.867-41.813,93.867-93.867C511,305.062,487.035,271.531,452.808,257.56z M166.253,73.96l274.773,172.373
				c-1.707,1.707-3.413,4.267-5.12,5.973c-1.564-0.261-3.127-0.477-4.689-0.666c-4.592-0.683-9.294-1.04-14.084-1.04
				c-9.402,0-18.468,1.371-27.016,3.913l-212.771-133.62c-6.874-4.341-11.744-10.526-14.305-17.443
				c-2.328-7.157-2.284-15.115,0.652-22.663c0.535-1.07,0.734-2.223,0.651-3.382C164.91,76.24,165.54,75.089,166.253,73.96z
				 M342.893,286.44L149.187,164.413c-14.507-9.387-32.427-14.507-49.493-14.507c-6.827,0-13.653,0.853-20.48,1.707
				c-5.12,1.707-10.24,3.413-15.36,5.12l57.173-90.453l23.893,14.507c-0.176,0.88-0.322,1.761-0.455,2.641
				c-0.053,0.318-0.091,0.637-0.138,0.956c-0.022,0.166-0.048,0.332-0.068,0.497c-0.75,5.55-0.558,11.155,0.518,16.597
				c2.597,13.644,10.577,25.901,23.183,33.922l201.961,127.823c-7.409,4.296-14.165,9.578-20.098,15.668
				C347.394,281.276,345.068,283.782,342.893,286.44z M16.067,429.8V321.427c17.067,23.893,45.227,40.107,76.8,40.107h231.935
				c2.258,12.418,6.938,23.962,13.538,34.133H92.867c-0.83,0-1.656,0.025-2.479,0.063c-0.131,0.006-0.262,0.015-0.392,0.023
				c-20.993,1.121-39.238,14.456-45.769,34.047H16.067z M383,446.867H58.733c0-1.808,0.146-3.584,0.42-5.318
				c0.182-0.476,0.327-0.979,0.433-1.509c1.275-6.054,3.978-11.393,7.708-15.709c0.031-0.035,0.061-0.072,0.093-0.107
				c0.15-0.172,0.306-0.338,0.459-0.506c5.482-5.918,13.019-9.908,21.448-10.795c0.053-0.005,0.105-0.012,0.158-0.017
				c0.472-0.047,0.948-0.082,1.426-0.109c0.105-0.006,0.209-0.015,0.315-0.02c0.555-0.027,1.113-0.043,1.674-0.043h256
				c1.044,0,2.408,0.002,3.895,0.197c7.637,7.179,16.484,13.085,26.216,17.39C381.397,435.324,383,441.092,383,446.867z
				 M417.133,421.267c-10.547,0-20.57-2.093-29.688-5.878c-0.061-0.032-0.116-0.064-0.179-0.096
				c-0.167-0.061-0.332-0.128-0.499-0.191c-8.244-3.516-15.722-8.433-22.16-14.449c-0.35-0.571-0.763-1.102-1.235-1.573
				c-12.8-12.8-20.48-29.013-22.187-46.933c-0.14-0.702-0.356-1.377-0.627-2.021c-0.134-1.87-0.226-3.752-0.226-5.659
				c0-14.831,4.132-28.625,11.305-40.319c0.797-0.469,1.574-0.979,2.348-1.495c8.533-13.653,23.04-24.747,38.4-29.867
				c1.655-0.414,3.106-1.231,4.165-2.35c6.544-1.793,13.439-2.77,20.582-2.77c42.667,0,76.8,34.133,76.8,76.8
				C493.933,387.133,459.8,421.267,417.133,421.267z"/>
			<path d="M417.133,284.733c-33.28,0-59.733,26.453-59.733,59.733c0,33.28,26.453,59.733,59.733,59.733
				s59.733-26.453,59.733-59.733C476.867,311.187,450.413,284.733,417.133,284.733z M417.133,387.133
				c-23.893,0-42.667-18.773-42.667-42.667c0-23.893,18.773-42.667,42.667-42.667s42.667,18.773,42.667,42.667
				C459.8,368.36,441.027,387.133,417.133,387.133z"/>
			<path d="M440.173,321.427c-3.413-3.413-8.533-3.413-11.947,0l-11.093,11.093l-11.093-11.093c-3.413-3.413-8.533-3.413-11.947,0
				c-3.413,3.413-3.413,8.533,0,11.947l11.093,11.093l-11.093,11.093c-3.413,3.413-3.413,8.533,0,11.947
				c1.707,1.707,3.413,2.56,5.973,2.56s4.267-0.853,5.973-2.56l11.093-11.093l11.093,11.093c1.707,1.707,3.413,2.56,5.973,2.56
				s4.267-0.853,5.973-2.56c3.413-3.413,3.413-8.533,0-11.947l-11.093-11.093l11.093-11.093
				C443.587,329.96,443.587,324.84,440.173,321.427z"/>
		</g>
	</g>
</g>
<g>
</g>
<g>
</g>
<g>
</g>
<g>
</g>
<g>
</g>
<g>
</g>
<g>
</g>
<g>
</g>
<g>
</g>
<g>
</g>
<g>
</g>
<g>
</g>
<g>
</g>
<g>
</g>
<g>
</g>
</svg>
