<?xml version="1.0" encoding="iso-8859-1"?>
<!-- Generator: Adobe Illustrator 19.0.0, SVG Export Plug-In . SVG Version: 6.00 Build 0)  -->
<svg version="1.1" id="Layer_1" xmlns="http://www.w3.org/2000/svg" xmlns:xlink="http://www.w3.org/1999/xlink" x="0px" y="0px"
	 viewBox="0 0 512.853 512.853" style="enable-background:new 0 0 512.853 512.853;" xml:space="preserve">
<g transform="translate(1 1)">
	<g>
		<g>
			<path d="M340.333,326.951c15.912,0,29.368-11.037,33.101-25.832c3.732,0.732,7.489,1.384,11.272,1.938l82.773,11.947h0.853h15.36
				c15.36,0,27.307-11.947,28.16-27.307v-70.827c0-27.307-13.653-52.053-36.693-66.56l-11.093-6.827
				c-34.133-22.187-71.68-37.547-111.787-45.227l-206.507-40.96c-23.893-4.267-47.787-2.56-70.827,5.973l-10.24,3.413
				C45.933,73.511,29.72,82.897,14.36,95.697l-5.12,4.267c-6.827,5.973-11.093,16.213-9.387,25.6
				c0.853,10.24,7.68,17.92,16.213,22.187c15.36,5.973,30.72,9.387,46.933,10.24h23.04c26.453,0,52.907,2.56,78.507,7.68h0.853
				c15.36,0.853,29.867,7.68,40.96,18.773l10.124,10.123c-62,28.504-130.048,101.85-147.36,158.837h-2.71
				c-28.16,0-52.907,20.48-58.88,47.787L-1,445.564c0,2.56,0,4.267,1.707,6.827c1.707,2.56,4.267,3.413,6.827,3.413h494.933
				c1.92,0,3.84-0.48,5.4-1.8c0.52-0.44,1-0.973,1.427-1.613c1.707-1.707,2.56-4.267,1.707-6.827l-8.533-44.373
				c-5.973-27.307-30.72-47.787-58.88-47.787h-220.16l26.453-26.453H340.333z M167.96,148.604
				c-26.453-5.973-53.76-8.533-81.067-8.533h-23.04c-13.653,0-27.307-3.413-40.107-8.533c-4.267-1.707-5.973-4.267-6.827-8.533
				c-0.853-3.413,0.853-6.827,3.413-9.387l5.12-5.12c13.653-11.093,29.013-19.627,45.227-25.6l10.24-4.267
				c19.627-6.827,40.96-8.533,61.44-4.267l206.507,40.96c37.547,7.68,73.387,22.187,105.813,42.667l11.093,6.827
				c17.92,11.093,28.16,30.72,28.16,52.053v70.827c0,5.973-4.267,10.24-10.24,10.24h-14.507l-81.92-11.947
				c-6.791-0.984-13.509-2.301-20.14-3.91c-0.712-0.658-1.53-1.21-2.9-1.21c-50.347-12.8-93.867-43.52-122.88-86.187l-0.853-0.853
				l-2.56-2.56c-0.579-0.386-1.207-0.721-1.863-1.01l-17.763-17.763C204.653,158.844,186.733,150.311,167.96,148.604z
				 M17.773,438.737l5.12-25.6h464.213l5.12,25.6H17.773z M482.607,396.071H27.393c6.728-15.154,21.644-25.6,39.021-25.6H75.8h128
				h239.787C460.964,370.471,475.879,380.917,482.607,396.071z M240.493,313.297l-40.107,40.107H86.893
				c18.73-52.784,85.025-121.703,142.109-145.749c30.639,44.235,76.304,75.667,128.324,89.706
				c-1.809,7.545-8.563,13.377-16.993,13.377h-93.867C243.907,310.737,242.2,311.591,240.493,313.297z"/>
			<path d="M417.133,276.604c33.28,0,59.733-26.453,59.733-59.733c0-33.28-26.453-59.733-59.733-59.733S357.4,183.591,357.4,216.871
				C357.4,250.151,383.853,276.604,417.133,276.604z M417.133,174.204c23.893,0,42.667,18.773,42.667,42.667
				c0,23.893-18.773,42.667-42.667,42.667s-42.667-18.773-42.667-42.667C374.467,192.977,393.24,174.204,417.133,174.204z"/>
			<path d="M394.093,239.911c1.707,1.707,3.413,2.56,5.973,2.56s4.267-0.853,5.973-2.56l11.093-11.093l11.093,11.093
				c1.707,1.707,3.413,2.56,5.973,2.56s4.267-0.853,5.973-2.56c3.413-3.413,3.413-8.533,0-11.947l-11.093-11.093l11.093-11.093
				c3.413-3.413,3.413-8.533,0-11.947c-3.413-3.413-8.533-3.413-11.947,0l-11.093,11.093l-11.093-11.093
				c-3.413-3.413-8.533-3.413-11.947,0c-3.413,3.413-3.413,8.533,0,11.947l11.093,11.093l-11.093,11.093
				C390.68,231.377,390.68,236.497,394.093,239.911z"/>
		</g>
	</g>
</g>
<g>
</g>
<g>
</g>
<g>
</g>
<g>
</g>
<g>
</g>
<g>
</g>
<g>
</g>
<g>
</g>
<g>
</g>
<g>
</g>
<g>
</g>
<g>
</g>
<g>
</g>
<g>
</g>
<g>
</g>
</svg>
