<?xml version="1.0" encoding="iso-8859-1"?>
<!-- Generator: Adobe Illustrator 19.0.0, SVG Export Plug-In . SVG Version: 6.00 Build 0)  -->
<svg version="1.1" id="Layer_1" xmlns="http://www.w3.org/2000/svg" xmlns:xlink="http://www.w3.org/1999/xlink" x="0px" y="0px"
	 viewBox="0 0 512 512" style="enable-background:new 0 0 512 512;" xml:space="preserve">
<g transform="translate(1 1)">
	<g>
		<g>
			<path d="M255,203.8c58.027,0,102.4-22.187,102.4-51.2c0-29.013-44.373-51.2-102.4-51.2s-102.4,22.187-102.4,51.2
				C152.6,181.613,196.973,203.8,255,203.8z M255,118.467c48.64,0,85.333,17.92,85.333,34.133c0,16.213-36.693,34.133-85.333,34.133
				s-85.333-17.92-85.333-34.133C169.667,136.387,206.36,118.467,255,118.467z"/>
			<path d="M255,24.6c-143.36,0-256,56.32-256,128v204.8c0,71.68,112.64,128,256,128h120.32c7.68,0,13.653-4.267,16.213-11.093
				c0.747-2.988,0.676-5.976-0.14-8.749C466.525,442.623,511,402.697,511,357.4V152.6C511,80.92,398.36,24.6,255,24.6z M255,41.667
				c129.707,0,238.933,51.2,238.933,110.933S384.707,263.533,255,263.533S16.067,212.333,16.067,152.6S125.293,41.667,255,41.667z
				 M255,468.333c-129.707,0-238.933-51.2-238.933-110.933V199.533c18.009,23.453,49.385,43.408,89.676,57.653
				c0.152,0.054,0.305,0.108,0.458,0.161c1.451,0.511,2.913,1.014,4.387,1.51c0.204,0.069,0.406,0.138,0.61,0.206
				c1.612,0.539,3.235,1.071,4.874,1.591c0.168,0.054,0.34,0.105,0.508,0.159c1.362,0.431,2.734,0.855,4.114,1.273
				c0.602,0.183,1.208,0.362,1.814,0.542c0.959,0.285,1.922,0.567,2.889,0.846c0.709,0.204,1.417,0.409,2.13,0.61
				c0.913,0.257,1.832,0.509,2.752,0.761c1.352,0.37,2.712,0.734,4.079,1.092c0.776,0.203,1.551,0.409,2.332,0.608
				c0.952,0.243,1.912,0.481,2.872,0.718c0.646,0.16,1.292,0.319,1.94,0.476c1.006,0.244,2.016,0.485,3.03,0.723
				c0.555,0.13,1.114,0.257,1.671,0.385c3.617,0.831,7.281,1.621,10.991,2.369c0.494,0.1,0.988,0.2,1.484,0.298
				c1.142,0.226,2.288,0.448,3.438,0.666c0.505,0.096,1.012,0.19,1.518,0.284c3.824,0.712,7.693,1.379,11.607,2.002
				c0.499,0.079,0.995,0.16,1.495,0.238c1.142,0.178,2.289,0.35,3.438,0.521c0.62,0.092,1.242,0.182,1.865,0.272
				c1.13,0.163,2.261,0.324,3.398,0.48c0.599,0.082,1.202,0.159,1.803,0.239c2.017,0.268,4.044,0.523,6.082,0.767
				c0.737,0.088,1.471,0.179,2.21,0.264c1.02,0.117,2.045,0.229,3.07,0.34c0.848,0.092,1.697,0.183,2.548,0.271
				c0.986,0.102,1.973,0.203,2.964,0.299c0.972,0.095,1.948,0.184,2.924,0.274c0.885,0.081,1.767,0.165,2.655,0.242
				c1.735,0.15,3.478,0.29,5.226,0.422c0.797,0.06,1.599,0.115,2.399,0.172c1.152,0.082,2.306,0.162,3.464,0.236
				c0.817,0.052,1.634,0.103,2.454,0.152c1.246,0.074,2.497,0.143,3.749,0.209c0.692,0.036,1.383,0.075,2.077,0.109
				c1.899,0.092,3.803,0.175,5.714,0.247c0.479,0.018,0.961,0.031,1.441,0.048c1.523,0.053,3.048,0.101,4.579,0.141
				c0.675,0.018,1.352,0.033,2.028,0.048c1.416,0.032,2.835,0.058,4.258,0.079c0.623,0.009,1.246,0.02,1.87,0.027
				c2.011,0.022,4.027,0.037,6.05,0.037h116.907l-14.507,9.387c-5.12,3.413-8.533,9.387-8.533,16.213s3.413,12.8,8.533,16.213
				l24.747,16.213c0.853,0,0.853,0.853,0.853,1.707c0,0.853,0,1.707-0.853,0.853L357.4,357.4c-5.12,4.267-8.533,9.387-8.533,16.213
				c0,0.144,0.01,0.285,0.013,0.428c-0.003,0.142-0.013,0.281-0.013,0.425c0,6.827,3.413,12.8,8.533,16.213l24.747,16.213
				C383,407.747,383,407.747,383,408.6c0,0.853,0,0.853-0.853,1.707l-25.6,17.067c-5.12,3.413-8.533,9.387-8.533,15.36
				s3.413,11.947,8.533,15.36l15.36,10.24H255z M493.933,357.4c0,38.4-44.373,74.24-115.2,94.72l-11.947-7.68
				c-0.853-0.853-0.853-1.707-0.853-1.707s0-0.853,0-0.853l25.6-17.067c5.12-4.267,8.533-9.387,8.533-16.213
				c0-6.827-3.413-12.8-8.533-16.213l-24.747-16.213c-0.853-0.853-0.853-0.853-0.853-1.707s0-0.853,0.853-1.707l24.747-16.213
				c5.12-3.413,8.533-9.387,8.533-16.213s-3.413-12.8-8.533-16.213l-24.747-16.213c-0.853-0.853-0.853-0.853-0.853-1.707
				s0-0.853,0-1.707l17.92-11.947c2.24-1.6,4-3.56,5.235-5.745c0.412-0.728,0.765-1.482,1.058-2.255
				c0.147-0.387,0.278-0.778,0.395-1.174c0.466-1.584,0.688-3.238,0.654-4.922c-0.026-1.263-0.196-2.543-0.516-3.823v0
				c-0.851-5.106-5.096-8.513-9.351-10.225c20.58-5.735,39.337-12.845,55.79-21.106c24.56-12.206,44.05-26.914,56.814-43.763V357.4z
				"/>
		</g>
	</g>
</g>
<g>
</g>
<g>
</g>
<g>
</g>
<g>
</g>
<g>
</g>
<g>
</g>
<g>
</g>
<g>
</g>
<g>
</g>
<g>
</g>
<g>
</g>
<g>
</g>
<g>
</g>
<g>
</g>
<g>
</g>
</svg>
