<?xml version="1.0" encoding="iso-8859-1"?>
<!-- Generator: Adobe Illustrator 19.0.0, SVG Export Plug-In . SVG Version: 6.00 Build 0)  -->
<svg version="1.1" id="Layer_1" xmlns="http://www.w3.org/2000/svg" xmlns:xlink="http://www.w3.org/1999/xlink" x="0px" y="0px"
	 viewBox="0 0 512 512" style="enable-background:new 0 0 512 512;" xml:space="preserve">
<g transform="translate(1 1)">
	<g>
		<path d="M493.893,200.638c-1.678-78.748-65.871-141.905-145.027-141.905c-25.614,0-49.656,6.622-70.526,18.236
			c-0.681,0.104-1.354,0.276-2.007,0.537L56.063,195.267H7.533C2.413,195.267-1,198.68-1,203.8v136.533
			c0,61.44,49.493,110.933,110.933,110.933h290.133c61.44,0,110.933-49.493,110.933-110.933V231.107
			C511,218.321,504.116,206.988,493.893,200.638z M476.867,195.267c-0.853,0-0.853,0-1.707,0h-49.967
			C420.994,156.674,388.646,127,348.867,127c-42.667,0-76.8,34.133-76.8,76.8c0,38.116,27.248,69.399,63.478,75.644
			c-9.868,15.837-22.728,29.901-37.878,41.263c-46.933-20.48-76.8-65.707-76.8-116.907c0-47.47,25.684-88.804,63.947-110.905
			l0.053-0.028c0.572-0.229,1.077-0.522,1.528-0.863C304.861,81.684,326.16,75.8,348.867,75.8
			C416.28,75.8,471.747,128.707,476.867,195.267z M391.533,195.267c-17.92,0-33.28,12.8-35.84,30.72
			c-2.071,13.018-5.992,25.625-11.507,37.502c-30.527-2.755-55.053-28.258-55.053-59.689c0-33.28,26.453-59.733,59.733-59.733
			c29.58,0,54.125,21.768,58.739,51.2H391.533z M280.758,331.966c-20.458,10.851-43.786,16.901-68.425,16.901
			c-78.424,0-142.154-61.995-144.959-139.725l160.847-85.991c-15.426,23.052-24.421,50.784-24.421,80.65
			C203.8,258.208,233.542,306.941,280.758,331.966z M493.933,340.333c0,52.053-41.813,93.867-93.867,93.867H109.933
			c-52.053,0-93.867-41.813-93.867-93.867v-128H50.2c4.267,85.333,75.947,153.6,162.133,153.6
			c64.748,0,121.148-37.813,147.224-94.13c0.01-0.022,0.021-0.044,0.031-0.065c0.463-1.001,0.915-2.008,1.359-3.021
			c0.15-0.341,0.303-0.68,0.451-1.022c0.214-0.497,0.42-0.997,0.629-1.497c4.276-10.165,7.518-20.75,9.648-31.585
			c0.005-0.023,0.009-0.047,0.014-0.07c0.175-0.892,0.347-1.785,0.507-2.68c0.199-1.102,0.389-2.207,0.564-3.317
			c0.853-9.387,9.387-16.213,18.773-16.213h25.6h58.027c1.707,0,4.267,0.853,6.827,1.707c0.585,0.195,1.171,0.339,1.756,0.435
			c6.011,3.157,10.19,9.471,10.19,16.632V340.333z"/>
	</g>
</g>
<g>
</g>
<g>
</g>
<g>
</g>
<g>
</g>
<g>
</g>
<g>
</g>
<g>
</g>
<g>
</g>
<g>
</g>
<g>
</g>
<g>
</g>
<g>
</g>
<g>
</g>
<g>
</g>
<g>
</g>
</svg>
