<?xml version="1.0" encoding="iso-8859-1"?>
<!-- Generator: Adobe Illustrator 19.0.0, SVG Export Plug-In . SVG Version: 6.00 Build 0)  -->
<svg version="1.1" id="Layer_1" xmlns="http://www.w3.org/2000/svg" xmlns:xlink="http://www.w3.org/1999/xlink" x="0px" y="0px"
	 viewBox="0 0 512 512" style="enable-background:new 0 0 512 512;" xml:space="preserve">
<g transform="translate(1 1)">
	<g>
		<g>
			<path d="M221.629,74.886C207.914,88.6,200.6,102.314,200.6,116.943s7.314,29.257,21.029,43.886
				c1.829,1.829,3.657,2.743,6.4,2.743c1.829,0,4.571-0.914,6.4-2.743c3.657-3.657,3.657-9.143,0-12.8
				c-10.057-10.971-15.543-21.029-15.543-31.086s5.486-20.114,15.543-29.257c13.714-12.8,21.029-27.429,21.029-42.057
				c0-15.543-6.4-30.171-21.029-43.886c-3.657-3.657-9.143-3.657-12.8,0c-3.657,3.657-3.657,9.143,0,12.8
				c10.057,10.971,15.543,21.029,15.543,31.086C237.171,55.686,231.686,65.743,221.629,74.886z"/>
			<path d="M301.171,116.943c0,14.629,7.314,29.257,21.029,43.886c1.829,1.829,3.657,2.743,6.4,2.743
				c1.829,0,4.571-0.914,5.486-2.743c3.657-3.657,3.657-9.143,0-12.8c-10.057-10.971-15.543-21.029-15.543-31.086
				s5.486-20.114,15.543-29.257c14.629-12.8,21.943-27.429,21.943-42.057c0-15.543-7.314-30.171-21.029-43.886
				c-3.657-3.657-9.143-3.657-12.8,0s-3.657,9.143,0,12.8c10.057,10.971,15.543,21.029,15.543,31.086
				c0,10.057-5.486,19.2-15.543,29.257C308.486,88.6,301.171,102.314,301.171,116.943z"/>
			<path d="M109.171,116.943c0,14.629,7.314,29.257,21.029,43.886c1.829,1.829,3.657,2.743,6.4,2.743
				c1.829,0,4.571-0.914,5.486-2.743c3.657-3.657,3.657-9.143,0-12.8c-10.057-10.971-15.543-21.029-15.543-31.086
				s5.486-20.114,15.543-29.257c14.629-12.8,21.943-27.429,21.943-42.057c0-15.543-7.314-30.171-21.029-43.886
				c-3.657-3.657-9.143-3.657-12.8,0c-3.657,3.657-3.657,9.143,0,12.8c10.057,10.971,15.543,21.029,15.543,31.086
				c0,10.057-5.486,19.2-15.543,29.257C116.486,88.6,109.171,102.314,109.171,116.943z"/>
			<path d="M175,428.714c-64.914-10.971-97.829-47.543-111.543-120.686c-0.914-4.571-6.4-8.229-10.971-7.314
				s-8.229,6.4-7.314,10.971C59.8,393.057,99.114,434.2,171.343,447c0.914,0,0.914,0,1.829,0c4.571,0,8.229-2.743,9.143-7.314
				C183.229,434.2,179.571,429.629,175,428.714z"/>
			<path d="M470.314,236.714H456.6v0c0-4.571-1.829-9.143-5.486-12.8c-3.657-3.657-8.229-5.486-12.8-5.486H17.743
				c-4.571,0-9.143,1.829-12.8,5.486c-3.657,3.657-5.486,8.229-5.486,12.8c0.804,82.835,12.232,171.322,84.039,219.429h-56.61
				c-15.543,0-27.429,11.886-27.429,27.429c0,15.543,11.886,27.429,27.429,27.429h118.857c0.914,0,1.829,0,3.657-0.914l25.6-8.229
				h96.914l26.514,8.229c0.914,0.914,1.829,0.914,2.743,0.914h109.714c15.543,0,27.429-11.886,27.429-27.429
				c0-15.543-11.886-27.429-27.429-27.429h-38.324c16.198-10.851,29.323-23.757,39.946-38.19
				c56.317-10.056,98.035-59.298,98.035-117.239v-23.771C510.543,255,492.257,236.714,470.314,236.714z M356.029,275.114
				L374.314,287v59.429h-36.571V287L356.029,275.114z M420.029,483.571c0,5.486-3.657,9.143-9.143,9.143H303l-27.429-8.229
				c-0.914-0.914-1.829-0.914-2.743-0.914H172.257c-0.914,0-1.829,0.914-2.743,0.914l-25.6,8.229H26.886
				c-5.486,0-9.143-3.657-9.143-9.143c0-5.486,3.657-9.143,9.143-9.143h93.257h215.771h74.971
				C416.371,474.429,420.029,478.086,420.029,483.571z M334.086,456.143H121.057c-89.6-37.486-102.4-128-103.314-219.429h329.143
				v22.552l-23.771,15.848c-1.829,1.829-3.657,4.571-3.657,7.314v73.143c0,5.486,3.657,9.143,9.143,9.143h54.857
				c4.571,0,9.143-3.657,8.229-9.143v-73.143c0-2.743-0.914-5.486-3.657-7.314l-22.857-15.238v-23.162H437.4
				c0,5.159-0.047,10.315-0.145,15.459c-1.282,48.346-7.602,108.066-38.255,151.855c-0.546,0.819-0.909,1.81-1.129,2.858
				C382.784,427.443,362.162,444.397,334.086,456.143z M493.171,300.714c0,42.971-27.429,80.457-65.829,94.171
				C450.2,351,455.686,298.886,456.6,255h14.629c11.886,0,21.943,10.057,21.943,21.943V300.714z"/>
		</g>
	</g>
</g>
<g>
</g>
<g>
</g>
<g>
</g>
<g>
</g>
<g>
</g>
<g>
</g>
<g>
</g>
<g>
</g>
<g>
</g>
<g>
</g>
<g>
</g>
<g>
</g>
<g>
</g>
<g>
</g>
<g>
</g>
</svg>
