<?xml version="1.0" encoding="iso-8859-1"?>
<!-- Generator: Adobe Illustrator 19.0.0, SVG Export Plug-In . SVG Version: 6.00 Build 0)  -->
<svg version="1.1" id="Layer_1" xmlns="http://www.w3.org/2000/svg" xmlns:xlink="http://www.w3.org/1999/xlink" x="0px" y="0px"
	 viewBox="0 0 511.787 511.787" style="enable-background:new 0 0 511.787 511.787;" xml:space="preserve">
<g transform="translate(1 1)">
	<g>
		<path d="M374.36,39.747l-8.533-34.133c-0.853-2.56-2.56-5.12-5.12-5.973s-5.12-0.853-7.68,0l-98.133,57.244L156.76-0.36
			c-2.56-0.853-5.12-0.853-7.68,0s-4.267,3.413-5.12,5.973l-8.533,34.133c0,1.707,0,4.267,1.707,6.827l66.287,99.43L178.093,424.6
			c0,2.56,0.853,5.12,2.56,6.827l68.267,76.8c0.853,1.707,3.413,2.56,5.973,2.56s4.267-0.853,5.973-2.56l76.8-76.8
			c1.707-1.707,2.56-4.267,2.56-6.827l-33.783-278.712l66.21-99.315C374.36,44.013,374.36,41.453,374.36,39.747z M254.893,85.144
			l27.876,50.176h-55.751L254.893,85.144z M157.613,20.973l85.333,49.493l-31.676,57.017l-57.924-87.737L157.613,20.973z
			 M254.893,490.307l-59.733-67.413l24.747-270.507h69.973l32.427,270.507L254.893,490.307z M297.663,127.484l-31.676-57.017
			l84.48-50.347l5.12,19.627L297.663,127.484z"/>
	</g>
</g>
<g>
</g>
<g>
</g>
<g>
</g>
<g>
</g>
<g>
</g>
<g>
</g>
<g>
</g>
<g>
</g>
<g>
</g>
<g>
</g>
<g>
</g>
<g>
</g>
<g>
</g>
<g>
</g>
<g>
</g>
</svg>
