<?xml version="1.0" encoding="utf-8"?>
<!-- Generator: Adobe Illustrator 22.0.1, SVG Export Plug-In . SVG Version: 6.00 Build 0)  -->
<svg version="1.1" xmlns="http://www.w3.org/2000/svg" xmlns:xlink="http://www.w3.org/1999/xlink" x="0px" y="0px"
	 viewBox="0 0 1920 1080" style="enable-background:new 0 0 1920 1080;" xml:space="preserve">
<style type="text/css">
	.st0{display:none;}
	.st1{fill:url(#SVGID_1_);}
	.st2{fill:url(#SVGID_2_);}
	.st3{fill:url(#SVGID_3_);}
	.st4{fill:url(#SVGID_4_);}
	.st5{fill:url(#SVGID_5_);}
	.st6{fill:url(#SVGID_6_);}
	.st7{fill:url(#SVGID_7_);}
</style>
<g id="background" class="st0">
</g>
<g id="shadow">
</g>
<g id="polygon">
</g>
<g id="reflectiion">
	<linearGradient id="SVGID_1_" gradientUnits="userSpaceOnUse" x1="607.6185" y1="273.4783" x2="963.9352" y2="136.9293">
		<stop  offset="0.2256" style="stop-color:#91B3BC"/>
		<stop  offset="1" style="stop-color:#5785AB"/>
	</linearGradient>
	<polygon class="st1" points="957.8,173 957.8,25 576.2,284 685.2,358 	"/>
	<linearGradient id="SVGID_2_" gradientUnits="userSpaceOnUse" x1="1273.8489" y1="319.626" x2="965.2594" y2="95.1719">
		<stop  offset="0.5385" style="stop-color:#5B7D87"/>
		<stop  offset="1" style="stop-color:#5F818A"/>
	</linearGradient>
	<polygon class="st2" points="1230.3,358 1339.4,284 957.8,25 957.8,173 	"/>
	<linearGradient id="SVGID_3_" gradientUnits="userSpaceOnUse" x1="561.4531" y1="791.6584" x2="640.2754" y2="466.6173">
		<stop  offset="0" style="stop-color:#F4E7D7"/>
		<stop  offset="0.1849" style="stop-color:#E4D9CC"/>
		<stop  offset="0.7132" style="stop-color:#BCB5B1"/>
		<stop  offset="0.9872" style="stop-color:#ADA7A7"/>
	</linearGradient>
	<polygon class="st3" points="685.2,358 576.2,284 576.2,802 685.2,728 	"/>
	<linearGradient id="SVGID_4_" gradientUnits="userSpaceOnUse" x1="576.205" y1="894.4935" x2="957.79" y2="894.4935">
		<stop  offset="4.358974e-02" style="stop-color:#5F7B93"/>
		<stop  offset="1" style="stop-color:#85A0B3"/>
	</linearGradient>
	<polygon class="st4" points="685.2,728 576.2,802 957.8,1061 957.8,913 	"/>
	<linearGradient id="SVGID_5_" gradientUnits="userSpaceOnUse" x1="1259.9788" y1="348.8276" x2="1322.156" y2="741.6826">
		<stop  offset="0" style="stop-color:#6B82A8"/>
		<stop  offset="1" style="stop-color:#BCAF99"/>
	</linearGradient>
	<polygon class="st5" points="1230.3,358 1230.3,728 1339.4,802 1339.4,284 	"/>
	<linearGradient id="SVGID_6_" gradientUnits="userSpaceOnUse" x1="1158.0918" y1="822.4943" x2="1109.8905" y2="999.8689">
		<stop  offset="0" style="stop-color:#CBC5C1"/>
		<stop  offset="0.9872" style="stop-color:#73A0A5"/>
	</linearGradient>
	<polygon class="st6" points="957.8,913 957.8,1061 1339.4,802 1230.3,728 	"/>
	<linearGradient id="SVGID_7_" gradientUnits="userSpaceOnUse" x1="721.2297" y1="371.0119" x2="1162.1078" y2="691.5465">
		<stop  offset="0" style="stop-color:#5D7192"/>
		<stop  offset="1" style="stop-color:#66A699"/>
	</linearGradient>
	<polygon class="st7" points="685.2,358 685.2,728 957.8,913 1230.3,728 1230.3,358 957.8,173 	"/>
</g>
</svg>
