<?xml version="1.0" encoding="iso-8859-1"?>
<!-- Generator: Adobe Illustrator 19.0.0, SVG Export Plug-In . SVG Version: 6.00 Build 0)  -->
<svg version="1.1" id="Capa_1" xmlns="http://www.w3.org/2000/svg" xmlns:xlink="http://www.w3.org/1999/xlink" x="0px" y="0px"
	 viewBox="0 0 480 480" style="enable-background:new 0 0 480 480;" xml:space="preserve">
<g>
	<g>
		<path d="M472,288H347.312l32-32H408c22.056,0,40-17.944,40-40v-96c0-22.056-17.944-40-40-40H248c-22.056,0-40,17.944-40,40v96
			c0,22.056,17.944,40,40,40h28.688l32,32H8c-4.424,0-8,3.584-8,8v96c0,4.416,3.576,8,8,8h464c4.424,0,8-3.584,8-8v-96
			C480,291.584,476.424,288,472,288z M320,320h-16v16h16v16h-16v16h16v16h-16v-16h-16v16h-16v-16h-16v16h-16v-16h-16v16h-16v-16h-16
			v16h-16v-16h-16v16h-16v-16h-16v16h-16v-16H96v16H80v-16H64v16H48v-16H32v16H16v-16h16v-16H16v-16h16v-16H16v-16h16v16h16v-16h16
			v16h16v-16h16v16h16v-16h16v16h16v-16h16v16h16v-16h16v16h16v-16h16v16h16v-16h16v16h16v-16h16v16h16v-16h16V320z
			 M285.656,242.344C284.16,240.84,282.128,240,280,240h-32c-13.232,0-24-10.768-24-24v-96c0-13.232,10.768-24,24-24h160
			c13.232,0,24,10.768,24,24v96c0,13.232-10.768,24-24,24h-32c-2.128,0-4.16,0.84-5.656,2.344L328,284.688L285.656,242.344z
			 M464,384H336v-80h128V384z"/>
	</g>
</g>
<g>
	<g>
		<rect x="288" y="336" width="16" height="16"/>
	</g>
</g>
<g>
	<g>
		<rect x="272" y="320" width="16" height="16"/>
	</g>
</g>
<g>
	<g>
		<rect x="272" y="352" width="16" height="16"/>
	</g>
</g>
<g>
	<g>
		<rect x="256" y="336" width="16" height="16"/>
	</g>
</g>
<g>
	<g>
		<rect x="240" y="320" width="16" height="16"/>
	</g>
</g>
<g>
	<g>
		<rect x="240" y="352" width="16" height="16"/>
	</g>
</g>
<g>
	<g>
		<rect x="224" y="336" width="16" height="16"/>
	</g>
</g>
<g>
	<g>
		<rect x="208" y="320" width="16" height="16"/>
	</g>
</g>
<g>
	<g>
		<rect x="208" y="352" width="16" height="16"/>
	</g>
</g>
<g>
	<g>
		<rect x="192" y="336" width="16" height="16"/>
	</g>
</g>
<g>
	<g>
		<rect x="176" y="320" width="16" height="16"/>
	</g>
</g>
<g>
	<g>
		<rect x="176" y="352" width="16" height="16"/>
	</g>
</g>
<g>
	<g>
		<rect x="160" y="336" width="16" height="16"/>
	</g>
</g>
<g>
	<g>
		<rect x="144" y="320" width="16" height="16"/>
	</g>
</g>
<g>
	<g>
		<rect x="144" y="352" width="16" height="16"/>
	</g>
</g>
<g>
	<g>
		<rect x="128" y="336" width="16" height="16"/>
	</g>
</g>
<g>
	<g>
		<rect x="112" y="320" width="16" height="16"/>
	</g>
</g>
<g>
	<g>
		<rect x="112" y="352" width="16" height="16"/>
	</g>
</g>
<g>
	<g>
		<rect x="96" y="336" width="16" height="16"/>
	</g>
</g>
<g>
	<g>
		<rect x="80" y="320" width="16" height="16"/>
	</g>
</g>
<g>
	<g>
		<rect x="80" y="352" width="16" height="16"/>
	</g>
</g>
<g>
	<g>
		<rect x="64" y="336" width="16" height="16"/>
	</g>
</g>
<g>
	<g>
		<rect x="48" y="320" width="16" height="16"/>
	</g>
</g>
<g>
	<g>
		<rect x="48" y="352" width="16" height="16"/>
	</g>
</g>
<g>
	<g>
		<rect x="32" y="336" width="16" height="16"/>
	</g>
</g>
<g>
	<g>
		
			<rect x="263.491" y="160.02" transform="matrix(0.4961 -0.8682 0.8682 0.4961 19.3707 369.4176)" width="128.953" height="15.999"/>
	</g>
</g>
<g>
	<g>
		<rect x="352" y="168" width="16" height="16"/>
	</g>
</g>
<g>
	<g>
		<rect x="288" y="152" width="16" height="16"/>
	</g>
</g>
<g>
</g>
<g>
</g>
<g>
</g>
<g>
</g>
<g>
</g>
<g>
</g>
<g>
</g>
<g>
</g>
<g>
</g>
<g>
</g>
<g>
</g>
<g>
</g>
<g>
</g>
<g>
</g>
<g>
</g>
</svg>
